<?xml version="1.0" encoding="utf-8"?>
<!-- Generator: Adobe Illustrator 25.0.0, SVG Export Plug-In . SVG Version: 6.00 Build 0)  -->
<svg version="1.1" xmlns="http://www.w3.org/2000/svg" xmlns:xlink="http://www.w3.org/1999/xlink" x="0px" y="0px"
	 viewBox="0 0 500 500" style="enable-background:new 0 0 500 500;" xml:space="preserve">
<style type="text/css">
	.stt0{fill:#F0F0F0;}
	.stt1{fill:#E0E0E0;}
	.stt2{fill:#FAFAFA;}
	.stt3{fill:#FFFFFF;}
	.stt4{fill:#EBEBEB;}
	.stt5{fill:#263238;}
	.stt6{fill:#455A64;}
	.stt7{fill:#37474F;}
	.stt8{fill:#27DEBF;}
	.stt9{opacity:0.45;fill:#FFFFFF;}
	.stt10{opacity:0.35;}
	.stt11{opacity:0.15;}
	.stt12{opacity:0.65;fill:#FFFFFF;}
	.stt13{opacity:0.1;}
	.stt14{opacity:0.5;}
	.stt15{opacity:0.4;}
	.stt16{opacity:0.2;}
	.stt17{opacity:0.3;fill:#FFFFFF;}
	.stt18{opacity:0.2;fill:#FFFFFF;}
	.stt19{opacity:0.3;}
	.stt20{fill:#E6E6E6;}
	.stt21{opacity:0.05;}
	.stt22{opacity:0.4;fill:#FFFFFF;}
	.stt23{fill:none;stroke:#E0E0E0;stroke-width:2;stroke-linecap:round;stroke-linejoin:round;stroke-miterlimit:10;}
	.stt24{fill:none;stroke:#27DEBF;stroke-width:4;stroke-linecap:round;stroke-miterlimit:10;}
	.stt25{fill:#F28F8F;}
	.stt26{fill:#FFA8A7;}
</style>
<g id="Floor">
	<ellipse id="Floor_6_" class="stt0" cx="250.49" cy="336" rx="235.21" ry="133.5"/>
</g>
<g id="Shadows">
	<path id="Shadow_22_" class="stt1" d="M356.77,312.99l-32.74-18.86c-1.15-0.66-1.15-1.74,0-2.4l41.78-24.14
		c1.15-0.66,3.01-0.66,4.16,0l32.74,18.86c1.15,0.66,1.15,1.74,0,2.4l-41.78,24.14C359.78,313.65,357.92,313.65,356.77,312.99z"/>
	<ellipse id="Shadow_21_" class="stt1" cx="426" cy="342.72" rx="50.47" ry="34.31"/>
	<path id="Shadow_4_" class="stt1" d="M101.65,400.21l-79.68-46c-1.14-0.66-1.14-1.72,0-2.38l124.81-72.06
		c1.14-0.66,2.98-0.66,4.12,0l79.68,46.01c1.14,0.66,1.14,1.72,0,2.38l-124.81,72.06C104.64,400.87,102.79,400.87,101.65,400.21z"/>
	<path id="Shadow_9_" class="stt1" d="M112.16,392.91l18.43,10.64c1.38,0.8,3.61,0.8,4.99,0l229.18-132.32c1.38-0.8,1.38-2.09,0-2.88
		l-18.57-10.72c-1.38-0.8-3.61-0.8-4.99,0l-229.04,132.4C110.78,390.82,110.78,392.11,112.16,392.91z"/>
</g>
<g id="Gears_1_">
	<g id="Gears">
		<g id="XMLID_1037_">
			<path id="XMLID_1042_" class="stt1" d="M96.08,64.67L96.08,64.67c-0.23-0.13-0.53-0.12-0.85,0.08l-1.75,1.12l-0.39,1.02
				c-0.23,0.61,0.02,1.42,0.48,1.9c0.28,0.29,0.55,0.61,0.8,0.95c0.39,0.53,1.08,0.72,1.64,0.35l4.09-2.62
				c0.31-0.19,0.61-0.21,0.83-0.09L96.08,64.67z M89.78,79.28c-0.57-3.22-2.68-4.84-5.42-4.62c0.24,0.53,0.44,1.16,0.57,1.89
				c0.91,5.11-2.42,12.36-7.43,16.19c-1.84,1.41-3.65,2.15-5.25,2.28c1.64,3.43,5.79,3.75,10.11,0.45
				C87.37,91.64,90.69,84.39,89.78,79.28z M89.87,57.43L89.87,57.43c-0.1-0.05-0.2-0.09-0.32-0.12l-3.08-0.68
				c-0.65-0.14-1.44,0.21-1.75,0.79l-2.9,5.38c-0.14,0.26-0.37,0.5-0.65,0.72h-0.01c-0.15,0.13-0.32,0.24-0.49,0.32l0.91,2.93
				c0.19,0.62,0.84,0.89,1.45,0.64c0.65-0.25,1.28-0.46,1.9-0.61c0.36-0.09,0.76-0.3,1.1-0.56c0.27-0.21,0.52-0.46,0.65-0.72
				l2.89-5.38c0.32-0.57,1.1-0.93,1.75-0.79l3.09,0.68c0.11,0.02,0.22,0.06,0.31,0.11L89.87,57.43z M81.19,109.47
				c-0.13-0.1-0.23-0.25-0.29-0.46l-1.04-3.37c-0.19-0.62-0.83-0.9-1.45-0.64c-0.64,0.25-1.28,0.46-1.9,0.61
				c-0.19,0.05-0.4,0.13-0.6,0.24l0.14,0.43c0.08,0.25,0.22,0.42,0.4,0.52v0.01L81.19,109.47z M75.29,60.15
				c-0.11-0.06-0.22-0.09-0.34-0.09c-0.19,0-0.38,0.06-0.57,0.21l-4.62,3.53c-0.06,0.05-0.12,0.1-0.18,0.17
				c-0.05,0.04-0.08,0.09-0.12,0.13c-0.16,0.2-0.3,0.45-0.4,0.71c-0.02,0.06-0.04,0.12-0.06,0.17h0.01
				c-0.08,0.25-0.14,0.5-0.12,0.72l0.27,4.28c0.04,0.65-0.29,1.57-0.72,2.07c-0.76,0.88-1.47,1.81-2.14,2.76
				c-0.23,0.32-0.61,0.6-1.02,0.76c-0.14,0.06-0.27,0.09-0.4,0.12c-0.06,0.02-0.13,0.03-0.19,0.03c-0.09,0.02-0.18,0.02-0.27,0.02
				l-2.97-0.14h-0.07c-0.08,0-0.16,0.01-0.24,0.02c-0.07,0.01-0.15,0.02-0.22,0.05c-0.01,0-0.02,0-0.02,0.01
				c-0.08,0.02-0.16,0.06-0.24,0.09c-0.15,0.07-0.3,0.16-0.43,0.26c-0.2,0.17-0.37,0.37-0.48,0.59l-2.79,6.09
				c-0.25,0.54-0.04,1.16,0.47,1.46l3.3,1.85c0.1,0.27,0.14,0.56,0.07,0.83c-0.23,0.98-0.4,1.95-0.52,2.9
				c-0.07,0.64-0.5,1.53-0.99,1.97l-0.05,0.04l-4.05,3.62c-0.07,0.06-0.14,0.13-0.19,0.21c-0.01,0.02-0.02,0.02-0.02,0.04
				c-0.06,0.08-0.12,0.17-0.16,0.26c-0.26,0.44-0.39,1.01-0.31,1.46l0.78,4.34c0.05,0.28,0.18,0.47,0.36,0.59l4.84,2.71
				c-0.17-0.11-0.29-0.31-0.34-0.57l-0.77-4.34c-0.05-0.25-0.02-0.55,0.05-0.83c0.11-0.44,0.34-0.87,0.64-1.13l4.04-3.62l0.05-0.04
				c0.49-0.44,0.92-1.33,1-1.97c0.11-0.95,0.28-1.93,0.52-2.9c0.15-0.64-0.21-1.35-0.82-1.61l-2.4-0.99
				c-0.61-0.26-0.9-0.95-0.62-1.54l2.79-6.09c0.11-0.22,0.27-0.42,0.48-0.59c0.35-0.28,0.81-0.46,1.23-0.43l2.97,0.14
				c0.27,0.02,0.57-0.05,0.86-0.17c0.41-0.17,0.79-0.44,1.02-0.76c0.67-0.95,1.39-1.88,2.14-2.76c0.44-0.5,0.76-1.42,0.72-2.07
				l-0.27-4.27c-0.02-0.23,0.02-0.49,0.11-0.74c0.15-0.46,0.43-0.91,0.77-1.17l4.61-3.53c0.32-0.24,0.65-0.28,0.91-0.13L75.29,60.15
				z M68.36,105.53c0.23-0.61-0.02-1.42-0.49-1.9c-0.28-0.29-0.55-0.61-0.79-0.95c-0.39-0.53-1.08-0.72-1.64-0.36l-2.34,1.49
				l-1.7,4.47c-0.19,0.49,0,0.98,0.41,1.22l-0.01,0.01l4.87,2.74c-0.42-0.25-0.6-0.74-0.41-1.23L68.36,105.53z"/>
			<path class="stt2" d="M64.09,94.51l-4.04,3.62c-0.3,0.27-0.53,0.69-0.64,1.13l-4.85-2.72c0.06-0.22,0.14-0.43,0.24-0.63
				c0.04-0.09,0.1-0.18,0.16-0.26c0.01-0.02,0.02-0.02,0.02-0.04c0.06-0.08,0.12-0.15,0.19-0.21l4.05-3.62L64.09,94.51z"/>
			<path class="stt2" d="M70.14,78.31c-0.28,0.12-0.58,0.18-0.86,0.17l-2.97-0.14c-0.42-0.02-0.88,0.16-1.23,0.43l-4.86-2.73
				c0.13-0.1,0.27-0.19,0.43-0.26c0.08-0.04,0.16-0.07,0.24-0.09c0.01-0.01,0.02-0.01,0.02-0.01c0.07-0.02,0.15-0.04,0.22-0.05
				c0.08-0.02,0.16-0.02,0.24-0.02h0.07l2.97,0.14c0.09,0.01,0.18,0,0.27-0.02c0.06-0.01,0.13-0.02,0.19-0.03
				c0.13-0.03,0.26-0.08,0.39-0.13l0.02,0.01L70.14,78.31z"/>
			<path id="XMLID_1041_" class="stt2" d="M100.93,67.38c-0.23-0.13-0.53-0.1-0.83,0.09l-4.09,2.62c-0.56,0.35-1.25,0.17-1.64-0.36
				c-0.25-0.35-0.51-0.66-0.8-0.95c-0.46-0.47-0.71-1.28-0.48-1.9l0.39-1.01l1.75-1.12c0.32-0.2,0.62-0.21,0.85-0.08v-0.01
				L100.93,67.38z"/>
			<path class="stt2" d="M94.72,60.15c-0.09-0.05-0.19-0.09-0.31-0.11l-3.09-0.68c-0.65-0.14-1.43,0.21-1.75,0.79l-2.89,5.38
				c-0.14,0.26-0.38,0.51-0.65,0.72l-4.86-2.74c0.27-0.22,0.51-0.46,0.65-0.72l2.9-5.38c0.31-0.57,1.09-0.93,1.75-0.79l3.08,0.68
				c0.12,0.02,0.23,0.07,0.32,0.13v-0.01L94.72,60.15z"/>
			<path class="stt2" d="M80.15,62.88c-0.26-0.15-0.6-0.12-0.91,0.13l-4.61,3.53c-0.34,0.26-0.62,0.71-0.77,1.17L69,64.99
				c0.02-0.06,0.04-0.12,0.06-0.17c0.11-0.26,0.24-0.5,0.4-0.71c0.04-0.05,0.07-0.09,0.12-0.13c0.06-0.06,0.11-0.12,0.18-0.17
				l4.62-3.53c0.19-0.15,0.38-0.21,0.57-0.21c0.12,0,0.23,0.03,0.34,0.09L80.15,62.88z"/>
			<path id="XMLID_1038_" class="stt0" d="M102.08,72.33l-0.77-4.34c-0.11-0.64-0.66-0.87-1.22-0.51l-4.09,2.62
				c-0.56,0.36-1.26,0.17-1.64-0.36c-0.25-0.34-0.51-0.66-0.8-0.95c-0.46-0.47-0.71-1.28-0.48-1.89l2.09-5.49
				c0.23-0.61-0.11-1.22-0.76-1.36l-3.08-0.67c-0.65-0.14-1.44,0.21-1.75,0.79l-2.9,5.37c-0.31,0.58-1.1,1.12-1.75,1.28
				c-0.62,0.15-1.25,0.36-1.9,0.61c-0.62,0.24-1.26-0.02-1.46-0.65l-1.04-3.37c-0.19-0.62-0.78-0.8-1.3-0.4l-4.62,3.53
				c-0.53,0.4-0.92,1.26-0.88,1.91l0.28,4.28c0.04,0.65-0.29,1.57-0.72,2.07c-0.76,0.88-1.47,1.81-2.14,2.76
				c-0.38,0.54-1.21,0.96-1.88,0.93l-2.97-0.14c-0.67-0.03-1.43,0.42-1.7,1.02l-2.79,6.09c-0.27,0.6,0.01,1.28,0.62,1.54l2.4,1
				c0.62,0.26,0.97,0.97,0.82,1.61c-0.23,0.98-0.4,1.95-0.51,2.9c-0.08,0.65-0.51,1.53-1,1.97l-4.09,3.66
				c-0.49,0.44-0.8,1.32-0.69,1.96l0.77,4.34c0.11,0.64,0.66,0.87,1.22,0.51l4.09-2.62c0.56-0.36,1.26-0.17,1.64,0.36
				c0.25,0.34,0.51,0.66,0.8,0.95c0.46,0.47,0.71,1.28,0.48,1.9l-2.08,5.49c-0.23,0.61,0.11,1.22,0.76,1.36l3.08,0.67
				c0.65,0.14,1.44-0.21,1.75-0.79l2.9-5.37c0.31-0.58,1.1-1.12,1.75-1.28c0.62-0.15,1.25-0.36,1.9-0.61
				c0.62-0.24,1.26,0.02,1.46,0.65l1.04,3.37c0.19,0.62,0.78,0.8,1.3,0.4l4.62-3.53c0.53-0.4,0.92-1.26,0.88-1.91l-0.28-4.28
				c-0.04-0.65,0.29-1.57,0.72-2.07c0.76-0.88,1.47-1.81,2.14-2.76c0.38-0.54,1.21-0.96,1.88-0.93l2.97,0.14
				c0.67,0.03,1.43-0.42,1.7-1.02l2.79-6.09c0.27-0.6-0.01-1.28-0.62-1.54l-2.4-1c-0.62-0.26-0.97-0.97-0.82-1.61
				c0.23-0.98,0.4-1.95,0.51-2.9c0.08-0.65,0.51-1.53,1-1.97l4.09-3.66C101.89,73.85,102.2,72.98,102.08,72.33z M82.36,95.47
				c-5,3.83-9.8,2.79-10.7-2.33c-0.91-5.12,2.42-12.37,7.42-16.2c5-3.83,9.8-2.79,10.7,2.33C90.69,84.39,87.37,91.64,82.36,95.47z"
				/>
		</g>
		<g id="XMLID_968_">
			<path id="XMLID_1016_" class="stt1" d="M101.94,133.88L101.94,133.88c-0.26-0.15-0.62-0.14-0.98,0.09l-2.03,1.3l-0.45,1.18
				c-0.27,0.71,0.02,1.65,0.55,2.19c0.33,0.34,0.64,0.7,0.92,1.1c0.45,0.61,1.25,0.83,1.9,0.41l4.73-3.03
				c0.35-0.22,0.7-0.25,0.96-0.1L101.94,133.88z M94.67,150.77c-0.66-3.73-3.1-5.59-6.27-5.34c0.28,0.62,0.5,1.35,0.65,2.18
				c1.05,5.91-2.8,14.29-8.59,18.72c-2.13,1.63-4.22,2.49-6.06,2.64c1.9,3.96,6.7,4.34,11.69,0.52
				C91.87,165.07,95.71,156.68,94.67,150.77z M94.77,125.52L94.77,125.52c-0.11-0.05-0.23-0.11-0.37-0.14l-3.56-0.78
				c-0.76-0.16-1.66,0.25-2.02,0.91l-3.35,6.22c-0.16,0.3-0.43,0.57-0.75,0.83h-0.01c-0.18,0.15-0.36,0.27-0.57,0.37l1.05,3.39
				c0.22,0.72,0.97,1.03,1.68,0.75c0.75-0.29,1.49-0.53,2.2-0.7c0.42-0.11,0.88-0.35,1.27-0.65c0.32-0.25,0.6-0.54,0.76-0.84
				l3.34-6.22c0.36-0.66,1.27-1.07,2.02-0.91l3.57,0.78c0.13,0.03,0.25,0.07,0.35,0.13L94.77,125.52z M84.73,185.68
				c-0.15-0.12-0.27-0.29-0.34-0.53l-1.21-3.89c-0.21-0.72-0.96-1.04-1.68-0.75c-0.74,0.29-1.48,0.53-2.2,0.7
				c-0.22,0.05-0.46,0.15-0.69,0.28l0.16,0.5c0.09,0.29,0.25,0.49,0.46,0.6v0.01L84.73,185.68z M77.9,128.66
				c-0.12-0.06-0.25-0.1-0.39-0.1c-0.21,0-0.44,0.07-0.65,0.25l-5.34,4.08c-0.07,0.05-0.14,0.12-0.21,0.19
				c-0.06,0.05-0.09,0.1-0.14,0.15c-0.19,0.24-0.35,0.52-0.47,0.82c-0.02,0.06-0.05,0.14-0.07,0.2h0.01
				c-0.09,0.29-0.16,0.58-0.14,0.84l0.32,4.95c0.05,0.75-0.34,1.82-0.83,2.39c-0.88,1.02-1.7,2.09-2.48,3.19
				c-0.26,0.37-0.7,0.69-1.18,0.88c-0.16,0.06-0.31,0.11-0.47,0.14c-0.07,0.02-0.15,0.04-0.22,0.04c-0.1,0.02-0.21,0.03-0.31,0.02
				l-3.43-0.16h-0.08c-0.09,0-0.19,0.01-0.28,0.03c-0.08,0.01-0.17,0.03-0.25,0.05c-0.01,0-0.02,0-0.03,0.01
				c-0.09,0.03-0.19,0.06-0.28,0.11c-0.18,0.08-0.35,0.18-0.5,0.3c-0.23,0.19-0.43,0.43-0.55,0.68l-3.22,7.04
				c-0.29,0.63-0.05,1.34,0.54,1.69l3.81,2.14c0.12,0.31,0.16,0.65,0.08,0.96c-0.26,1.13-0.47,2.25-0.6,3.35
				c-0.08,0.75-0.58,1.77-1.15,2.28l-0.06,0.05l-4.68,4.18c-0.08,0.07-0.16,0.15-0.22,0.25c-0.01,0.02-0.02,0.03-0.03,0.05
				c-0.07,0.09-0.14,0.19-0.19,0.3c-0.3,0.51-0.45,1.16-0.36,1.68l0.9,5.02c0.06,0.32,0.21,0.55,0.41,0.68l5.6,3.14
				c-0.2-0.13-0.34-0.35-0.39-0.66l-0.89-5.02c-0.06-0.29-0.03-0.64,0.06-0.96c0.13-0.51,0.39-1,0.74-1.31l4.67-4.18l0.06-0.05
				c0.57-0.51,1.07-1.54,1.16-2.28c0.13-1.1,0.33-2.23,0.6-3.35c0.17-0.74-0.24-1.56-0.95-1.86l-2.77-1.15
				c-0.71-0.3-1.04-1.1-0.72-1.78l3.22-7.04c0.12-0.25,0.31-0.49,0.55-0.68c0.4-0.32,0.93-0.53,1.42-0.5l3.44,0.16
				c0.32,0.02,0.66-0.05,0.99-0.19c0.48-0.19,0.92-0.51,1.18-0.88c0.78-1.1,1.61-2.17,2.48-3.19c0.5-0.57,0.88-1.64,0.83-2.39
				l-0.32-4.94c-0.02-0.26,0.03-0.56,0.13-0.85c0.17-0.54,0.5-1.05,0.89-1.35l5.33-4.08c0.36-0.28,0.76-0.32,1.06-0.15L77.9,128.66z
				 M69.9,181.12c0.26-0.71-0.03-1.65-0.56-2.19c-0.33-0.34-0.64-0.7-0.92-1.1c-0.45-0.62-1.25-0.83-1.9-0.42l-2.7,1.73l-1.96,5.16
				c-0.21,0.56,0,1.13,0.48,1.41l-0.01,0.01l5.63,3.16c-0.49-0.29-0.69-0.85-0.48-1.42L69.9,181.12z"/>
			<path class="stt2" d="M64.96,168.38l-4.67,4.18c-0.35,0.31-0.61,0.8-0.74,1.31l-5.61-3.15c0.07-0.25,0.16-0.5,0.28-0.73
				c0.05-0.11,0.11-0.21,0.19-0.3c0.01-0.02,0.02-0.03,0.03-0.05c0.07-0.09,0.14-0.17,0.22-0.25l4.68-4.18L64.96,168.38z"/>
			<path class="stt2" d="M71.95,149.66c-0.33,0.14-0.67,0.21-0.99,0.19l-3.44-0.16c-0.49-0.03-1.02,0.18-1.42,0.5l-5.61-3.15
				c0.15-0.12,0.32-0.22,0.5-0.3c0.09-0.05,0.19-0.08,0.28-0.11c0.01-0.01,0.02-0.01,0.03-0.01c0.08-0.03,0.17-0.05,0.25-0.05
				c0.09-0.02,0.19-0.03,0.28-0.03h0.08l3.43,0.16c0.1,0.01,0.21,0,0.31-0.02c0.07-0.01,0.15-0.02,0.22-0.04
				c0.15-0.04,0.3-0.09,0.45-0.15l0.02,0.01L71.95,149.66z"/>
			<path id="XMLID_1012_" class="stt2" d="M107.55,137.02c-0.26-0.15-0.61-0.12-0.96,0.11l-4.73,3.03c-0.64,0.41-1.45,0.2-1.9-0.42
				c-0.29-0.4-0.59-0.76-0.92-1.1c-0.53-0.55-0.82-1.48-0.55-2.19l0.45-1.17l2.03-1.3c0.36-0.23,0.72-0.25,0.98-0.09v-0.01
				L107.55,137.02z"/>
			<path class="stt2" d="M100.37,128.66c-0.1-0.05-0.22-0.1-0.35-0.13l-3.57-0.78c-0.75-0.16-1.65,0.25-2.02,0.91l-3.34,6.22
				c-0.16,0.3-0.44,0.59-0.76,0.84l-5.61-3.16c0.32-0.25,0.59-0.53,0.75-0.83l3.35-6.22c0.36-0.66,1.26-1.07,2.02-0.91l3.56,0.78
				c0.14,0.03,0.26,0.08,0.37,0.15v-0.01L100.37,128.66z"/>
			<path class="stt2" d="M83.53,131.82c-0.3-0.17-0.69-0.14-1.06,0.15l-5.33,4.08c-0.39,0.3-0.72,0.82-0.89,1.35l-5.61-3.15
				c0.02-0.06,0.05-0.14,0.07-0.2c0.12-0.3,0.28-0.58,0.47-0.82c0.05-0.05,0.08-0.11,0.14-0.15c0.07-0.07,0.13-0.14,0.21-0.19
				l5.34-4.08c0.21-0.17,0.44-0.25,0.65-0.25c0.14,0,0.27,0.04,0.39,0.1L83.53,131.82z"/>
			<path id="XMLID_970_" class="stt0" d="M108.88,142.75l-0.89-5.02c-0.13-0.74-0.76-1.01-1.41-0.59l-4.73,3.03
				c-0.65,0.41-1.45,0.2-1.9-0.42c-0.29-0.4-0.59-0.76-0.92-1.1c-0.53-0.55-0.82-1.48-0.55-2.19l2.41-6.34
				c0.27-0.71-0.13-1.41-0.88-1.58l-3.56-0.78c-0.76-0.16-1.66,0.24-2.02,0.91l-3.35,6.21c-0.36,0.67-1.27,1.3-2.02,1.48
				c-0.72,0.18-1.45,0.41-2.19,0.71c-0.72,0.28-1.46-0.03-1.68-0.75l-1.2-3.89c-0.22-0.72-0.9-0.93-1.51-0.46l-5.34,4.08
				c-0.61,0.47-1.06,1.45-1.01,2.2l0.32,4.94c0.05,0.75-0.33,1.81-0.83,2.39c-0.87,1.02-1.7,2.09-2.48,3.19
				c-0.44,0.62-1.4,1.11-2.17,1.07l-3.43-0.16c-0.77-0.04-1.66,0.49-1.97,1.18l-3.23,7.04c-0.32,0.69,0.01,1.49,0.72,1.78l2.77,1.15
				c0.71,0.3,1.12,1.12,0.95,1.86c-0.26,1.13-0.46,2.25-0.59,3.36c-0.09,0.75-0.59,1.77-1.16,2.28l-4.73,4.23
				c-0.57,0.51-0.93,1.52-0.79,2.27l0.89,5.02c0.13,0.74,0.76,1.01,1.41,0.59l4.73-3.03c0.65-0.41,1.45-0.2,1.9,0.42
				c0.29,0.4,0.59,0.76,0.92,1.1c0.53,0.55,0.82,1.48,0.55,2.19l-2.41,6.34c-0.27,0.71,0.13,1.41,0.88,1.58l3.56,0.77
				c0.76,0.16,1.66-0.24,2.02-0.91l3.35-6.21c0.36-0.67,1.27-1.3,2.02-1.48c0.72-0.18,1.45-0.41,2.19-0.71
				c0.72-0.28,1.46,0.03,1.68,0.75l1.2,3.89c0.22,0.72,0.9,0.93,1.51,0.46l5.34-4.08c0.61-0.47,1.06-1.45,1.01-2.2l-0.32-4.94
				c-0.05-0.75,0.33-1.81,0.83-2.39c0.88-1.02,1.7-2.09,2.48-3.19c0.44-0.62,1.4-1.11,2.17-1.07l3.43,0.16
				c0.77,0.04,1.66-0.49,1.97-1.18l3.23-7.04c0.32-0.69-0.01-1.49-0.72-1.78l-2.77-1.15c-0.71-0.3-1.12-1.12-0.95-1.86
				c0.26-1.13,0.46-2.25,0.59-3.36c0.09-0.75,0.59-1.77,1.16-2.28l4.73-4.23C108.66,144.5,109.01,143.49,108.88,142.75z
				 M86.09,169.49c-5.79,4.43-11.32,3.22-12.37-2.69c-1.05-5.91,2.8-14.3,8.58-18.72c5.79-4.43,11.32-3.22,12.37,2.69
				C95.71,156.69,91.87,165.07,86.09,169.49z"/>
		</g>
		<g id="XMLID_790_">
			<path id="XMLID_965_" class="stt1" d="M127.67,122.75c0.29-0.56,0.21-1.41-0.12-1.95c-0.74-1.18-1.36-2.51-1.85-4
				c-0.19-0.59-0.79-0.87-1.38-0.62l-2,0.88c0.2,0.41,0.42,0.8,0.66,1.17c0.33,0.53,0.41,1.39,0.12,1.95l-5.51,10.82
				c-0.29,0.56-0.06,1.26,0.49,1.58l4.53,2.54c-0.52-0.33-0.73-1.02-0.45-1.56L127.67,122.75z M152.17,47.42
				c-0.09-0.05-0.19-0.07-0.29-0.07c-0.15,0-0.3,0.04-0.46,0.13l-9.3,5.22c-0.05,0.03-0.09,0.06-0.14,0.09
				c-0.05,0.04-0.09,0.07-0.14,0.11c-0.05,0.04-0.09,0.08-0.13,0.12c-0.09,0.09-0.16,0.18-0.24,0.29c-0.26,0.33-0.43,0.73-0.46,1.08
				l-0.94,10.06c-0.05,0.62-0.5,1.46-0.97,1.88c-1.81,1.63-3.53,3.41-5.17,5.32c-0.4,0.48-1.21,0.71-1.83,0.5l-5.96-2.03
				c-0.15-0.05-0.31-0.08-0.47-0.06h-0.03c-0.02-0.01-0.05,0-0.07,0.01c-0.03-0.01-0.06,0-0.09,0.01c-0.06,0.01-0.12,0.02-0.18,0.04
				c-0.19,0.05-0.36,0.14-0.52,0.26c-0.04,0.02-0.07,0.05-0.1,0.08c-0.09,0.08-0.16,0.17-0.22,0.27l-6.84,11.51
				c-0.15,0.26-0.19,0.56-0.15,0.84c0.03,0.33,0.19,0.65,0.45,0.87l4.79,4.02c0.49,0.41,0.69,1.2,0.46,1.79
				c-0.89,2.33-1.61,4.67-2.15,7.01c-0.08,0.33-0.27,0.72-0.53,1.07c-0.05,0.07-0.1,0.14-0.16,0.2c-0.05,0.06-0.1,0.12-0.15,0.18
				c-0.12,0.11-0.23,0.22-0.35,0.3l-8.49,5.82c-0.05,0.04-0.11,0.08-0.15,0.12c-0.05,0.05-0.1,0.1-0.15,0.15
				c-0.38,0.4-0.65,1.01-0.65,1.51v10.45c0,0.32,0.13,0.56,0.33,0.67l4.58,2.57c-0.2-0.12-0.33-0.35-0.33-0.68v-10.45
				c0-0.37,0.15-0.8,0.37-1.16c0.16-0.26,0.36-0.47,0.57-0.62l8.49-5.81c0.23-0.16,0.46-0.41,0.67-0.68
				c0.25-0.35,0.45-0.74,0.53-1.08c0.54-2.33,1.27-4.68,2.15-7.01c0.22-0.59,0.02-1.38-0.46-1.79l-4.79-4.02
				c-0.26-0.22-0.42-0.54-0.45-0.87c-0.05-0.29,0-0.59,0.15-0.84l6.84-11.51c0.23-0.39,0.68-0.64,1.14-0.67
				c0.19-0.02,0.37,0,0.54,0.06l5.96,2.03c0.61,0.2,1.42-0.02,1.83-0.5c1.62-1.91,3.35-3.7,5.16-5.32c0.47-0.42,0.91-1.26,0.97-1.88
				l0.94-10.06c0.02-0.2,0.08-0.4,0.17-0.6c0.2-0.45,0.55-0.87,0.94-1.09l9.3-5.22c0.26-0.14,0.51-0.17,0.7-0.09L152.17,47.42z
				 M145.88,137c-0.17-0.11-0.28-0.32-0.31-0.59l-0.9-8.78c-0.06-0.62-0.62-0.99-1.25-0.85c-1.07,0.23-2.1,0.37-3.11,0.41l0.69,6.66
				c0.03,0.29,0.17,0.51,0.36,0.61v0.01L145.88,137z M160.44,74.01c1.33,1.79,2.03,4.53,2.03,8.11c0,9.75-7.03,21.59-15.71,26.47
				c-3.38,1.9-6.26,2.54-8.52,2.02c2.81,3.18,7.63,3.62,13.09,0.55c8.68-4.88,15.71-16.72,15.71-26.48
				C167.05,78.74,164.44,74.96,160.44,74.01z M169.48,45.93c-0.56-0.32-1.29-0.14-1.65,0.38l-6.88,10.05
				c-0.03,0.05-0.06,0.08-0.1,0.13c-0.05,0.05-0.1,0.11-0.16,0.16c-0.02,0.03-0.05,0.05-0.09,0.08c-0.03,0.03-0.06,0.05-0.09,0.08
				c-0.39,0.28-0.91,0.44-1.35,0.44c-0.45-0.02-0.9-0.01-1.36,0.02l0.22,2.13c0.07,0.62,0.62,0.99,1.25,0.85
				c1.55-0.33,3.05-0.47,4.48-0.44c0.43,0.01,0.95-0.16,1.35-0.44c0.19-0.13,0.34-0.27,0.45-0.44l6.88-10.06
				c0.35-0.51,1.07-0.68,1.62-0.38L169.48,45.93z M182.79,64.61c-0.05-0.02-0.1-0.05-0.15-0.05c-0.17-0.04-0.36-0.02-0.57,0.07
				l-6.26,2.75c0.15,0.29,0.29,0.57,0.43,0.87c0.12,0.26,0.23,0.52,0.33,0.79c0.03,0.05,0.05,0.11,0.06,0.16
				c0.12,0.28,0.22,0.56,0.31,0.85c0.02,0.05,0.04,0.11,0.05,0.16c0.05,0.17,0.14,0.3,0.25,0.41c0.04,0.04,0.08,0.08,0.12,0.1
				c0.02,0.02,0.05,0.04,0.08,0.05c0.08,0.05,0.15,0.09,0.24,0.11c0.03,0.01,0.06,0.02,0.09,0.02c0.13,0.03,0.26,0.03,0.39,0v-0.01
				c0.02,0,0.03-0.01,0.04-0.01c0.06-0.01,0.12-0.03,0.18-0.06l8.27-3.63c0.22-0.11,0.44-0.12,0.61-0.05
				c0.05,0.01,0.09,0.02,0.12,0.05L182.79,64.61z"/>
			<path class="stt2" d="M174.03,48.49c-0.56-0.3-1.28-0.14-1.62,0.38l-6.88,10.06c-0.11,0.17-0.26,0.31-0.45,0.44l-4.57-2.57
				l-0.01-0.01c0.07-0.05,0.14-0.09,0.19-0.14c0.06-0.05,0.12-0.11,0.16-0.16c0.04-0.05,0.07-0.08,0.1-0.13l6.88-10.05
				c0.36-0.52,1.09-0.69,1.65-0.38L174.03,48.49z"/>
			<path class="stt2" d="M125.09,100.44c-0.2,0.27-0.43,0.52-0.67,0.68l-8.49,5.81c-0.22,0.15-0.41,0.37-0.57,0.62l-4.55-2.56
				c0.08-0.13,0.16-0.25,0.26-0.35c0.05-0.05,0.09-0.11,0.15-0.15c0.05-0.05,0.1-0.08,0.15-0.12l8.49-5.82
				c0.12-0.08,0.23-0.19,0.35-0.3c0.05-0.06,0.1-0.12,0.15-0.18c0.05-0.07,0.1-0.14,0.15-0.2h0.01L125.09,100.44z"/>
			<path class="stt2" d="M130.19,72.64c-0.46,0.03-0.9,0.28-1.14,0.67l-6.84,11.51c-0.15,0.25-0.2,0.55-0.15,0.84l-4.57-2.57
				c-0.04-0.29,0-0.59,0.15-0.84l6.84-11.51c0.06-0.11,0.13-0.2,0.22-0.27c0.03-0.04,0.06-0.06,0.1-0.08
				c0.15-0.13,0.33-0.21,0.52-0.26c0.05-0.01,0.12-0.03,0.18-0.04c0.02-0.01,0.05-0.01,0.09-0.01c0.02-0.01,0.05-0.02,0.07-0.01
				c0.01-0.01,0.02-0.01,0.02-0.01l0.01,0.01L130.19,72.64z"/>
			<path class="stt2" d="M156.69,49.95c-0.19-0.08-0.44-0.05-0.7,0.09l-9.3,5.22c-0.39,0.22-0.73,0.64-0.94,1.09l-4.56-2.57
				c0.08-0.17,0.17-0.33,0.28-0.48c0.08-0.11,0.15-0.2,0.24-0.29c0.05-0.05,0.09-0.08,0.13-0.12c0.05-0.05,0.09-0.08,0.14-0.11
				c0.05-0.03,0.09-0.06,0.14-0.09l9.3-5.22c0.15-0.09,0.31-0.13,0.46-0.13c0.11,0,0.21,0.02,0.29,0.07L156.69,49.95z"/>
			<path class="stt2" d="M182.79,64.61l4.58,2.57c-0.03-0.02-0.07-0.04-0.12-0.05c-0.17-0.07-0.39-0.05-0.61,0.05l-8.27,3.63
				c-0.42,0.19-0.85,0.09-1.13-0.2c-0.11-0.11-0.19-0.25-0.25-0.41c-0.02-0.05-0.03-0.11-0.05-0.16c-0.09-0.29-0.19-0.57-0.31-0.85
				c-0.01-0.05-0.03-0.11-0.06-0.16c-0.1-0.27-0.21-0.53-0.33-0.79c-0.13-0.3-0.27-0.59-0.43-0.87l6.26-2.75
				c0.21-0.09,0.4-0.11,0.57-0.07C182.69,64.58,182.74,64.6,182.79,64.61L182.79,64.61z"/>
			<rect x="187.36" y="67.19" class="stt2" width="0.01" height="0.01"/>
			<path id="XMLID_917_" class="stt0" d="M187.7,78.3V67.86c0-0.62-0.47-0.92-1.06-0.66l-8.27,3.63c-0.58,0.26-1.18-0.03-1.38-0.62
				c-0.48-1.48-1.1-2.81-1.84-3.99c-0.33-0.53-0.41-1.39-0.13-1.95l5.52-10.82c0.28-0.56,0.07-1.26-0.49-1.58l-5.99-3.36
				c-0.55-0.31-1.29-0.14-1.65,0.38l-6.87,10.06c-0.35,0.52-1.16,0.89-1.8,0.87c-1.42-0.04-2.92,0.11-4.48,0.44
				c-0.63,0.13-1.18-0.23-1.24-0.85l-0.91-8.79c-0.06-0.62-0.57-0.87-1.12-0.56l-9.3,5.22c-0.55,0.31-1.05,1.07-1.11,1.69
				l-0.93,10.07c-0.06,0.62-0.5,1.46-0.97,1.88c-1.81,1.62-3.54,3.41-5.16,5.32c-0.41,0.48-1.22,0.71-1.83,0.5l-5.97-2.03
				c-0.6-0.21-1.35,0.07-1.68,0.61l-6.83,11.52c-0.32,0.54-0.19,1.31,0.3,1.71l4.79,4.02c0.49,0.41,0.69,1.21,0.46,1.79
				c-0.89,2.33-1.61,4.68-2.15,7.01c-0.14,0.61-0.67,1.39-1.19,1.75l-8.49,5.82c-0.52,0.36-0.95,1.16-0.95,1.78v10.45
				c0,0.62,0.47,0.92,1.06,0.67l8.27-3.63c0.58-0.26,1.18,0.03,1.38,0.62c0.48,1.48,1.1,2.81,1.84,3.99
				c0.33,0.53,0.41,1.39,0.13,1.95l-5.52,10.82c-0.28,0.56-0.07,1.26,0.49,1.58l5.99,3.36c0.55,0.31,1.29,0.14,1.65-0.38l6.87-10.06
				c0.35-0.52,1.16-0.89,1.8-0.87c1.42,0.04,2.92-0.11,4.48-0.44c0.63-0.13,1.18,0.23,1.24,0.85l0.91,8.79
				c0.06,0.62,0.57,0.87,1.12,0.56l9.3-5.22c0.55-0.31,1.05-1.07,1.11-1.69l0.93-10.07c0.06-0.62,0.5-1.46,0.97-1.88
				c1.81-1.62,3.54-3.41,5.16-5.32c0.41-0.48,1.22-0.71,1.83-0.5l5.97,2.03c0.6,0.21,1.35-0.07,1.68-0.61l6.83-11.52
				c0.32-0.54,0.19-1.31-0.3-1.71l-4.79-4.02c-0.49-0.41-0.69-1.21-0.46-1.79c0.89-2.33,1.61-4.68,2.15-7.01
				c0.14-0.61,0.67-1.39,1.19-1.75l8.49-5.82C187.27,79.72,187.7,78.93,187.7,78.3z M151.34,111.15
				c-8.67,4.87-15.71,0.92-15.71-8.82c0-9.75,7.03-21.6,15.71-26.47c8.67-4.87,15.7-0.92,15.7,8.82
				C167.05,94.43,160.02,106.28,151.34,111.15z"/>
		</g>
	</g>
</g>
<g id="Books_1_">
	<g id="Books">
		<g id="Book_2_">
			<g id="XMLID_280_">
				<polygon id="XMLID_5436_" points="34.07,349.57 102.68,388.68 216.02,323.63 147.42,285.45 				"/>
				<path id="XMLID_5435_" class="stt3" d="M103.46,385.71l-66.18-37.98c1.73-4.91,1.6-10.63-0.36-17.16l65.76,37.58
					C102.68,368.14,103.94,372.28,103.46,385.71z"/>
				<path class="stt4" d="M102.68,368.14l-65.76-37.58c0.59,1.96,0.98,3.84,1.21,5.64l65.27,37.68
					C103.17,369.92,102.68,368.14,102.68,368.14z"/>
				<path id="XMLID_556_" class="stt5" d="M99.3,362.78c3.51,2.02,6.36,6.92,6.36,10.95v12.79c0,4.03-2.85,5.66-6.36,3.65
					l-65.23-37.43l-0.01-3.17l64.35,36.7c2.11,1.21,3.81,0.23,3.81-2.19l-0.06-11.85c0-2.42-1.71-5.36-3.82-6.57l-64.28-36.71v-3.59
					L99.3,362.78z"/>
				<path id="XMLID_549_" class="stt6" d="M34.08,325.35l113.34-64.11l65.22,36.49c3.51,2.01,6.36,6.92,6.36,10.95l0,12.79
					c0,2.01-0.71,3.42-1.87,4.09l-113.34,65.05c1.16-0.66,1.86-2.08,1.87-4.09l0.01-12.8c0-4.03-2.85-8.93-6.36-10.95L34.08,325.35z
					"/>
				<path id="XMLID_547_" class="stt7" d="M103.81,367.49c1.15,1.98,1.86,4.21,1.86,6.23l-0.01,12.8c0,2.01-0.71,3.42-1.87,4.09
					l113.34-65.05c1.16-0.66,1.86-2.08,1.87-4.09l0-12.79c0-2.01-0.71-4.25-1.86-6.23L103.81,367.49z"/>
			</g>
		</g>
		<g id="Book_3_">
			<g id="XMLID_558_">
				<polygon id="XMLID_638_" class="stt8" points="33.89,317.13 102.92,356.6 208,296.3 138.98,257.75 				"/>
				<polygon id="XMLID_644_" class="stt9" points="33.89,317.13 102.92,356.6 208,296.3 138.98,257.75 				"/>
				<polygon id="XMLID_646_" class="stt10" points="33.89,317.13 102.92,356.6 208,296.3 138.98,257.75 				"/>
				<path id="XMLID_636_" class="stt3" d="M103.64,353.84l-66.78-38.42c1.6-4.55,1.48-9.86-0.33-15.91l66.39,38.05
					C102.92,337.56,104.08,341.4,103.64,353.84z"/>
				<path class="stt4" d="M102.92,337.56l-66.39-38.05c0.59,1.96,0.98,3.84,1.21,5.64l65.87,38.03
					C103.37,339.21,102.92,337.56,102.92,337.56z"/>
				<path id="XMLID_629_" class="stt8" d="M99.79,332.59c3.26,1.87,5.9,6.41,5.9,10.15l0,11.86c0,3.74-2.64,5.25-5.9,3.38
					L33.9,320.07l-0.01-2.94l65.09,37.23c1.95,1.12,3.54,0.21,3.53-2.03l-0.06-10.99c0-2.24-1.59-4.97-3.54-6.09L33.9,298v-3.33
					L99.79,332.59z"/>
				<path id="XMLID_628_" class="stt9" d="M99.79,332.59c3.26,1.87,5.9,6.41,5.9,10.15l0,11.86c0,3.74-2.64,5.25-5.9,3.38
					L33.9,320.07l-0.01-2.94l65.09,37.23c1.95,1.12,3.54,0.21,3.53-2.03l-0.06-10.99c0-2.24-1.59-4.97-3.54-6.09L33.9,298v-3.33
					L99.79,332.59z"/>
				<path id="XMLID_645_" class="stt11" d="M99.79,332.59c3.26,1.87,5.9,6.41,5.9,10.15l0,11.86c0,3.74-2.64,5.25-5.9,3.38
					L33.9,320.07l-0.01-2.94l65.09,37.23c1.95,1.12,3.54,0.21,3.53-2.03l-0.06-10.99c0-2.24-1.59-4.97-3.54-6.09L33.9,298v-3.33
					L99.79,332.59z"/>
				<path id="XMLID_570_" class="stt8" d="M33.9,294.68l105.08-59.37l65.89,36.98c3.25,1.87,5.9,6.41,5.9,10.15l0,11.86
					c0,1.86-0.66,3.17-1.73,3.79l-105.08,60.31c1.07-0.62,1.73-1.93,1.73-3.79l0.01-11.87c0-3.74-2.64-8.28-5.9-10.15L33.9,294.68z"
					/>
				<path id="XMLID_564_" class="stt12" d="M33.9,294.68l105.08-59.37l65.89,36.98c3.25,1.87,5.9,6.41,5.9,10.15l0,11.86
					c0,1.86-0.66,3.17-1.73,3.79l-105.08,60.31c1.07-0.62,1.73-1.93,1.73-3.79l0.01-11.87c0-3.74-2.64-8.28-5.9-10.15L33.9,294.68z"
					/>
				<path id="XMLID_562_" class="stt8" d="M103.96,336.96c1.07,1.84,1.73,3.91,1.73,5.78l-0.01,11.87c0,1.86-0.66,3.17-1.73,3.79
					l105.08-60.31c1.07-0.62,1.73-1.93,1.73-3.79l0-11.86c0-1.87-0.66-3.94-1.73-5.78L103.96,336.96z"/>
				<path id="XMLID_559_" class="stt9" d="M103.96,336.96c1.07,1.84,1.73,3.91,1.73,5.78l-0.01,11.87c0,1.86-0.66,3.17-1.73,3.79
					l105.08-60.31c1.07-0.62,1.73-1.93,1.73-3.79l0-11.86c0-1.87-0.66-3.94-1.73-5.78L103.96,336.96z"/>
			</g>
		</g>
		<path class="stt13" d="M96.7,330.81v25.39l-4.54,2.48l-58.08-33.33l4.5-2.57l-4.68-2.7l-0.01-2.94l2.97-1.71
			c1.73-4.92,1.36-10.35-0.33-15.91L33.9,298v-3.33L96.7,330.81z"/>
		<g id="Book_1_">
			<g id="XMLID_5463_">
				<polygon id="XMLID_5484_" class="stt8" points="21.94,289.5 91.6,329.54 196.69,269.23 127.03,230.13 				"/>
				<polygon id="XMLID_640_" class="stt14" points="21.94,289.5 91.6,329.54 196.69,269.23 127.03,230.13 				"/>
				<path id="XMLID_5483_" class="stt3" d="M92.33,326.78L24.91,287.8c1.6-4.55,1.48-8.92-0.33-14.98l67.02,38.61
					C91.6,311.43,92.77,314.34,92.33,326.78z"/>
				<path class="stt4" d="M91.61,311.43l-67.02-38.61c0.59,1.96,0.98,3.84,1.21,5.64l66.49,38.39
					C92.04,312.88,91.61,311.43,91.61,311.43z"/>
				<path id="XMLID_5482_" class="stt8" d="M88.47,306.46c3.26,1.87,5.9,6.41,5.9,10.15l0,10.92c0,3.74-2.64,5.25-5.9,3.38
					l-66.53-38.47l-0.01-2.94l65.72,37.79c1.95,1.12,3.54,0.21,3.53-2.03l-0.06-10.05c0-2.24-1.59-4.97-3.54-6.09l-65.65-37.81
					v-3.33L88.47,306.46z"/>
				<path id="XMLID_5481_" class="stt15" d="M88.47,306.46c3.26,1.87,5.9,6.41,5.9,10.15l0,10.92c0,3.74-2.64,5.25-5.9,3.38
					l-66.53-38.47l-0.01-2.94l65.72,37.79c1.95,1.12,3.54,0.21,3.53-2.03l-0.06-10.05c0-2.24-1.59-4.97-3.54-6.09l-65.65-37.81
					v-3.33L88.47,306.46z"/>
				<path id="XMLID_5480_" class="stt8" d="M21.95,267.99l105.08-60.31l66.52,38.47c3.25,1.87,5.9,6.41,5.9,10.15l0,10.93
					c0,1.86-0.66,3.17-1.73,3.79L92.64,331.33c1.07-0.62,1.73-1.93,1.73-3.79l0.01-10.93c0-3.74-2.64-8.28-5.9-10.15L21.95,267.99z"
					/>
				<path id="XMLID_5466_" class="stt16" d="M21.95,267.99l105.08-60.31l66.52,38.47c3.25,1.87,5.9,6.41,5.9,10.15l0,10.93
					c0,1.86-0.66,3.17-1.73,3.79L92.64,331.33c1.07-0.62,1.73-1.93,1.73-3.79l0.01-10.93c0-3.74-2.64-8.28-5.9-10.15L21.95,267.99z"
					/>
				<path id="XMLID_5465_" class="stt8" d="M92.65,310.83c1.07,1.84,1.73,3.91,1.73,5.78l-0.01,10.93c0,1.86-0.66,3.17-1.73,3.79
					l105.08-60.31c1.07-0.62,1.73-1.93,1.73-3.79l0-10.93c0-1.87-0.66-3.94-1.73-5.78L92.65,310.83z"/>
				<path id="XMLID_5464_" class="stt10" d="M92.65,310.83c1.07,1.84,1.73,3.91,1.73,5.78l-0.01,10.93c0,1.86-0.66,3.17-1.73,3.79
					l105.08-60.31c1.07-0.62,1.73-1.93,1.73-3.79l0-10.93c0-1.87-0.66-3.94-1.73-5.78L92.65,310.83z"/>
			</g>
		</g>
		<path class="stt13" d="M219,309.16C219,309.16,219,309.15,219,309.16v-0.47c0-0.75-0.1-1.54-0.28-2.33c0,0,0,0,0-0.01
			c-0.81-3.43-3.22-6.98-6.07-8.61l-2.27-1.27c0.25-0.6,0.39-1.33,0.39-2.17l0-11.86c0-3.74-2.64-8.28-5.9-10.15l-5.69-3.19
			c0.17-0.54,0.27-1.16,0.27-1.86l0-10.93c0-0.23-0.01-0.47-0.03-0.71c-0.03-0.3-0.07-0.6-0.13-0.9c-0.08-0.43-0.18-0.86-0.31-1.29
			c0-0.01-0.01-0.02-0.01-0.03c-0.07-0.23-0.15-0.47-0.24-0.7c0-0.01-0.01-0.02-0.01-0.04c-0.27-0.72-0.61-1.43-1-2.11h0
			l-82.33,47.23v20.49L95.12,329.9l1.57,0.91l9.68-5.63l9.01,5.2v21.41l-7.81,4.51l0,0l-3.56,2.04l-0.08,0.05
			c-1.07,0.61-2.54,0.53-4.17-0.4l-3.09-1.78l-1.37,0.75l4.98,2.91c1.36,0.8,3.06,0.8,4.42,0l4.53-2.61l6.14,3.55v23.15
			l101.75-58.39c0.29-0.17,0.55-0.38,0.78-0.64c0.69-0.77,1.08-1.94,1.09-3.45L219,309.16z"/>
	</g>
</g>
<g id="Apple_1_">
	<g id="Apple">
		<path id="XMLID_4824_" class="stt13" d="M54.67,280.9c9.21,7.14,26.88,8.75,39.46,3.61c12.58-5.14,15.27-15.1,5.99-22.25
			c-9.27-7.14-26.94-8.76-39.46-3.61C48.14,263.8,45.46,273.76,54.67,280.9z"/>
		<g id="XMLID_648_">
			<g id="XMLID_4538_">
				<path id="XMLID_4803_" class="stt8" d="M67.06,222.86c-5.23,0.3-14.34,1-20.01,12.67c-6.46,13.29,0,29.82,9.91,36.8
					c12.45,8.76,31.98,9.29,43.48-1.19c12.71-11.58,13.65-33.54,4.97-43.14c-8.68-9.6-22.03-6.88-25.51-5.4
					C74.68,224.8,71.14,222.62,67.06,222.86z"/>
				<path id="XMLID_4762_" class="stt17" d="M61.63,227.51c-3.38-0.29-8.28,2.7-10.84,7.3c-3.19,5.71-3.59,13.77-2.6,19.64
					c2,11.82,13.43,18.03,14.54,17.02s-7.2-8.73-2.63-20.5C64.75,239.03,67.16,227.98,61.63,227.51z"/>
				<path id="XMLID_4662_" class="stt18" d="M59.02,229.42c-3.44,1.16-7.42,6.66-8.46,10.55c-1.04,3.89-0.53,6.54,0,6.99
					c0.95,0.82,7.93-6,10.2-9.07C63.99,233.55,64.57,227.54,59.02,229.42z"/>
				<path id="XMLID_4765_" class="stt8" d="M72.5,232.97c-1.83-1.46-3.56-2.2-4.48,0c-0.92,2.2,3.97,5.66,9.39,4.08
					c5.41-1.59,7.29-5.11,7.17-6.9c0,0-2.44,3.87-6.07,4.32C76,234.78,73.46,233.73,72.5,232.97z"/>
				<path id="XMLID_4552_" class="stt13" d="M72.5,232.97c-1.83-1.46-3.56-2.2-4.48,0c-0.92,2.2,3.97,5.66,9.39,4.08
					c5.41-1.59,7.29-5.11,7.17-6.9c0,0-2.44,3.87-6.07,4.32C76,234.78,73.46,233.73,72.5,232.97z"/>
			</g>
			<g id="XMLID_665_">
				<path id="XMLID_4536_" class="stt7" d="M77.42,235.67c0,0,0.01-7.87-2.44-14.8c-2.46-6.93-6.78-11.79-7.96-12.33
					c-1.17-0.53-3.15-0.93-5.93-0.89c-2.78,0.04-6.09,1.91-5.18,2.97c0.91,1.07,4.91,1.87,9.77,6.41c4.86,4.54,9.5,13.36,9.51,18.64
					C75.19,235.67,76.17,236.36,77.42,235.67z"/>
				<path id="XMLID_4511_" class="stt6" d="M66.81,208.46c-0.09-0.04-0.17-0.07-0.27-0.11c-0.01,0-0.02-0.01-0.03-0.01
					c-1.2-0.43-3.01-0.72-5.43-0.69c-2.05,0.03-4.39,1.05-5.11,2.02c-0.19,0.4,0.42,0.94,2.9,1.29c2.49,0.35,5.08,0.13,7.3-0.68
					C67.27,209.88,67.69,208.92,66.81,208.46z"/>
				<path id="XMLID_4510_" class="stt13" d="M73.8,226.92c-2.19-6.26-8.82-11.47-13.37-13.78v0c1.52,0.87,3.31,2.08,5.24,3.89
					c4.86,4.54,9.5,13.36,9.51,18.64c0,0,0.98,0.69,2.23,0c0,0,0-1.9-0.28-4.64C76.99,233.58,75.82,232.69,73.8,226.92z"/>
			</g>
			<g id="XMLID_649_">
				<path id="XMLID_661_" class="stt8" d="M76.1,224.77c3.36,0.67,8.93-0.55,12.11-4.74c3.82-5.03,1.33-11.58,1.33-11.58
					s-6-1.36-10.67,3.34C75.47,215.22,75.01,221.85,76.1,224.77z"/>
				<path id="XMLID_660_" class="stt19" d="M76.1,224.77c3.36,0.67,8.93-0.55,12.11-4.74c3.82-5.03,1.33-11.58,1.33-11.58
					s-6-1.36-10.67,3.34C75.47,215.22,75.01,221.85,76.1,224.77z"/>
				<path id="XMLID_659_" class="stt13" d="M89.54,208.44c0,0-6-1.36-10.67,3.34c-3.4,3.43-3.87,10.06-2.77,12.98
					C79.21,215.08,89.54,208.44,89.54,208.44z"/>
				<path id="XMLID_650_" class="stt8" d="M85.34,209.35c-5.01,1.03-8.55,4.95-8.89,10.18c0,0,1.49-3.97,3.44-6.02
					C82.82,210.42,85.34,209.35,85.34,209.35z"/>
			</g>
		</g>
	</g>
</g>
<g id="Schedule_1_">
	<g id="Schedule">
		<g id="XMLID_1192_">
			<g id="XMLID_3842_">
				<polygon id="XMLID_3857_" class="stt20" points="359.03,40.82 124.68,176.13 124.68,360.63 124.71,393.79 122.64,392.6 
					119.39,390.72 119.39,173.08 353.74,37.77 357.77,40.09 				"/>
				<polygon id="XMLID_3847_" class="stt0" points="359.03,40.82 359.03,225.33 132.6,356.05 127.32,359.1 126.01,359.86 
					124.71,360.6 124.68,360.63 124.68,176.13 				"/>
				<polygon id="XMLID_3845_" class="stt0" points="353.74,37.77 359.03,40.82 124.68,176.13 119.39,173.07 				"/>
			</g>
			<g id="XMLID_3755_">
				<polygon id="XMLID_3792_" class="stt8" points="360.93,39.76 359.03,40.86 124.68,176.16 123.94,176.58 123.94,393.35 
					122.64,392.6 122.64,175.84 123.41,175.4 357.77,40.09 359.64,39.01 				"/>
				<polygon id="XMLID_3791_" class="stt13" points="360.93,39.76 359.03,40.86 124.68,176.16 123.94,176.58 123.94,393.35 
					122.64,392.6 122.64,175.84 123.41,175.4 357.77,40.09 359.64,39.01 				"/>
				<path id="XMLID_3784_" class="stt8" d="M359.03,40.86l-234.35,135.3v0.01l-0.74,0.42v216.75l0.77,0.45L360.92,257.8l0-33.55
					V39.76L359.03,40.86z"/>
				<path id="XMLID_3766_" class="stt21" d="M359.03,40.86l-234.35,135.3v0.01l-0.74,0.42v216.75l0.77,0.45L360.92,257.8l0-33.55
					V39.76L359.03,40.86z"/>
				<polygon id="XMLID_3760_" class="stt8" points="359.63,39.01 360.93,39.76 123.94,176.59 122.64,175.84 				"/>
				<polygon id="XMLID_3757_" class="stt22" points="359.63,39.01 360.93,39.76 123.94,176.59 122.64,175.84 				"/>
			</g>
			<g id="XMLID_1245_">
				<polygon id="XMLID_3732_" class="stt8" points="363,40.95 360.93,42.14 359.03,43.25 294.48,80.51 126.01,177.77 126.01,394.54 
					124.71,393.79 124.71,177.03 359.03,41.76 360.93,40.66 361.71,40.21 				"/>
				<polygon id="XMLID_3717_" class="stt13" points="363,40.95 360.93,42.14 359.03,43.25 294.48,80.51 126.01,177.77 126.01,394.54 
					124.71,393.79 124.71,177.03 359.03,41.76 360.93,40.66 361.71,40.21 				"/>
				<path id="XMLID_1337_" class="stt8" d="M360.93,42.14l-1.9,1.1l-64.55,37.26l-168.47,97.28v216.75l1.31,0.76l5.15-3.12
					L363,259.04V40.95L360.93,42.14z"/>
				<polygon id="XMLID_1335_" class="stt8" points="361.71,40.21 363,40.95 126.01,177.78 124.71,177.04 				"/>
				<polygon id="XMLID_1248_" class="stt22" points="361.71,40.21 363,40.95 126.01,177.78 124.71,177.04 				"/>
			</g>
			<polygon id="XMLID_1195_" class="stt20" points="366.96,45.41 363,47.7 360.93,48.9 359.03,49.98 132.6,180.71 132.61,398.35 
				127.32,395.3 127.32,177.66 359.03,43.88 360.93,42.78 361.67,42.36 363,43.13 			"/>
			<polygon id="XMLID_1194_" class="stt0" points="361.67,42.35 366.96,45.4 132.61,180.71 127.32,177.65 			"/>
			<polygon id="XMLID_1193_" class="stt2" points="132.61,180.71 132.61,398.35 366.96,263.05 366.96,45.4 			"/>
		</g>
		<g id="Notebook">
			<g id="XMLID_1124_">
				<g id="XMLID_1126_">
					<g id="XMLID_1127_">
						<g id="XMLID_1182_">
							<path id="XMLID_1188_" class="stt7" d="M156.65,173.84c1.53-0.88,2.76-0.17,2.76,1.59c0,1.76-1.24,3.91-2.76,4.79
								c-1.53,0.88-2.76,0.17-2.76-1.59C153.88,176.87,155.12,174.72,156.65,173.84z"/>
							<path id="XMLID_1184_" class="stt8" d="M148.87,151.8c-3.01-1.73-5.89-1.99-8.11-0.7c-2.22,1.28-3.45,3.9-3.45,7.38
								c0,1.26,0.17,2.58,0.48,3.92l1.84-1.07c-0.19-0.97-0.29-1.92-0.29-2.85c0-2.72,0.86-4.71,2.43-5.62
								c1.56-0.9,3.72-0.65,6.07,0.71c5.25,3.03,9.52,10.43,9.52,16.49c0,1.52-0.27,2.81-0.78,3.81c-0.41,0.79-0.97,1.4-1.65,1.8
								c-0.05,0.03-0.11,0.06-0.16,0.09c-0.46,0.75-0.78,1.6-0.87,2.4c0.73-0.12,1.42-0.36,2.05-0.72c1.33-0.77,2.3-2.01,2.86-3.63
								c0.39-1.09,0.58-2.35,0.58-3.75C159.41,163.35,154.69,155.15,148.87,151.8z"/>
						</g>
						<g id="XMLID_1177_">
							<path id="XMLID_1181_" class="stt7" d="M170.07,166.09c1.53-0.88,2.76-0.17,2.76,1.59c0,1.76-1.24,3.91-2.76,4.79
								c-1.53,0.88-2.76,0.17-2.76-1.59C167.3,169.12,168.54,166.98,170.07,166.09z"/>
							<path id="XMLID_1180_" class="stt8" d="M162.29,144.05c-3.01-1.73-5.89-1.99-8.11-0.7c-2.22,1.28-3.45,3.9-3.45,7.38
								c0,1.27,0.17,2.58,0.48,3.92l1.84-1.07c-0.19-0.97-0.29-1.92-0.29-2.85c0-2.72,0.86-4.71,2.43-5.62
								c1.56-0.9,3.72-0.65,6.07,0.71c5.25,3.03,9.52,10.43,9.52,16.49c0,1.52-0.27,2.81-0.78,3.81c-0.4,0.79-0.97,1.39-1.65,1.8
								c-0.05,0.03-0.11,0.06-0.16,0.09c-0.46,0.75-0.78,1.6-0.87,2.4c0.73-0.12,1.42-0.36,2.05-0.72c1.33-0.76,2.29-2.01,2.86-3.63
								c0.38-1.09,0.58-2.35,0.58-3.75C172.83,155.6,168.11,147.41,162.29,144.05z"/>
						</g>
						<g id="XMLID_772_">
							<path id="XMLID_776_" class="stt7" d="M143.23,181.58c1.53-0.88,2.76-0.17,2.76,1.59c0,1.76-1.24,3.91-2.76,4.79
								c-1.53,0.88-2.76,0.17-2.76-1.59C140.47,184.61,141.71,182.46,143.23,181.58z"/>
							<path id="XMLID_775_" class="stt8" d="M135.45,159.54c-3.01-1.73-5.89-1.99-8.11-0.7c-2.22,1.28-3.45,3.9-3.45,7.38
								c0,1.26,0.17,2.58,0.48,3.92l1.84-1.07c-0.19-0.97-0.29-1.92-0.29-2.85c0-2.72,0.86-4.71,2.43-5.62
								c1.56-0.9,3.72-0.65,6.07,0.71c5.25,3.03,9.52,10.43,9.52,16.49c0,1.52-0.27,2.81-0.78,3.81c-0.41,0.79-0.97,1.4-1.65,1.8
								c-0.05,0.03-0.11,0.06-0.16,0.09c-0.46,0.75-0.78,1.6-0.87,2.4c0.73-0.12,1.42-0.36,2.05-0.72c1.33-0.77,2.3-2.01,2.86-3.63
								c0.39-1.09,0.58-2.35,0.58-3.75C146,171.09,141.27,162.89,135.45,159.54z"/>
						</g>
						<g id="XMLID_1174_">
							<path id="XMLID_1176_" class="stt7" d="M183.49,158.35c1.53-0.88,2.76-0.17,2.76,1.59c0,1.76-1.24,3.91-2.76,4.79
								c-1.53,0.88-2.76,0.17-2.76-1.59S181.96,159.23,183.49,158.35z"/>
							<path id="XMLID_1175_" class="stt8" d="M175.71,136.31c-3.01-1.73-5.89-1.99-8.11-0.7c-2.22,1.28-3.45,3.9-3.45,7.38
								c0,1.27,0.17,2.58,0.48,3.92l1.84-1.07c-0.19-0.97-0.29-1.92-0.29-2.85c0-2.72,0.86-4.71,2.43-5.62
								c1.56-0.9,3.72-0.65,6.07,0.71c5.25,3.03,9.52,10.43,9.52,16.49c0,1.52-0.27,2.81-0.78,3.81c-0.4,0.79-0.97,1.39-1.65,1.8
								c-0.05,0.03-0.11,0.06-0.16,0.09c-0.46,0.75-0.78,1.6-0.87,2.4c0.73-0.12,1.42-0.36,2.05-0.72c1.33-0.76,2.29-2.01,2.86-3.63
								c0.38-1.09,0.58-2.35,0.58-3.75C186.25,147.85,181.52,139.66,175.71,136.31z"/>
						</g>
						<g id="XMLID_1170_">
							<path id="XMLID_1173_" class="stt7" d="M196.9,150.6c1.53-0.88,2.76-0.17,2.76,1.59c0,1.76-1.24,3.91-2.76,4.79
								c-1.53,0.88-2.76,0.17-2.76-1.59C194.14,153.62,195.38,151.48,196.9,150.6z"/>
							<path id="XMLID_1171_" class="stt8" d="M189.13,128.56c-3.01-1.73-5.89-1.99-8.11-0.7c-2.22,1.28-3.45,3.9-3.45,7.38
								c0,1.27,0.17,2.58,0.48,3.92l1.84-1.07c-0.19-0.97-0.29-1.92-0.29-2.85c0-2.72,0.86-4.71,2.43-5.62
								c1.56-0.9,3.72-0.65,6.07,0.71c5.25,3.03,9.52,10.43,9.52,16.49c0,1.52-0.27,2.81-0.78,3.81c-0.4,0.79-0.97,1.39-1.65,1.8
								c-0.05,0.03-0.11,0.06-0.16,0.09c-0.46,0.75-0.78,1.6-0.87,2.4c0.73-0.12,1.42-0.36,2.05-0.72c1.33-0.76,2.29-2.01,2.86-3.63
								c0.38-1.09,0.59-2.35,0.59-3.75C199.67,140.11,194.94,131.91,189.13,128.56z"/>
						</g>
						<g id="XMLID_1162_">
							<path id="XMLID_1164_" class="stt7" d="M210.32,142.85c1.53-0.88,2.76-0.17,2.76,1.59c0,1.76-1.24,3.91-2.76,4.79
								c-1.53,0.88-2.76,0.17-2.76-1.59C207.56,145.87,208.8,143.73,210.32,142.85z"/>
							<path id="XMLID_1163_" class="stt8" d="M202.55,120.81c-3.01-1.73-5.89-1.99-8.11-0.7c-2.22,1.28-3.45,3.9-3.45,7.38
								c0,1.26,0.17,2.58,0.48,3.92l1.84-1.07c-0.19-0.97-0.29-1.93-0.29-2.85c0-2.72,0.86-4.71,2.43-5.62
								c1.56-0.9,3.72-0.65,6.07,0.71c5.25,3.03,9.52,10.43,9.52,16.49c0,1.52-0.27,2.81-0.78,3.81c-0.4,0.79-0.97,1.39-1.65,1.8
								c-0.05,0.03-0.11,0.06-0.16,0.09c-0.46,0.75-0.78,1.6-0.87,2.4c0.73-0.12,1.42-0.36,2.05-0.72c1.33-0.76,2.29-2.01,2.86-3.63
								c0.38-1.09,0.58-2.35,0.58-3.75C213.09,132.36,208.36,124.16,202.55,120.81z"/>
						</g>
						<g id="XMLID_1156_">
							<path id="XMLID_1159_" class="stt7" d="M223.74,135.1c1.53-0.88,2.76-0.17,2.76,1.59c0,1.76-1.24,3.91-2.76,4.79
								c-1.53,0.88-2.76,0.17-2.76-1.59S222.22,135.98,223.74,135.1z"/>
							<path id="XMLID_1157_" class="stt8" d="M215.97,113.06c-3.01-1.73-5.89-1.99-8.11-0.7c-2.22,1.28-3.45,3.9-3.45,7.38
								c0,1.27,0.17,2.58,0.48,3.92l1.84-1.07c-0.19-0.97-0.29-1.92-0.29-2.85c0-2.72,0.86-4.71,2.43-5.62
								c1.56-0.9,3.72-0.65,6.07,0.71c5.25,3.03,9.52,10.43,9.52,16.49c0,1.52-0.27,2.81-0.78,3.81c-0.4,0.79-0.97,1.39-1.65,1.8
								c-0.06,0.03-0.11,0.06-0.16,0.09c-0.46,0.75-0.78,1.6-0.87,2.4c0.73-0.12,1.42-0.36,2.05-0.72c1.33-0.76,2.29-2.01,2.86-3.63
								c0.38-1.09,0.58-2.35,0.58-3.75C226.51,124.61,221.78,116.41,215.97,113.06z"/>
						</g>
						<g id="XMLID_1151_">
							<path id="XMLID_1155_" class="stt7" d="M237.16,127.35c1.53-0.88,2.76-0.17,2.76,1.59s-1.24,3.91-2.76,4.79
								c-1.53,0.88-2.76,0.17-2.76-1.59C234.4,130.38,235.64,128.24,237.16,127.35z"/>
							<path id="XMLID_1154_" class="stt8" d="M229.39,105.31c-3.01-1.73-5.89-1.99-8.11-0.7c-2.22,1.28-3.45,3.9-3.45,7.38
								c0,1.26,0.17,2.58,0.48,3.92l1.84-1.07c-0.19-0.97-0.29-1.92-0.29-2.85c0-2.72,0.86-4.71,2.43-5.62
								c1.56-0.9,3.72-0.65,6.07,0.71c5.25,3.03,9.52,10.43,9.52,16.49c0,1.52-0.27,2.81-0.78,3.81c-0.4,0.79-0.97,1.39-1.65,1.8
								c-0.05,0.03-0.11,0.06-0.16,0.09c-0.46,0.75-0.78,1.6-0.87,2.4c0.73-0.12,1.42-0.36,2.05-0.72c1.33-0.76,2.29-2.01,2.86-3.63
								c0.38-1.09,0.58-2.35,0.58-3.75C239.93,116.86,235.2,108.67,229.39,105.31z"/>
						</g>
						<g id="XMLID_1144_">
							<path id="XMLID_1146_" class="stt7" d="M250.58,119.61c1.53-0.88,2.76-0.17,2.76,1.59c0,1.76-1.24,3.91-2.76,4.79
								c-1.53,0.88-2.76,0.17-2.76-1.59C247.82,122.63,249.06,120.49,250.58,119.61z"/>
							<path id="XMLID_1145_" class="stt8" d="M242.81,97.56c-3.01-1.73-5.89-1.99-8.11-0.7c-2.22,1.28-3.45,3.9-3.45,7.38
								c0,1.27,0.17,2.58,0.48,3.92l1.84-1.07c-0.19-0.97-0.29-1.92-0.29-2.85c0-2.72,0.86-4.71,2.43-5.62
								c1.56-0.9,3.72-0.65,6.07,0.71c5.25,3.03,9.52,10.43,9.52,16.49c0,1.52-0.27,2.81-0.78,3.81c-0.41,0.79-0.97,1.4-1.65,1.8
								c-0.05,0.03-0.11,0.06-0.16,0.09c-0.46,0.75-0.78,1.6-0.87,2.4c0.73-0.12,1.42-0.36,2.05-0.72c1.33-0.77,2.3-2.01,2.86-3.63
								c0.39-1.09,0.58-2.35,0.58-3.75C253.35,109.11,248.62,100.92,242.81,97.56z"/>
						</g>
						<g id="XMLID_1141_">
							<path id="XMLID_1143_" class="stt7" d="M264,111.86c1.53-0.88,2.76-0.17,2.76,1.59c0,1.76-1.24,3.91-2.76,4.79
								c-1.53,0.88-2.76,0.17-2.76-1.59S262.48,112.74,264,111.86z"/>
							<path id="XMLID_1142_" class="stt8" d="M256.23,89.82c-3.01-1.73-5.89-1.99-8.11-0.7c-2.22,1.28-3.45,3.9-3.45,7.38
								c0,1.27,0.17,2.58,0.48,3.92l1.84-1.07c-0.19-0.97-0.29-1.92-0.29-2.85c0-2.72,0.86-4.71,2.43-5.62
								c1.56-0.9,3.72-0.65,6.07,0.71c5.25,3.03,9.52,10.43,9.52,16.49c0,1.52-0.27,2.81-0.78,3.81c-0.4,0.79-0.97,1.39-1.65,1.8
								c-0.05,0.03-0.11,0.06-0.16,0.09c-0.46,0.75-0.78,1.6-0.87,2.4c0.73-0.12,1.42-0.36,2.05-0.72c1.33-0.76,2.29-2.01,2.86-3.63
								c0.38-1.09,0.58-2.35,0.58-3.75C266.77,101.37,262.04,93.17,256.23,89.82z"/>
						</g>
						<g id="XMLID_1137_">
							<path id="XMLID_1139_" class="stt7" d="M277.42,104.11c1.53-0.88,2.76-0.17,2.76,1.59c0,1.76-1.24,3.91-2.76,4.79
								c-1.53,0.88-2.76,0.17-2.76-1.59C274.66,107.13,275.9,104.99,277.42,104.11z"/>
							<path id="XMLID_1138_" class="stt8" d="M269.65,82.07c-3.01-1.73-5.89-1.99-8.11-0.7c-2.22,1.28-3.45,3.9-3.45,7.38
								c0,1.26,0.17,2.58,0.48,3.92l1.84-1.07c-0.19-0.97-0.29-1.92-0.29-2.85c0-2.72,0.86-4.71,2.43-5.62
								c1.56-0.9,3.72-0.65,6.07,0.71c5.25,3.03,9.52,10.43,9.52,16.49c0,1.52-0.27,2.81-0.78,3.81c-0.4,0.79-0.97,1.39-1.65,1.8
								c-0.05,0.03-0.11,0.06-0.16,0.09c-0.46,0.75-0.78,1.6-0.87,2.4c0.73-0.12,1.42-0.36,2.05-0.72c1.33-0.76,2.29-2.01,2.86-3.63
								c0.38-1.09,0.58-2.35,0.58-3.75C280.19,93.62,275.46,85.42,269.65,82.07z"/>
						</g>
						<g id="XMLID_1134_">
							<path id="XMLID_1136_" class="stt7" d="M290.84,96.36c1.53-0.88,2.76-0.17,2.76,1.59c0,1.76-1.24,3.91-2.76,4.79
								c-1.53,0.88-2.76,0.17-2.76-1.59C288.08,99.39,289.32,97.24,290.84,96.36z"/>
							<path id="XMLID_1135_" class="stt8" d="M283.06,74.32c-3.01-1.73-5.89-1.99-8.11-0.7c-2.22,1.28-3.45,3.9-3.45,7.38
								c0,1.27,0.17,2.58,0.48,3.92l1.84-1.07c-0.19-0.97-0.29-1.92-0.29-2.85c0-2.72,0.86-4.71,2.43-5.62
								c1.56-0.9,3.72-0.65,6.07,0.71c5.25,3.03,9.52,10.43,9.52,16.49c0,1.52-0.27,2.81-0.78,3.81c-0.41,0.79-0.97,1.4-1.65,1.8
								c-0.05,0.03-0.11,0.06-0.16,0.09c-0.46,0.75-0.78,1.6-0.87,2.4c0.73-0.12,1.42-0.36,2.05-0.72c1.33-0.77,2.3-2.01,2.86-3.63
								c0.39-1.09,0.58-2.35,0.58-3.75C293.61,85.87,288.88,77.67,283.06,74.32z"/>
						</g>
						<g id="XMLID_1190_">
							<path id="XMLID_1133_" class="stt7" d="M304.25,88.62c1.53-0.88,2.76-0.17,2.76,1.59c0,1.76-1.24,3.91-2.76,4.79
								c-1.53,0.88-2.76,0.17-2.76-1.59C301.48,91.64,302.72,89.5,304.25,88.62z"/>
							<path id="XMLID_1131_" class="stt8" d="M296.47,66.58c-3.01-1.73-5.89-1.99-8.11-0.7c-2.22,1.28-3.45,3.9-3.45,7.38
								c0,1.27,0.17,2.58,0.48,3.92l1.84-1.07c-0.19-0.97-0.29-1.92-0.29-2.85c0-2.72,0.86-4.71,2.43-5.62
								c1.56-0.9,3.72-0.65,6.07,0.71c5.25,3.03,9.52,10.43,9.52,16.49c0,1.52-0.27,2.81-0.78,3.81c-0.4,0.79-0.97,1.39-1.65,1.8
								c-0.05,0.03-0.11,0.06-0.16,0.09c-0.46,0.75-0.78,1.6-0.87,2.4c0.73-0.12,1.42-0.36,2.05-0.72c1.33-0.76,2.29-2.01,2.86-3.63
								c0.38-1.09,0.58-2.35,0.58-3.75C307.01,78.13,302.28,69.93,296.47,66.58z"/>
						</g>
						<g id="XMLID_1186_">
							<path id="XMLID_1189_" class="stt7" d="M317.66,80.87c1.53-0.88,2.76-0.17,2.76,1.59c0,1.76-1.24,3.91-2.76,4.79
								c-1.53,0.88-2.76,0.17-2.76-1.59S316.14,81.75,317.66,80.87z"/>
							<path id="XMLID_1187_" class="stt8" d="M309.89,58.83c-3.01-1.73-5.89-1.99-8.11-0.7c-2.22,1.28-3.45,3.9-3.45,7.38
								c0,1.27,0.17,2.58,0.48,3.92l1.84-1.07c-0.19-0.97-0.29-1.92-0.29-2.85c0-2.72,0.86-4.71,2.43-5.62
								c1.56-0.9,3.72-0.65,6.07,0.71c5.25,3.03,9.52,10.43,9.52,16.49c0,1.52-0.27,2.81-0.78,3.81c-0.41,0.79-0.97,1.4-1.65,1.8
								c-0.05,0.03-0.11,0.06-0.16,0.09c-0.46,0.75-0.78,1.6-0.87,2.4c0.73-0.12,1.42-0.36,2.05-0.72c1.33-0.77,2.3-2.01,2.86-3.63
								c0.39-1.09,0.58-2.35,0.58-3.75C320.43,70.38,315.7,62.18,309.89,58.83z"/>
						</g>
						<g id="XMLID_1150_">
							<path id="XMLID_1172_" class="stt7" d="M331.08,73.12c1.53-0.88,2.76-0.17,2.76,1.59c0,1.76-1.24,3.91-2.76,4.79
								c-1.53,0.88-2.76,0.17-2.76-1.59C328.32,76.15,329.56,74,331.08,73.12z"/>
							<path id="XMLID_1152_" class="stt8" d="M323.31,51.08c-3.01-1.73-5.89-1.99-8.11-0.7c-2.22,1.28-3.45,3.9-3.45,7.38
								c0,1.27,0.17,2.58,0.48,3.92l1.84-1.07c-0.19-0.97-0.29-1.92-0.29-2.85c0-2.72,0.86-4.71,2.43-5.62
								c1.56-0.9,3.72-0.65,6.07,0.71c5.25,3.03,9.52,10.43,9.52,16.49c0,1.52-0.27,2.81-0.78,3.81c-0.4,0.79-0.97,1.39-1.65,1.8
								c-0.05,0.03-0.11,0.06-0.16,0.09c-0.46,0.75-0.78,1.6-0.87,2.4c0.73-0.12,1.42-0.36,2.05-0.72c1.33-0.76,2.29-2.01,2.86-3.63
								c0.38-1.09,0.58-2.35,0.58-3.75C333.85,62.63,329.12,54.43,323.31,51.08z"/>
						</g>
						<g id="XMLID_1147_">
							<path id="XMLID_1149_" class="stt7" d="M344.5,65.37c1.53-0.88,2.76-0.17,2.76,1.59c0,1.76-1.24,3.91-2.76,4.79
								c-1.53,0.88-2.76,0.17-2.76-1.59S342.98,66.25,344.5,65.37z"/>
							<path id="XMLID_1148_" class="stt8" d="M336.73,43.33c-3.01-1.73-5.89-1.99-8.11-0.7c-2.22,1.28-3.45,3.9-3.45,7.38
								c0,1.27,0.17,2.58,0.48,3.92l1.84-1.07c-0.19-0.97-0.29-1.92-0.29-2.85c0-2.72,0.86-4.71,2.43-5.62
								c1.56-0.9,3.72-0.65,6.07,0.71c5.25,3.03,9.52,10.43,9.52,16.49c0,1.52-0.27,2.81-0.78,3.81c-0.4,0.79-0.97,1.39-1.65,1.8
								c-0.05,0.03-0.11,0.06-0.16,0.09c-0.46,0.75-0.78,1.6-0.87,2.4c0.73-0.12,1.42-0.36,2.05-0.72c1.33-0.76,2.29-2.01,2.86-3.63
								c0.38-1.09,0.58-2.35,0.58-3.75C347.27,54.88,342.54,46.68,336.73,43.33z"/>
						</g>
						<g id="XMLID_1128_">
							<path id="XMLID_1130_" class="stt7" d="M357.92,57.62c1.53-0.88,2.76-0.17,2.76,1.59c0,1.76-1.24,3.91-2.76,4.79
								c-1.53,0.88-2.76,0.17-2.76-1.59C355.16,60.65,356.4,58.51,357.92,57.62z"/>
							<path id="XMLID_1129_" class="stt8" d="M350.15,35.58c-3.01-1.73-5.89-1.99-8.11-0.7c-2.22,1.28-3.45,3.9-3.45,7.38
								c0,1.27,0.17,2.58,0.48,3.92l1.84-1.07c-0.19-0.97-0.29-1.92-0.29-2.85c0-2.72,0.86-4.71,2.43-5.62
								c1.56-0.9,3.72-0.65,6.07,0.71c5.25,3.03,9.52,10.43,9.52,16.49c0,1.52-0.27,2.81-0.78,3.81c-0.41,0.79-0.97,1.4-1.65,1.8
								c-0.05,0.03-0.11,0.06-0.16,0.09c-0.46,0.75-0.78,1.6-0.87,2.4c0.73-0.12,1.42-0.36,2.05-0.72c1.33-0.77,2.3-2.01,2.86-3.63
								c0.39-1.09,0.58-2.35,0.58-3.75C360.69,47.13,355.96,38.94,350.15,35.58z"/>
						</g>
					</g>
				</g>
				<path class="stt15" d="M350.15,35.58c-3.01-1.73-5.89-1.99-8.11-0.7c-2.22,1.28-3.45,3.9-3.45,7.38c0,0.82,0.09,1.66,0.23,2.51
					c-0.67-0.55-1.37-1.03-2.09-1.44c-3.01-1.73-5.89-1.99-8.11-0.7c-2.22,1.28-3.45,3.9-3.45,7.38c0,0.82,0.09,1.66,0.23,2.51
					c-0.67-0.55-1.37-1.03-2.09-1.44c-3.01-1.73-5.89-1.99-8.11-0.7c-2.22,1.28-3.45,3.9-3.45,7.38c0,0.82,0.09,1.66,0.23,2.51
					c-0.67-0.55-1.37-1.03-2.09-1.44c-3.01-1.73-5.89-1.99-8.11-0.7c-2.22,1.28-3.45,3.9-3.45,7.38c0,0.82,0.09,1.66,0.23,2.51
					c-0.67-0.55-1.37-1.03-2.09-1.44c-3.01-1.73-5.89-1.99-8.11-0.7c-2.22,1.28-3.45,3.9-3.45,7.38c0,0.81,0.09,1.65,0.23,2.5
					c-0.67-0.54-1.36-1.02-2.07-1.43c-3.01-1.73-5.89-1.99-8.11-0.7c-2.22,1.28-3.45,3.9-3.45,7.38c0,0.82,0.09,1.66,0.23,2.51
					c-0.67-0.55-1.37-1.03-2.09-1.44c-3.01-1.73-5.89-1.99-8.11-0.7c-2.22,1.28-3.45,3.9-3.45,7.38c0,0.82,0.09,1.66,0.23,2.51
					c-0.67-0.55-1.37-1.03-2.09-1.44c-3.01-1.73-5.89-1.99-8.11-0.7c-2.22,1.28-3.45,3.9-3.45,7.38c0,0.82,0.09,1.66,0.23,2.51
					c-0.67-0.55-1.37-1.03-2.09-1.44c-3.01-1.73-5.89-1.99-8.11-0.7c-2.22,1.28-3.45,3.9-3.45,7.38c0,0.82,0.09,1.66,0.23,2.51
					c-0.67-0.55-1.37-1.03-2.09-1.44c-3.01-1.73-5.89-1.99-8.11-0.7c-2.22,1.28-3.45,3.9-3.45,7.38c0,0.82,0.09,1.66,0.23,2.51
					c-0.67-0.55-1.37-1.03-2.09-1.44c-3.01-1.73-5.89-1.99-8.11-0.7c-2.22,1.28-3.45,3.9-3.45,7.38c0,0.82,0.09,1.66,0.23,2.51
					c-0.67-0.55-1.37-1.03-2.09-1.44c-3.01-1.73-5.89-1.99-8.11-0.7c-2.22,1.28-3.45,3.9-3.45,7.38c0,0.82,0.09,1.66,0.23,2.51
					c-0.67-0.55-1.37-1.03-2.09-1.44c-3.01-1.73-5.89-1.99-8.11-0.7c-2.22,1.28-3.45,3.9-3.45,7.38c0,0.82,0.09,1.66,0.23,2.51
					c-0.67-0.55-1.37-1.03-2.09-1.44c-3.01-1.73-5.89-1.99-8.11-0.7c-2.22,1.28-3.45,3.9-3.45,7.38c0,0.82,0.09,1.66,0.23,2.51
					c-0.67-0.55-1.37-1.03-2.09-1.44c-3.01-1.73-5.89-1.99-8.11-0.7c-2.22,1.28-3.45,3.9-3.45,7.38c0,0.82,0.09,1.66,0.23,2.51
					c-0.67-0.55-1.37-1.03-2.09-1.44c-3.01-1.73-5.89-1.99-8.11-0.7c-2.22,1.28-3.45,3.9-3.45,7.38c0,0.81,0.08,1.64,0.21,2.49
					c-0.67-0.54-1.36-1.02-2.06-1.43c-3.01-1.73-5.89-1.99-8.11-0.7c-2.22,1.28-3.45,3.9-3.45,7.38c0,1.26,0.17,2.58,0.48,3.92
					l1.84-1.07c-0.19-0.97-0.29-1.92-0.29-2.85c0-2.72,0.86-4.71,2.43-5.62c1.56-0.9,3.72-0.65,6.07,0.71
					c5.25,3.03,9.52,10.43,9.52,16.49c0,1.52-0.27,2.81-0.78,3.81c-0.41,0.79-0.97,1.4-1.65,1.8c-0.05,0.03-0.11,0.06-0.16,0.09
					c-0.46,0.75-0.78,1.6-0.87,2.4c0.73-0.12,1.42-0.36,2.05-0.72c1.33-0.77,2.3-2.01,2.86-3.63c0.39-1.09,0.58-2.35,0.58-3.75
					c0-5.44-3.11-11.86-7.38-15.88l1.02-0.59c-0.19-0.97-0.29-1.92-0.29-2.85c0-2.72,0.86-4.71,2.43-5.62
					c1.56-0.9,3.72-0.65,6.07,0.71c5.25,3.03,9.52,10.43,9.52,16.49c0,1.52-0.27,2.81-0.78,3.81c-0.41,0.79-0.97,1.4-1.65,1.8
					c-0.05,0.03-0.11,0.06-0.16,0.09c-0.46,0.75-0.78,1.6-0.87,2.4c0.73-0.12,1.42-0.36,2.05-0.72c1.33-0.77,2.3-2.01,2.86-3.63
					c0.39-1.09,0.58-2.35,0.58-3.75c0-5.45-3.11-11.86-7.39-15.89l1.03-0.6c-0.19-0.97-0.29-1.92-0.29-2.85
					c0-2.72,0.86-4.71,2.43-5.62c1.56-0.9,3.72-0.65,6.07,0.71c5.25,3.03,9.52,10.43,9.52,16.49c0,1.52-0.27,2.81-0.78,3.81
					c-0.4,0.79-0.97,1.39-1.65,1.8c-0.06,0.03-0.11,0.06-0.16,0.09c-0.46,0.75-0.78,1.6-0.87,2.4c0.73-0.12,1.42-0.36,2.05-0.72
					c1.33-0.76,2.29-2.01,2.86-3.63c0.38-1.09,0.59-2.35,0.59-3.75c0-5.45-3.11-11.87-7.39-15.89l1.03-0.6
					c-0.19-0.97-0.29-1.92-0.29-2.85c0-2.72,0.86-4.71,2.43-5.62c1.56-0.9,3.72-0.65,6.07,0.71c5.25,3.03,9.52,10.43,9.52,16.49
					c0,1.52-0.27,2.81-0.78,3.81c-0.4,0.79-0.97,1.39-1.65,1.8c-0.06,0.03-0.11,0.06-0.16,0.09c-0.46,0.75-0.78,1.6-0.87,2.4
					c0.73-0.12,1.42-0.36,2.05-0.72c1.33-0.76,2.29-2.01,2.86-3.63c0.38-1.09,0.58-2.35,0.58-3.75c0-5.45-3.11-11.86-7.39-15.89
					l1.03-0.6c-0.19-0.97-0.29-1.92-0.29-2.85c0-2.72,0.86-4.71,2.43-5.62c1.56-0.9,3.72-0.65,6.07,0.71
					c5.25,3.03,9.52,10.43,9.52,16.49c0,1.52-0.27,2.81-0.78,3.81c-0.4,0.79-0.97,1.39-1.65,1.8c-0.05,0.03-0.11,0.06-0.16,0.09
					c-0.46,0.75-0.78,1.6-0.87,2.4c0.73-0.12,1.42-0.36,2.05-0.72c1.33-0.76,2.29-2.01,2.86-3.63c0.38-1.09,0.58-2.35,0.58-3.75
					c0-5.45-3.11-11.87-7.39-15.89l1.03-0.6c-0.19-0.97-0.29-1.93-0.29-2.85c0-2.72,0.86-4.71,2.43-5.62
					c1.56-0.9,3.72-0.65,6.07,0.71c5.25,3.03,9.52,10.43,9.52,16.49c0,1.52-0.27,2.81-0.78,3.81c-0.4,0.79-0.97,1.39-1.65,1.8
					c-0.06,0.03-0.11,0.06-0.16,0.09c-0.46,0.75-0.78,1.6-0.87,2.4c0.73-0.12,1.42-0.36,2.05-0.72c1.33-0.76,2.29-2.01,2.86-3.63
					c0.38-1.09,0.59-2.35,0.59-3.75c0-5.45-3.11-11.86-7.39-15.89l1.03-0.6c-0.19-0.97-0.29-1.92-0.29-2.85
					c0-2.72,0.86-4.71,2.43-5.62c1.56-0.9,3.72-0.65,6.07,0.71c5.25,3.03,9.52,10.43,9.52,16.49c0,1.52-0.27,2.81-0.78,3.81
					c-0.4,0.79-0.97,1.39-1.65,1.8c-0.06,0.03-0.11,0.06-0.16,0.09c-0.46,0.75-0.78,1.6-0.87,2.4c0.73-0.12,1.42-0.36,2.05-0.72
					c1.33-0.76,2.29-2.01,2.86-3.63c0.38-1.09,0.58-2.35,0.58-3.75c0-5.45-3.11-11.86-7.39-15.89l1.03-0.6
					c-0.19-0.97-0.29-1.92-0.29-2.85c0-2.72,0.86-4.71,2.43-5.62c1.56-0.9,3.72-0.65,6.07,0.71c5.25,3.03,9.52,10.43,9.52,16.49
					c0,1.52-0.27,2.81-0.78,3.81c-0.4,0.79-0.97,1.39-1.65,1.8c-0.05,0.03-0.11,0.06-0.16,0.09c-0.46,0.75-0.78,1.6-0.87,2.4
					c0.73-0.12,1.42-0.36,2.05-0.72c1.33-0.76,2.29-2.01,2.86-3.63c0.38-1.09,0.58-2.35,0.58-3.75c0-5.45-3.11-11.86-7.39-15.89
					l1.03-0.6c-0.19-0.97-0.29-1.92-0.29-2.85c0-2.72,0.86-4.71,2.43-5.62c1.56-0.9,3.72-0.65,6.07,0.71
					c5.25,3.03,9.52,10.43,9.52,16.49c0,1.52-0.27,2.81-0.78,3.81c-0.41,0.79-0.97,1.4-1.65,1.8c-0.05,0.03-0.11,0.06-0.16,0.09
					c-0.46,0.75-0.78,1.6-0.87,2.4c0.73-0.12,1.42-0.36,2.05-0.72c1.33-0.77,2.3-2.01,2.86-3.63c0.39-1.09,0.58-2.35,0.58-3.75
					c0-5.45-3.11-11.86-7.39-15.89l1.03-0.6c-0.19-0.97-0.29-1.93-0.29-2.85c0-2.72,0.86-4.71,2.43-5.62s3.72-0.65,6.07,0.71
					c5.25,3.03,9.52,10.43,9.52,16.49c0,1.52-0.27,2.81-0.78,3.81c-0.4,0.79-0.97,1.39-1.65,1.8c-0.06,0.03-0.11,0.06-0.16,0.09
					c-0.46,0.75-0.78,1.6-0.87,2.4c0.73-0.12,1.42-0.36,2.05-0.72c1.33-0.76,2.29-2.01,2.86-3.63c0.38-1.09,0.59-2.35,0.59-3.75
					c0-5.45-3.11-11.86-7.39-15.89l1.03-0.6c-0.19-0.97-0.29-1.92-0.29-2.85c0-2.72,0.86-4.71,2.43-5.62
					c1.56-0.9,3.72-0.65,6.07,0.71c5.25,3.03,9.52,10.43,9.52,16.49c0,1.52-0.27,2.81-0.78,3.81c-0.4,0.79-0.97,1.39-1.65,1.8
					c-0.05,0.03-0.11,0.06-0.16,0.09c-0.46,0.75-0.78,1.6-0.87,2.4c0.73-0.12,1.42-0.36,2.05-0.72c1.33-0.76,2.29-2.01,2.86-3.63
					c0.38-1.09,0.59-2.35,0.59-3.75c0-5.45-3.11-11.86-7.39-15.89l1.03-0.6c-0.19-0.97-0.29-1.93-0.29-2.85
					c0-2.72,0.86-4.71,2.43-5.62c1.56-0.9,3.72-0.65,6.07,0.71c5.25,3.03,9.52,10.43,9.52,16.49c0,1.52-0.27,2.81-0.78,3.81
					c-0.41,0.79-0.97,1.4-1.65,1.8c-0.05,0.03-0.11,0.06-0.16,0.09c-0.46,0.75-0.78,1.6-0.87,2.4c0.73-0.12,1.42-0.36,2.05-0.72
					c1.33-0.77,2.3-2.01,2.86-3.63c0.39-1.09,0.58-2.35,0.58-3.75c0-5.45-3.11-11.87-7.39-15.89l1.02-0.59
					c-0.19-0.97-0.29-1.92-0.29-2.85c0-2.72,0.86-4.71,2.43-5.62c1.56-0.9,3.72-0.65,6.07,0.71c5.25,3.03,9.52,10.43,9.52,16.49
					c0,1.52-0.27,2.81-0.78,3.81c-0.4,0.79-0.97,1.39-1.65,1.8c-0.05,0.03-0.11,0.06-0.16,0.09c-0.46,0.75-0.78,1.6-0.87,2.4
					c0.73-0.12,1.42-0.36,2.05-0.72c1.33-0.76,2.29-2.01,2.86-3.63c0.38-1.09,0.58-2.35,0.58-3.75c0-5.45-3.11-11.87-7.39-15.89
					l1.03-0.6c-0.19-0.97-0.29-1.92-0.29-2.85c0-2.72,0.86-4.71,2.43-5.62c1.56-0.9,3.72-0.65,6.07,0.71
					c5.25,3.03,9.52,10.43,9.52,16.49c0,1.52-0.27,2.81-0.78,3.81c-0.41,0.79-0.97,1.4-1.65,1.8c-0.05,0.03-0.11,0.06-0.16,0.09
					c-0.46,0.75-0.78,1.6-0.87,2.4c0.73-0.12,1.42-0.36,2.05-0.72c1.33-0.77,2.3-2.01,2.86-3.63c0.39-1.09,0.58-2.35,0.58-3.75
					c0-5.45-3.11-11.86-7.39-15.89l1.03-0.6c-0.19-0.97-0.29-1.92-0.29-2.85c0-2.72,0.86-4.71,2.43-5.62
					c1.56-0.9,3.72-0.65,6.07,0.71c5.25,3.03,9.52,10.43,9.52,16.49c0,1.52-0.27,2.81-0.78,3.81c-0.4,0.79-0.97,1.39-1.65,1.8
					c-0.05,0.03-0.11,0.06-0.16,0.09c-0.46,0.75-0.78,1.6-0.87,2.4c0.73-0.12,1.42-0.36,2.05-0.72c1.33-0.76,2.29-2.01,2.86-3.63
					c0.38-1.09,0.58-2.35,0.58-3.75c0-5.45-3.11-11.86-7.39-15.89l1.03-0.6c-0.19-0.97-0.29-1.92-0.29-2.85
					c0-2.72,0.86-4.71,2.43-5.62c1.56-0.9,3.72-0.65,6.07,0.71c5.25,3.03,9.52,10.43,9.52,16.49c0,1.52-0.27,2.81-0.78,3.81
					c-0.4,0.79-0.97,1.39-1.65,1.8c-0.05,0.03-0.11,0.06-0.16,0.09c-0.46,0.75-0.78,1.6-0.87,2.4c0.73-0.12,1.42-0.36,2.05-0.72
					c1.33-0.76,2.29-2.01,2.86-3.63c0.38-1.09,0.58-2.35,0.58-3.75c0-5.45-3.11-11.86-7.39-15.89l1.03-0.6
					c-0.19-0.97-0.29-1.92-0.29-2.85c0-2.72,0.86-4.71,2.43-5.62c1.56-0.9,3.72-0.65,6.07,0.71c5.25,3.03,9.52,10.43,9.52,16.49
					c0,1.52-0.27,2.81-0.78,3.81c-0.41,0.79-0.97,1.4-1.65,1.8c-0.05,0.03-0.11,0.06-0.16,0.09c-0.46,0.75-0.78,1.6-0.87,2.4
					c0.73-0.12,1.42-0.36,2.05-0.72c1.33-0.77,2.3-2.01,2.86-3.63c0.39-1.09,0.59-2.35,0.59-3.75
					C360.69,47.13,355.96,38.94,350.15,35.58z"/>
			</g>
		</g>
		<g>
			<g>
				<path class="stt8" d="M162.35,198.17l16.76-9.73c1.24-0.72,2.25-0.21,2.26,1.14c0.01,1.34-0.99,3.01-2.24,3.73l-16.78,9.73
					c-1.24,0.71-2.25,0.21-2.25-1.13C160.1,200.55,161.11,198.89,162.35,198.17z"/>
				<path class="stt8" d="M191.01,181.63l16.76-9.73c1.24-0.72,2.25-0.21,2.26,1.14c0.01,1.34-0.99,3.01-2.24,3.73l-16.78,9.73
					c-1.24,0.71-2.25,0.21-2.25-1.13C188.76,184.01,189.77,182.34,191.01,181.63z"/>
				<path class="stt8" d="M219.66,165.08l16.76-9.73c1.24-0.72,2.25-0.21,2.26,1.14c0.01,1.34-0.99,3.01-2.24,3.73l-16.78,9.73
					c-1.24,0.71-2.25,0.21-2.25-1.13C217.42,167.46,218.42,165.8,219.66,165.08z"/>
				<path class="stt8" d="M248.32,148.54l16.76-9.73c1.24-0.72,2.25-0.21,2.26,1.14c0.01,1.34-0.99,3.01-2.24,3.73l-16.78,9.73
					c-1.24,0.71-2.25,0.21-2.25-1.13C246.08,150.92,247.08,149.25,248.32,148.54z"/>
				<path class="stt8" d="M276.98,131.99l16.76-9.73c1.24-0.72,2.25-0.21,2.26,1.14c0.01,1.34-0.99,3.01-2.24,3.73l-16.78,9.73
					c-1.24,0.71-2.25,0.21-2.25-1.13C274.73,134.37,275.74,132.71,276.98,131.99z"/>
				<path class="stt8" d="M305.64,115.44l16.76-9.73c1.24-0.72,2.25-0.21,2.26,1.14c0.01,1.34-0.99,3.01-2.24,3.73l-16.78,9.73
					c-1.24,0.71-2.25,0.21-2.25-1.13C303.39,117.83,304.4,116.16,305.64,115.44z"/>
				<path class="stt8" d="M334.3,98.9l16.76-9.73c1.24-0.72,2.25-0.21,2.26,1.14c0.01,1.34-0.99,3.01-2.24,3.73l-16.78,9.73
					c-1.24,0.71-2.25,0.21-2.25-1.13C332.05,101.28,333.06,99.62,334.3,98.9z"/>
			</g>
			<g>
				<g>
					<path class="stt1" d="M355.36,111.9l-0.23,139.55L160.32,364.06V224.51L355.36,111.9 M357.37,108.43L158.32,223.35v144.18
						l198.81-114.92L357.37,108.43L357.37,108.43z"/>
				</g>
				<g>
					<line class="stt23" x1="186.72" y1="350.15" x2="186.76" y2="207.9"/>
					<line class="stt23" x1="215.19" y1="191.48" x2="215.12" y2="333.73"/>
					<line class="stt23" x1="243.63" y1="175.06" x2="243.53" y2="317.32"/>
					<line class="stt23" x1="272.06" y1="158.64" x2="271.93" y2="300.9"/>
					<line class="stt23" x1="300.5" y1="142.23" x2="300.33" y2="284.48"/>
					<line class="stt23" x1="328.93" y1="125.81" x2="328.73" y2="268.07"/>
				</g>
				<g>
					<line class="stt23" x1="159.49" y1="258.69" x2="356.36" y2="145.03"/>
					<line class="stt23" x1="159.49" y1="294.74" x2="356.36" y2="181.08"/>
					<line class="stt23" x1="159.49" y1="330.78" x2="356.36" y2="217.12"/>
				</g>
			</g>
			<g id="Note">
				<g>
					<g id="Note_1_">
						<polygon id="XMLID_682_" class="stt13" points="302.96,144.37 302.96,179.97 332.46,162.94 332.46,127.34 						"/>
						<g id="XMLID_674_">
							<g id="XMLID_676_">
								<path id="XMLID_680_" class="stt8" d="M339.83,160.96c0,0-1.44,2.44-6.58,5.41c-2.89,1.67-25.98,15-25.98,15l-3.12-30.94
									l29.49-17.03l1.65,17.91C335.56,154.22,335.98,158.47,339.83,160.96z"/>
								<polygon id="XMLID_678_" class="stt8" points="333.64,133.39 304.15,150.42 304.15,144.96 333.64,127.93 								"/>
								<polygon id="XMLID_677_" class="stt13" points="333.64,133.39 304.15,150.42 304.15,144.96 333.64,127.93 								"/>
							</g>
						</g>
					</g>
					<path class="stt6" d="M330.71,148.57c-0.18-0.83-0.4-1.65-0.68-2.45c-0.03-0.09-0.06-0.18-0.1-0.27
						c0.33-0.94,0.33-1.9-0.43-2.64c-0.11-0.11-0.42-0.23-0.5-0.01c-0.27,0.72-0.08,1.55,0.17,2.33c-0.24,0.6-0.61,1.17-0.86,1.54
						c-0.31,0.46-0.66,0.91-1.04,1.32c-0.46,0.49-1.15,1.21-1.88,1.22c-0.48,0.01-0.75-0.28-0.89-0.69
						c0.22-0.32,0.43-0.64,0.63-0.97c0.4-0.69,0.86-1.56,0.97-2.36c0.09-0.7-0.41-1.24-1.13-1.07c-0.82,0.19-1.1,1.26-1.25,1.97
						c-0.16,0.71-0.19,1.45-0.01,2.16c-0.2,0.28-0.38,0.57-0.63,0.81c-0.09,0.09-0.2,0.16-0.3,0.23c0-0.1-0.02-0.23-0.02-0.27
						c0-0.24-0.36-0.61-0.61-0.41c-0.65,0.51-0.77,1.33-1.17,2.01c-0.1,0.17-0.21,0.3-0.35,0.43c-0.17,0.16-0.2,0.17-0.27-0.04
						c-0.12-0.35-0.21-0.71-0.4-1.03c-0.12-0.2-0.53-0.39-0.69-0.13c-0.25,0.4-0.41,0.83-0.54,1.27c-0.37-0.5-1.05-0.39-1.48,0.03
						c-0.53,0.51-0.94,1.23-1.31,1.87c-0.11,0.18-0.2,0.37-0.33,0.54c-0.03,0.05-0.07,0.1-0.11,0.15c-0.01-0.02-0.03-0.05-0.04-0.12
						c-0.08-0.57-0.04-1.11-0.03-1.68c0,0,0,0,0,0c0-0.03,0.01-0.06,0.01-0.1c-0.01-0.4-0.86-0.62-0.87-0.16
						c0,0.07-0.01,0.13-0.01,0.2c-0.01,1.47-1.16,2.81-2.29,3.63c-0.37,0.27-1.29,0.94-1.78,0.69c-0.41-0.2-0.36-1-0.34-1.36
						c0.07-1.18,0.45-2.46,1.03-3.49c0.28-0.51,0.65-1.01,1.16-1.32c0.3-0.18,0.72-0.33,1.06-0.2c0.47,0.17,0.42,0.71,0.3,1.1
						c-0.05,0.16,0.2,0.52,0.33,0.29c0.72-1.33-0.48-2.51-1.86-2.01c-1.29,0.46-1.96,1.86-2.37,3.07c-0.39,1.13-0.86,2.69-0.33,3.85
						c0.63,1.4,2.27,0.83,3.24,0.17c0.82-0.55,1.6-1.32,2.12-2.21c0.05,0.08,0.11,0.16,0.18,0.23c0.65,0.65,1.23,0.04,1.58-0.55
						c0.39-0.65,0.77-1.43,1.31-1.97c0.07-0.07,0.16-0.12,0.22-0.19c0.01-0.01,0.01-0.01,0.01-0.02c0.05,0.17,0.06,0.34,0.08,0.52
						c0.04,0.37,0.04,0.75,0.05,1.13c0.01,0.37,0.7,0.65,0.81,0.21c0.21-0.8,0.3-1.65,0.6-2.42c0.26,0.55,0.6,1.06,1.29,0.77
						c0.83-0.35,0.91-1.36,1.33-2.08c0.19,0.31,0.51,0.48,0.97,0.25c0.31-0.16,0.55-0.44,0.76-0.71c0.03-0.04,0.06-0.08,0.09-0.12
						c0.4,0.59,1.05,0.95,1.81,0.79c1.01-0.2,1.8-1.06,2.43-1.82c0.39-0.48,0.87-1.11,1.24-1.8c0.01,0.04,0.02,0.07,0.04,0.11
						c0.26,0.89,0.46,1.84,0.54,2.75c0.02,0.24,0.03,0.49,0.03,0.75c-1-0.47-2.2,0.12-2.88,0.95c-0.61,0.75-0.81,2.23,0.28,2.68
						c0.91,0.38,1.95-0.4,2.54-1.02C331.18,151.78,331.01,149.98,330.71,148.57z M324.55,146.51c0.08-0.3,0.17-0.61,0.33-0.88
						c0.05-0.1,0.12-0.22,0.21-0.29c0.08-0.06,0.33-0.16,0.31-0.17c-0.01,0-0.1,0.45-0.14,0.57c-0.07,0.22-0.16,0.43-0.25,0.63
						c-0.18,0.44-0.4,0.85-0.63,1.25C324.41,147.18,324.48,146.77,324.55,146.51z M328.58,153.04c-0.44,0.24-0.89,0.43-0.94-0.21
						c-0.08-1.06,1.43-2.35,2.46-1.83c-0.06,0.38-0.17,0.75-0.39,1.06C329.42,152.46,329.01,152.8,328.58,153.04z"/>
					<path class="stt6" d="M312.68,161.32c-0.4,0.89-0.64,1.87-1.2,2.68c-0.43,0.63-1.18,1.12-1.28,1.93
						c-0.01,0.11,0.13,0.39,0.27,0.26c0.64-0.59,1.4-1.24,1.85-1.99c0.02-0.03,0.03-0.06,0.05-0.09c-0.16,0.89-0.33,1.79-0.42,2.69
						c-0.1,0.93-0.22,1.85-0.33,2.77c-0.11,0.89-0.11,1.84-0.29,2.72c-0.09,0.45,0.72,0.76,0.86,0.27c0.12-0.41,0.09-0.91,0.13-1.34
						c0.05-0.5,0.11-0.99,0.17-1.49c0.11-0.92,0.23-1.85,0.33-2.77c0.19-1.81,0.68-3.58,0.67-5.42
						C313.48,161.15,312.85,160.93,312.68,161.32z"/>
					<path class="stt6" d="M319.3,161.34c-0.18-0.31-0.42-0.58-0.74-0.76c-0.29-0.16-0.8-0.35-1.11-0.15
						c-0.03-0.04-0.07-0.07-0.1-0.08c-0.97-0.27-1.62,0.58-2.07,1.33c-0.44,0.73-0.72,1.54-1.03,2.33
						c-0.53,1.39-1.01,3.74,0.47,4.74c1.31,0.89,2.83,0.1,3.65-1.04c0.86-1.2,1.33-2.74,1.37-4.21
						C319.76,162.78,319.67,161.98,319.3,161.34z M317.82,166.79c-0.46,0.79-1.36,1.83-2.4,1.48c-0.6-0.2-0.73-0.94-0.75-1.49
						c-0.03-0.71,0.11-1.45,0.34-2.12c0.25-0.72,0.53-1.44,0.86-2.13c0.28-0.59,0.78-1.61,1.53-1.68c0.02,0.03,0.05,0.05,0.08,0.07
						c0.27,0.12,0.53,0.18,0.69,0.31c0.13,0.1,0.23,0.22,0.31,0.39c0.24,0.47,0.3,1.02,0.3,1.53
						C318.78,164.41,318.45,165.7,317.82,166.79z"/>
					<path class="stt6" d="M334.67,161.14c-0.38-0.8-0.57-1.68-0.87-2.52c-0.25-0.72-0.54-1.59-1.17-2.08
						c-0.16-0.13-0.5-0.23-0.63,0.01c-0.49,0.93-0.86,1.88-0.97,2.88c-0.14-0.19-0.29-0.37-0.47-0.54
						c-0.15-0.13-0.42-0.19-0.58-0.05c-0.17,0.16-0.3,0.34-0.39,0.53c-0.19-0.45-0.46-0.85-0.83-1.15c-0.16-0.12-0.43-0.2-0.59-0.04
						c-1,0.97-0.74,2.85-1,4.1c-0.05,0.23-0.1,0.6-0.29,0.76c-0.21,0.18-0.27-0.01-0.4-0.21c-0.25-0.42-0.43-0.95-0.51-1.46
						c-0.01-0.16-0.02-0.32-0.03-0.48c0-0.01,0-0.02,0-0.03c0,0,0,0,0,0c0-0.03,0-0.07-0.01-0.1c-0.04-0.4-0.91-0.54-0.89-0.08
						c0.06,1.12-0.05,2.06-0.67,3.02c-0.27,0.42-1.36,1.97-1.83,1.04c-0.34-0.67,0.18-1.61,0.54-2.17c0.41-0.62,0.99-1.35,1.7-1.63
						c0-0.01-0.01-0.01-0.01-0.02c0.19-0.11,0.02-0.47-0.19-0.46c-1.07,0.05-1.96,1.18-2.46,2.03c-0.52,0.88-0.88,2.1-0.03,2.91
						c1.01,0.95,2.17,0.03,2.82-0.84c0.33-0.45,0.64-0.96,0.84-1.49c0.01,0.02,0.02,0.05,0.04,0.07c0.36,0.57,1.13,1.07,1.74,0.5
						c0.56-0.52,0.57-1.57,0.65-2.27c0.07-0.66,0.06-1.62,0.41-2.28c0.42,0.61,0.58,1.5,0.68,2.17c0.05,0.35,0.76,0.61,0.83,0.15
						c0.08-0.54,0.03-1.19,0.29-1.69c0.26,0.35,0.46,0.74,0.67,1.12c0.16,0.28,0.86,0.49,0.8-0.03c-0.15-1.23,0.17-2.32,0.68-3.4
						c0.33,0.48,0.5,1.11,0.67,1.62c0.24,0.71,0.42,1.46,0.74,2.14C334.11,161.55,334.89,161.6,334.67,161.14z"/>
				</g>
				<g id="XMLID_651_">
					<path id="XMLID_672_" class="stt7" d="M299.78,146.5c0-2.22,1.57-4.93,3.51-6.05c1-0.58,1.9-0.61,2.54-0.2l0-0.01l1.59,0.95
						l-0.64,1.13c0,0.04,0.01,0.08,0.01,0.13c0,2.22-1.57,4.93-3.51,6.05c0,0-0.01,0-0.01,0.01l-0.73,1.28l-1.73-1.03
						c-0.01,0-0.01-0.01-0.02-0.01l-0.06-0.04l0.01-0.01C300.15,148.32,299.78,147.57,299.78,146.5z"/>
					<path id="XMLID_671_" class="stt6" d="M308.52,143.47c0,2.22-1.57,4.93-3.51,6.05c-1.94,1.12-3.51,0.22-3.51-2
						c0-2.22,1.57-4.93,3.51-6.05C306.94,140.36,308.52,141.25,308.52,143.47z"/>
				</g>
			</g>
			<g id="Note_2_">
				<g>
					<g id="Note_3_">
						<polygon id="XMLID_728_" class="stt13" points="219.54,266.22 219.54,301.82 249.03,284.79 249.03,249.19 						"/>
						<g id="XMLID_692_">
							<g id="XMLID_709_">
								<path id="XMLID_727_" class="stt8" d="M256.4,282.81c0,0-1.44,2.44-6.58,5.41c-2.89,1.67-25.98,15-25.98,15l-3.12-30.94
									l29.49-17.03l1.65,17.91C252.13,276.07,252.55,280.33,256.4,282.81z"/>
								<polygon id="XMLID_714_" class="stt8" points="250.22,255.24 220.72,272.27 220.72,266.81 250.22,249.78 								"/>
								<polygon id="XMLID_713_" class="stt13" points="250.22,255.24 220.72,272.27 220.72,266.81 250.22,249.78 								"/>
							</g>
						</g>
					</g>
					<path class="stt6" d="M246.63,274.77c0.09-0.02,0.19-0.04,0.28-0.06c0.42-0.07,0.11-0.67-0.22-0.64c-0.1,0.01-0.2,0.03-0.3,0.05
						c-0.08-0.22-0.17-0.44-0.25-0.65c-0.71-1.76-1.57-3.57-2.88-4.98c-0.19-0.2-0.66-0.27-0.67,0.11
						c-0.04,1.37-0.36,2.72-0.72,4.03c-0.01-0.01-0.02-0.02-0.04-0.02c-0.06-0.44-0.15-0.87-0.3-1.26
						c-0.12-0.31-0.73-0.56-0.77-0.07c-0.04,0.49,0.04,0.97,0.25,1.36c0.05,0.61,0.03,1.24,0.02,1.81c-0.04,1.32-0.18,2.7-0.56,3.97
						c-0.24,0.78-0.68,1.91-1.69,1.53c-0.01,0-0.02-0.01-0.02-0.01c0.05-0.25,0.1-0.49,0.14-0.7c0.42-2.06,1.16-5.54-1.44-6.5
						c-0.13-0.05-0.28-0.03-0.35,0.1c-0.55,1.1-0.57,2.51-0.53,3.71c0.05,1.24,0.31,2.76,1.29,3.63c-0.12,0.38-0.29,0.71-0.58,0.91
						c-0.78,0.54-1.8-0.75-2.18-1.27c-0.12-0.17-0.44-0.37-0.65-0.18c-0.85,0.77-0.9,2.06-0.84,3.26c-0.14-0.11-0.33-0.18-0.49-0.1
						c-0.72,0.34-0.93,0.96-0.96,1.65c-0.45-0.81-1.06-1.36-1.95-0.78c-0.5,0.33-0.79,0.77-0.96,1.28
						c-0.18-0.91-0.42-1.94-1.11-2.56c-0.63-0.57-1.6-0.6-2.2,0.02c-0.66,0.68-0.83,1.76-0.88,2.67c-0.02,0.5-0.01,1.02,0.14,1.5
						c0.05,0.15,0.11,0.41,0.31,0.44c0.21,0.03,0.27-0.15,0.21-0.32c-0.29-0.92,0.17-4.61,1.74-3.97c0.84,0.34,0.95,2.05,1.07,2.8
						c0.23,1.43,0.54,2.84,0.79,4.27c0.08,0.44,0.86,0.63,0.86,0.07c0.02-1.61-0.76-3.67,0.22-5.12c0.12-0.18,0.43-0.59,0.68-0.5
						c0.22,0.08,0.39,0.51,0.48,0.7c0.29,0.61,0.46,1.28,0.77,1.89c0.17,0.33,0.83,0.51,0.83-0.02c0.01-0.82-0.51-2.38,0.13-3.09
						c0.15,0.26,0.3,0.52,0.42,0.8c0.15,0.32,0.83,0.53,0.82,0c-0.03-1.15-0.39-2.91,0.29-3.98c0.64,0.71,1.5,1.5,2.46,1.37
						c0.7-0.1,1.05-0.66,1.27-1.31c0.84,0.34,1.74,0.11,2.26-0.74c0.73-1.2,0.9-2.78,0.99-4.15c0.05-0.74,0.1-1.56,0.07-2.37
						c0.12,0.03,0.25,0.05,0.4,0.05c0.12,0,0.24-0.08,0.27-0.2c0.35-1.18,0.66-2.37,0.76-3.59c0.86,1.13,1.49,2.49,2.02,3.77
						c0.12,0.3,0.24,0.6,0.36,0.91c-1.12,0.4-2.09,1.33-2.16,2.55c-0.07,1.11,0.89,2.44,1.92,2.82c1.3,0.47,1.84-0.94,1.79-1.98
						C247.22,276.69,246.96,275.72,246.63,274.77z M237.3,276.98c-0.13-1.11-0.11-2.45,0.35-3.51c1.45,0.9,0.82,3.68,0.56,5.02
						c-0.05,0.25-0.09,0.56-0.14,0.88C237.56,278.72,237.38,277.71,237.3,276.98z M245.91,279.01c-0.52,0.14-1.05-0.59-1.27-0.97
						c-0.74-1.27,0.16-2.46,1.33-3.02c0.25,0.77,0.46,1.56,0.51,2.35C246.51,277.85,246.52,278.84,245.91,279.01z"/>
					<path class="stt6" d="M247.84,267.53c-0.33-1.01-0.8-1.98-1.3-2.92c-0.26-0.49-0.52-0.99-0.76-1.49
						c-0.22-0.46-0.42-0.94-0.66-1.39c-0.14-0.24-0.75-0.42-0.73,0.02c0.03,0.51,0.21,1.06,0.39,1.54c0.2,0.51,0.42,1.02,0.64,1.52
						c0.42,0.94,0.87,1.87,1.18,2.85c0.15,0.48,0.2,1.21,0.88,1.16C248.23,268.78,247.99,267.99,247.84,267.53z"/>
					<g>
						<path class="stt6" d="M249.05,270.98c0.01,0.01,0.03,0.02,0.04,0.02c0.02,0.01,0.04,0.02,0.06,0.03
							C249.11,271.02,249.08,271,249.05,270.98z"/>
						<path class="stt6" d="M249.71,271.89c-0.02-0.1-0.04-0.2-0.08-0.29c-0.02-0.04-0.04-0.06-0.06-0.09c0-0.01,0-0.02,0-0.03
							c-0.04-0.14-0.14-0.25-0.27-0.32c-0.07-0.06-0.14-0.11-0.22-0.15c-0.05-0.03-0.09-0.06-0.14-0.08
							c-0.11-0.05-0.21-0.07-0.32-0.02c-0.04,0.01-0.08,0.04-0.1,0.07c-0.04,0.05-0.05,0.1-0.06,0.16c-0.01,0.06,0,0.12,0,0.17
							c-0.03,0.06-0.06,0.13-0.08,0.2c-0.02,0.08-0.04,0.16-0.05,0.24c-0.01,0.07,0,0.14,0.01,0.21c0.03,0.17,0.17,0.32,0.31,0.41
							c0.17,0.11,0.37,0.15,0.56,0.18c0.11,0.02,0.25,0,0.35-0.06c0.03-0.02,0.05-0.05,0.08-0.07c0.05-0.06,0.07-0.12,0.08-0.2
							C249.74,272.11,249.73,272,249.71,271.89z"/>
					</g>
				</g>
				<g id="XMLID_683_">
					<path id="XMLID_688_" class="stt7" d="M216.36,268.36c0-2.22,1.57-4.93,3.51-6.05c1-0.58,1.9-0.61,2.54-0.2l0-0.01l1.59,0.95
						l-0.64,1.13c0,0.04,0.01,0.08,0.01,0.13c0,2.22-1.57,4.93-3.51,6.05c0,0-0.01,0-0.01,0.01l-0.73,1.28l-1.73-1.03
						c-0.01,0-0.01-0.01-0.02-0.01l-0.06-0.04l0.01-0.01C216.73,270.18,216.36,269.42,216.36,268.36z"/>
					<path id="XMLID_685_" class="stt6" d="M225.09,265.33c0,2.22-1.57,4.93-3.51,6.05c-1.94,1.12-3.51,0.22-3.51-2
						c0-2.22,1.57-4.93,3.51-6.05C223.52,262.21,225.09,263.1,225.09,265.33z"/>
				</g>
			</g>
			<path class="stt8" d="M285.76,233.4l53.45-30.86c3.56-2.06,6.45-0.7,6.45,3.04c0,3.73-2.89,8.43-6.45,10.48l-53.45,30.86
				c-3.56,2.06-6.45,0.7-6.45-3.04C279.31,240.14,282.2,235.45,285.76,233.4z"/>
			<g>
				<line class="stt24" x1="192.74" y1="319.73" x2="209.77" y2="329.56"/>
				<line class="stt24" x1="208.55" y1="310.84" x2="193.48" y2="338.1"/>
			</g>
			<path class="stt25" d="M299.79,269.44c-0.09-1.39-0.59-2.71-1.6-3.68c-1.04-1-2.5-1.51-3.9-1.73c-2.11-0.33-4.38,0.18-6.33,0.99
				c-1.73,0.71-3.25,1.93-4.63,3.17c-0.62,0.56-1.24,1.11-1.9,1.62c-0.35,0.27,0.16,0.82,0.5,0.62c1.5-0.88,2.82-1.99,4.28-2.93
				c1.59-1.03,3.4-1.71,5.28-1.98c2.55-0.37,5.92,0.34,6.63,3.2c0.34,1.37,0.08,2.96-0.17,4.32c-0.27,1.46-0.72,2.88-1.33,4.24
				c-1.23,2.71-3.09,5.12-5.35,7.04c-1.97,1.67-4.31,3.3-6.87,3.82c-2.16,0.44-4.53,0.36-6.54-0.6c-0.91-0.44-1.69-1.09-2.24-1.94
				c-0.67-1.06-0.79-2.32-0.82-3.54c-0.07-3,0.77-5.96,2.16-8.61c2.81-5.37,7.86-9.67,13.6-11.61c0.79-0.27,1.61-0.5,2.42-0.7
				c0.67-0.17,0.48-1.11-0.2-1.05c-3.37,0.31-6.7,1.92-9.43,3.88c-2.87,2.06-5.32,4.67-7.15,7.69c-1.72,2.84-2.81,6.08-2.97,9.4
				c-0.13,2.79,0.38,5.58,2.82,7.26c2.09,1.44,4.81,1.8,7.29,1.53c2.86-0.32,5.37-1.69,7.64-3.39c2.66-1.98,4.91-4.51,6.47-7.44
				C298.96,276.18,299.99,272.69,299.79,269.44z"/>
			<path class="stt25" d="M173.49,223.03l2.06,4.37c0.09,0.18,0.25,0.25,0.44,0.17l4.6-1.76c0.48-0.18,0.67,0.49,0.32,1.14
				l-3.33,6.25c-0.14,0.26-0.2,0.55-0.17,0.79l0.79,5.65c0.08,0.59-0.42,1.37-0.85,1.31l-4.11-0.51c-0.17-0.02-0.37,0.1-0.54,0.31
				l-4.11,5.26c-0.43,0.55-0.93,0.35-0.85-0.33l0.79-6.56c0.03-0.27-0.03-0.49-0.17-0.59l-3.33-2.4c-0.35-0.25-0.16-1.15,0.32-1.52
				l4.6-3.55c0.19-0.15,0.36-0.4,0.44-0.68l2.06-6.74C172.66,222.93,173.28,222.58,173.49,223.03z"/>
			<g>
				<path class="stt6" d="M219.56,196.97l15.62-9.02c0.66-0.38,1.2-0.11,1.2,0.61c0,0.72-0.54,1.61-1.2,1.99l-15.62,9.02
					c-0.66,0.38-1.2,0.11-1.2-0.61C218.36,198.24,218.9,197.35,219.56,196.97z"/>
				<path class="stt6" d="M219.56,203.39l10.77-6.22c0.66-0.38,1.2-0.11,1.2,0.61c0,0.72-0.54,1.61-1.2,1.99l-10.77,6.22
					c-0.66,0.38-1.2,0.11-1.2-0.61C218.36,204.66,218.9,203.77,219.56,203.39z"/>
			</g>
			<g>
				<path class="stt6" d="M275.41,196.27l15.62-9.02c0.66-0.38,1.2-0.11,1.2,0.61c0,0.72-0.54,1.61-1.2,1.99l-15.62,9.02
					c-0.66,0.38-1.2,0.11-1.2-0.61C274.21,197.55,274.74,196.66,275.41,196.27z"/>
				<path class="stt6" d="M275.41,202.69l10.77-6.22c0.66-0.38,1.2-0.11,1.2,0.61c0,0.72-0.54,1.61-1.2,1.99l-10.77,6.22
					c-0.66,0.38-1.2,0.11-1.2-0.61C274.21,203.97,274.74,203.07,275.41,202.69z"/>
			</g>
			<g>
				<path class="stt6" d="M164.87,296.14l15.62-9.02c0.66-0.38,1.2-0.11,1.2,0.61c0,0.72-0.54,1.61-1.2,1.99l-15.62,9.02
					c-0.66,0.38-1.2,0.11-1.2-0.61C163.67,297.42,164.2,296.53,164.87,296.14z"/>
				<path class="stt6" d="M164.87,302.56l10.77-6.22c0.66-0.38,1.2-0.11,1.2,0.61c0,0.72-0.54,1.61-1.2,1.99l-10.77,6.22
					c-0.66,0.38-1.2,0.11-1.2-0.61C163.67,303.83,164.2,302.94,164.87,302.56z"/>
			</g>
			<g>
				<path class="stt6" d="M304.68,251.52l15.62-9.02c0.66-0.38,1.2-0.11,1.2,0.61c0,0.72-0.54,1.61-1.2,1.99l-15.62,9.02
					c-0.66,0.38-1.2,0.11-1.2-0.61S304.01,251.91,304.68,251.52z"/>
				<path class="stt6" d="M304.68,257.94l10.77-6.22c0.66-0.38,1.2-0.11,1.2,0.61c0,0.72-0.54,1.61-1.2,1.99l-10.77,6.22
					c-0.66,0.38-1.2,0.11-1.2-0.61C303.48,259.21,304.01,258.32,304.68,257.94z"/>
			</g>
			<polygon class="stt8" points="215.19,226.7 236.38,214.3 215.06,249.19 			"/>
			<polygon class="stt19" points="215.19,226.7 236.38,214.3 215.06,249.19 			"/>
			<g>
				<g>
					<path class="stt8" d="M139.15,239.06l13.14-7.61c0.7-0.4,1.26-0.12,1.27,0.64c0,0.75-0.56,1.69-1.26,2.09l-13.15,7.61
						c-0.7,0.4-1.26,0.12-1.26-0.64C137.89,240.4,138.45,239.46,139.15,239.06z"/>
					<path class="stt8" d="M139.15,244.85l9.69-5.61c0.7-0.4,1.26-0.12,1.27,0.64c0,0.75-0.56,1.69-1.25,2.09l-9.7,5.61
						c-0.7,0.4-1.26,0.12-1.26-0.64C137.89,246.19,138.45,245.25,139.15,244.85z"/>
				</g>
				<g>
					<path class="stt8" d="M139.15,275.05l13.14-7.61c0.7-0.4,1.26-0.12,1.27,0.64c0,0.75-0.56,1.69-1.26,2.09l-13.15,7.61
						c-0.7,0.4-1.26,0.12-1.26-0.64C137.89,276.39,138.45,275.46,139.15,275.05z"/>
					<path class="stt8" d="M139.15,280.84l9.69-5.61c0.7-0.4,1.26-0.12,1.27,0.64c0,0.75-0.56,1.69-1.25,2.09l-9.7,5.61
						c-0.7,0.4-1.26,0.12-1.26-0.64S138.45,281.24,139.15,280.84z"/>
				</g>
				<g>
					<path class="stt8" d="M139.15,311.11l13.14-7.61c0.7-0.4,1.26-0.12,1.27,0.64c0,0.75-0.56,1.69-1.26,2.09l-13.15,7.61
						c-0.7,0.4-1.26,0.12-1.26-0.64S138.45,311.51,139.15,311.11z"/>
					<path class="stt8" d="M139.15,316.9l9.69-5.61c0.7-0.4,1.26-0.12,1.27,0.64c0,0.75-0.56,1.69-1.25,2.09l-9.7,5.61
						c-0.7,0.4-1.26,0.12-1.26-0.64S138.45,317.3,139.15,316.9z"/>
				</g>
				<g>
					<path class="stt8" d="M139.15,347.08l13.14-7.61c0.7-0.4,1.26-0.12,1.27,0.64c0,0.75-0.56,1.69-1.26,2.09l-13.15,7.61
						c-0.7,0.4-1.26,0.12-1.26-0.64C137.89,348.42,138.45,347.48,139.15,347.08z"/>
					<path class="stt8" d="M139.15,352.87l9.69-5.61c0.7-0.4,1.26-0.12,1.27,0.64c0,0.75-0.56,1.69-1.25,2.09l-9.7,5.61
						c-0.7,0.4-1.26,0.12-1.26-0.64C137.89,354.21,138.45,353.27,139.15,352.87z"/>
				</g>
			</g>
			<g class="stt15">
				<g>
					<path d="M139.15,244.85l9.69-5.61c0.7-0.4,1.26-0.12,1.27,0.64c0,0.75-0.56,1.69-1.25,2.09l-9.7,5.61
						c-0.7,0.4-1.26,0.12-1.26-0.64C137.89,246.19,138.45,245.25,139.15,244.85z"/>
				</g>
				<g>
					<path d="M139.15,280.84l9.69-5.61c0.7-0.4,1.26-0.12,1.27,0.64c0,0.75-0.56,1.69-1.25,2.09l-9.7,5.61
						c-0.7,0.4-1.26,0.12-1.26-0.64S138.45,281.24,139.15,280.84z"/>
				</g>
				<g>
					<path d="M139.15,316.9l9.69-5.61c0.7-0.4,1.26-0.12,1.27,0.64c0,0.75-0.56,1.69-1.25,2.09l-9.7,5.61
						c-0.7,0.4-1.26,0.12-1.26-0.64S138.45,317.3,139.15,316.9z"/>
				</g>
				<g>
					<path d="M139.15,352.87l9.69-5.61c0.7-0.4,1.26-0.12,1.27,0.64c0,0.75-0.56,1.69-1.25,2.09l-9.7,5.61
						c-0.7,0.4-1.26,0.12-1.26-0.64C137.89,354.21,138.45,353.27,139.15,352.87z"/>
				</g>
			</g>
			<path class="stt13" d="M366.96,219.08c-2.73,1.28-6.58,3.35-8.41,4.53c-17.44,11.23-30.77,37.14-29.76,57.86
				c0.06,1.19,0.17,2.34,0.32,3.44l37.86-21.86L366.96,219.08z"/>
		</g>
	</g>
</g>
<g id="Clock">
	<g id="Clock_2_">
		<path id="XMLID_789_" class="stt7" d="M389.52,230L389.52,230l-0.05-0.03c0,0,0,0-0.01,0l-8.65-5.02c0,0-0.01,0-0.01-0.01
			l-0.07-0.03l0,0c-5.45-2.76-12.73-1.95-20.57,3.1c-15.75,10.14-27.78,33.54-26.87,52.25c0.45,9.33,4.04,15.73,9.47,18.55l0,0
			l0.05,0.02c0,0,0,0,0.01,0l8.65,5.02c0,0,0,0,0.01,0l0.06,0.03l0,0c5.45,2.77,12.74,1.96,20.59-3.09
			c15.75-10.14,27.78-33.54,26.87-52.25C398.54,239.22,394.95,232.82,389.52,230z"/>
		<path id="XMLID_787_" class="stt5" d="M351.07,303.65l-8.25-4.81c-0.01,0-0.01,0-0.01,0l-0.05-0.03
			c-5.43-2.83-9.01-9.23-9.46-18.54c-0.41-8.35,1.77-17.62,5.69-26.22l8.66,5.02c-3.93,8.61-6.09,17.88-5.69,26.22
			C342.39,294.41,345.83,300.73,351.07,303.65z"/>
		<path id="XMLID_784_" class="stt6" d="M372.12,300.8c15.75-10.14,27.78-33.54,26.87-52.25c-0.91-18.71-14.41-25.66-30.17-15.52
			c-15.75,10.14-27.78,33.54-26.87,52.25C342.86,304,356.36,310.94,372.12,300.8z"/>
		<path id="XMLID_782_" class="stt2" d="M358.92,299.49c-9.29,0.45-10.8-9.99-11.02-14.5c-0.8-16.5,10.26-38.01,24.15-46.95
			c3.54-2.28,6.98-3.56,9.97-3.7c9.29-0.45,10.8,9.99,11.02,14.5c0.8,16.5-10.26,38-24.15,46.95
			C365.35,298.07,361.91,299.35,358.92,299.49L358.92,299.49z"/>
		<g>
			<path class="stt7" d="M372.29,270.01c-0.11,0-0.22-0.02-0.33-0.05c-0.41-0.14-0.68-0.52-0.68-0.96v-23.88
				c0-0.56,0.45-1.01,1.01-1.01c0.56,0,1.01,0.45,1.01,1.01v20.93l11.14-14.3c0.34-0.44,0.98-0.52,1.42-0.18
				c0.44,0.34,0.52,0.98,0.18,1.42l-12.94,16.63C372.89,269.87,372.6,270.01,372.29,270.01z"/>
		</g>
		<g id="XMLID_729_">
			<g id="XMLID_771_">
				<path id="XMLID_781_" class="stt8" d="M366.59,287.64c-0.05,0-0.09,0-0.14-0.02c-0.23-0.07-0.35-0.3-0.29-0.53l5.6-18.89
					c0.07-0.23,0.3-0.35,0.53-0.29c0.23,0.07,0.35,0.3,0.29,0.53l-5.6,18.89C366.92,287.52,366.76,287.64,366.59,287.64z"/>
			</g>
			<path id="XMLID_730_" class="stt8" d="M371.97,264.22c1.85-1.19,3.44-0.38,3.55,1.83c0.11,2.2-1.31,4.95-3.16,6.15
				c-1.85,1.19-3.44,0.38-3.55-1.83C368.7,268.17,370.12,265.42,371.97,264.22z"/>
		</g>
	</g>
</g>
<g id="Pencil">
	<g id="Pencil_10_">
		<path id="Shadow_8_" class="stt1" d="M159.68,426.05c-5.93,3.02,9.05,13.57,16.45,9.5l129.78-76l15.58-16.44
			c0.73-0.77-0.04-2.01-1.05-1.7l-30.06,9.17L159.68,426.05z"/>
		<g id="XMLID_5266_">
			<g id="XMLID_5268_">
				<path id="XMLID_5276_" class="stt26" d="M291.58,339.02l27.65-5.42c0.8-0.16,1.35,0.79,0.81,1.41l-18.76,21.24L291.58,339.02z"/>
				<path id="XMLID_5275_" class="stt5" d="M320.04,335.01c0.54-0.61,0-1.57-0.81-1.41l-5.4,1.06l0,0c1.51,0.94,2.37,2.64,2.23,4.41
					l-0.04,0.48L320.04,335.01z"/>
				<path id="XMLID_5274_" class="stt8" d="M198.17,415.38l2.26-1.3l2.74-1.56l98.11-56.27c1.02-3,0.53-6.29-0.77-9.17
					c-1.96-4.39-5.77-7.85-8.92-8.05l-98.05,56.24l-5.22,2.99C191.81,396.51,201.65,413.58,198.17,415.38z"/>
				<path id="XMLID_5273_" class="stt4" d="M206.8,410.47l5.05-2.91c1.49-0.79,0.64-4.45-1.11-8.24c-2.3-5.04-6.84-9.91-8.82-8.86
					l-3.72,2.14l-1.32,0.79c1.98-1.05,6.52,3.82,8.83,8.86c1.67,3.63,2.51,7.16,1.25,8.12l-0.02,0.01
					C206.9,410.42,206.86,410.45,206.8,410.47z"/>
				<path id="XMLID_5272_" class="stt8" d="M208.06,409.73c3.47-1.84-6.46-18.93-9.92-17.09l-5.06,2.89
					c3.47-1.84,13.39,15.25,9.92,17.09L208.06,409.73z"/>
				<path id="XMLID_5271_" class="stt4" d="M198.17,415.38l5-2.86c3.42-1.78-6.02-18.35-9.63-17.26c-0.07,0.01-0.14,0.05-0.21,0.08
					l-5.01,2.91C191.81,396.51,201.65,413.58,198.17,415.38z"/>
				<path id="XMLID_5270_" class="stt11" d="M320.16,334.08l-0.93-0.48l-20.06,10.97L195.42,404.1c-0.19-0.31-0.35-0.33-0.48-0.12
					c2.95,4.6,5.18,10.39,3.23,11.4l2.26-1.3l2.74-1.56l98.11-56.27l0,0l18.76-21.24C320.29,334.73,320.3,334.37,320.16,334.08z"/>
				<path id="XMLID_5269_" class="stt25" d="M176.98,427.51l21.19-12.13c1.49-0.77,0.66-4.4-1.05-8.16c-2.29-5.05-6.81-9.96-8.8-8.96
					c-0.01,0-0.01,0-0.03,0.01l-21.26,12.17c-4.22,2.44-0.34,11.61,4.37,15.71C173.16,427.7,175.12,428.38,176.98,427.51z"/>
			</g>
			<path id="XMLID_5267_" class="stt13" d="M178.24,420.94c-1.22-4.78-5.09-9.46-8.64-10.46c-1.31-0.37-2.39-0.18-3.17,0.43
				c-3.19,2.96,0.52,11.38,4.98,15.25c1.72,1.52,3.63,2.2,5.46,1.4C178.46,426.62,179.07,424.18,178.24,420.94z"/>
		</g>
	</g>
</g>
<g id="Character">
	<g id="Character_4_">
		<g id="XMLID_3876_">
			<g id="XMLID_4042_">
				<path id="XMLID_4043_" class="stt5" d="M455.97,330.67c0.66,0.27,0.8,1.54,0.84,4.06c0.03,1.91,0.37,5.25-1.88,5.87
					c-2.25,0.61-5.52,0.2-6.91-1.63c-1.74-2.29-2.9-4.29-5.39-7.09c-2.16-2.43-4.5-4.7-5.32-8.05c-0.74-3.03-0.04-4.32,2.04-5.15
					c2.85-1.14,7.2,2.89,9.4,3.56C450.64,322.82,455.31,330.4,455.97,330.67z"/>
			</g>
			<g id="XMLID_4040_">
				<path id="XMLID_4041_" class="stt26" d="M456.02,328.33l-0.07,3.1c0,0-3.28,2.4-7.83,0.04c-0.13-0.3-0.71-4.45-0.71-4.45
					L456.02,328.33z"/>
			</g>
			<g id="XMLID_4038_">
				<path id="XMLID_4039_" class="stt5" d="M430.49,347.95c0,0,0.83,2.71,1.25,5.08c0.34,1.88,0.81,5.02,0.13,6.42
					c-0.69,1.39-3.27,2.24-7.23,2.13c-2.57-0.08-6.61,1.58-9.38,3.04c-2.87,1.52-8.77,2.01-11.75,1.59
					c-3.52-0.49-7.13-2.62-7.66-4.1c-0.54-1.47,0.25-2.97,8.65-6.33c0.08-0.03,11.64-3.51,15.76-7.85L430.49,347.95z"/>
			</g>
			<g id="XMLID_4036_">
				<path id="XMLID_4037_" class="stt26" d="M430.56,344.6c0,0-0.06,2.3-0.08,3.61c-0.02,1.31-1.61,3.24-5.62,3
					c-2.82-0.16-4.77-0.97-4.61-3.29l0.08-3.35L430.56,344.6z"/>
			</g>
			<g id="XMLID_4023_">
				<path id="XMLID_4035_" class="stt6" d="M458.96,287.28c-1.19-10.15-3.29-16.21-3.29-16.21s1.42-13.89,2.25-27.07
					c0.89-14.24,1.72-21.57-1.08-42.13c0,0-43.65-3.92-44.85,12.53c-1.19,16.46,0.5,58.45,0.88,65.7
					c0.38,7.25,1.49,13.68,2.72,25.44c1.21,11.61,4.74,39.04,4.74,39.04c5.19,2.96,10.24,0.02,10.24,0.02s3.98-32.87,3.83-41.23
					c-0.19-10.21-2.76-18.3-2.76-18.3s1.18-13.56,2.21-25.36c1.04-11.8,1.98-17.46,2.27-22.59l1-0.47c0,0,0.55,20.41,0.93,27.66
					c0.38,7.25,1.38,14.21,3.17,27.7c1.55,11.7,6.41,36.5,6.41,36.5c5.19,2.96,8.4-0.18,8.4-0.18S460.15,297.43,458.96,287.28z"/>
			</g>
			<g id="XMLID_3877_">
				<path id="XMLID_4022_" class="stt7" d="M436.12,237.12c0,0,11.28-5.25,16.97-10.08c0,0-5.35,7.19-12.23,10.27
					c0,0-2.99,25.27-2.97,24.76l-0.84-24.98L436.12,237.12z"/>
			</g>
		</g>
		<g id="XMLID_1044_">
			<polygon id="XMLID_3875_" class="stt26" points="428.3,143.21 430,158.28 444.24,157.56 442.65,139.97 			"/>
			<g id="XMLID_1114_">
				<path class="stt6" d="M449.6,148.98c5.3-0.24,7.99,0.55,10.37,5.12c2.38,4.57,3.31,18.23,4.14,25.27
					c0.83,7.04,1.04,12.01-1.86,12.73c-2.9,0.72-14.18,1.04-14.18,1.04L449.6,148.98z"/>
				<path id="XMLID_3874_" class="stt8" d="M458.55,156.79c-0.77-4.22-6.31-8.65-11.51-7.81c-1.21,0.2-2.38,0.39-3.52,0.6
					c-0.62,2.54-7.57,4.12-14.21,2.56c-2,0.53-8.59,1.76-10.25,2.31c-4.77,1.58-6.74,6.28-7.48,21.84c0,0,0.38,35.23,0.2,42.25
					c11.78,4.97,24.14,5.1,31.01,3.77c14.29-2.79,16.14-8.65,16.14-8.65l-2.13-16.12C456.79,197.54,460.28,166.33,458.55,156.79z"/>
				<path id="XMLID_1119_" class="stt16" d="M458.55,156.79c-0.77-4.22-6.31-8.65-11.51-7.81c-1.21,0.2-2.38,0.39-3.52,0.6
					c-0.62,2.54-7.57,4.12-14.21,2.56c-2,0.53-8.59,1.76-10.25,2.31c-4.77,1.58-6.74,6.28-7.48,21.84c0,0,0.38,35.23,0.2,42.25
					c11.78,4.97,24.14,5.1,31.01,3.77c14.29-2.79,16.14-8.65,16.14-8.65l-2.13-16.12C456.79,197.54,460.28,166.33,458.55,156.79z"/>
				<path class="stt6" d="M428.86,148.18l0.11,0.95c0,0,4.12,1.03,8.74,0c4.62-1.03,5.56-2.34,5.56-2.34l-0.1-1.08
					c0,0,1.15-0.43,1.76,1.35c0.61,1.77,0.67,2.16,0.67,2.16s0.53,3.24-4.9,4.89c-7.82,2.37-13.54-1.48-13.54-1.48l-2.13,0.45
					c0,0,1.84-4.25,2.4-5.11c0.56-0.86,1.33-0.74,1.33-0.74L428.86,148.18z"/>
				<g id="Device_2">
					<path id="XMLID_3908_" class="stt8" d="M368.46,175.64l-0.43-0.23c-0.35-0.18-0.71-0.55-0.8-0.82l-8.93-25.09
						c-0.1-0.27,0.03-0.56,0.29-0.64l11.82-6.57c0.25-0.09,0.74-0.01,1.09,0.18l0.43,0.23c0.35,0.18,0.71,0.55,0.8,0.82l8.93,25.09
						c0.1,0.27-0.03,0.56-0.29,0.64l-11.82,6.57C369.29,175.9,368.81,175.82,368.46,175.64z"/>
					<path id="XMLID_3907_" class="stt16" d="M368.46,175.64l-0.43-0.23c-0.35-0.18-0.71-0.55-0.8-0.82l-8.93-25.09
						c-0.1-0.27,0.03-0.56,0.29-0.64l11.82-6.57c0.25-0.09,0.74-0.01,1.09,0.18l0.43,0.23c0.35,0.18,0.71,0.55,0.8,0.82l8.93,25.09
						c0.1,0.27-0.03,0.56-0.29,0.64l-11.82,6.57C369.29,175.9,368.81,175.82,368.46,175.64z"/>
					<path class="stt8" d="M369.46,175.84c-0.27,0.05-0.69-0.04-1.01-0.2l-0.43-0.23c-0.35-0.18-0.71-0.55-0.8-0.82l-8.93-25.09
						c-0.05-0.13-0.04-0.27,0.01-0.38l1.7,0.89c-0.05,0.11-0.06,0.25-0.02,0.39l8.93,25.09C369,175.72,369.23,175.87,369.46,175.84z
						"/>
					<path class="stt15" d="M369.46,175.84c-0.27,0.05-0.69-0.04-1.01-0.2l-0.43-0.23c-0.35-0.18-0.71-0.55-0.8-0.82l-8.93-25.09
						c-0.05-0.13-0.04-0.27,0.01-0.38l1.7,0.89c-0.05,0.11-0.06,0.25-0.02,0.39l8.93,25.09C369,175.72,369.23,175.87,369.46,175.84z
						"/>
					<path id="XMLID_3906_" class="stt8" d="M359.99,150.4l8.93,25.09c0.1,0.27,0.38,0.42,0.63,0.33l11.82-6.57
						c0.25-0.09,0.38-0.37,0.29-0.64l-8.93-25.09c-0.1-0.27-0.38-0.42-0.63-0.33l-11.82,6.57
						C360.02,149.84,359.89,150.13,359.99,150.4z"/>
					<path id="XMLID_3905_" class="stt19" d="M359.99,150.4l8.93,25.09c0.1,0.27,0.38,0.42,0.63,0.33l11.82-6.57
						c0.25-0.09,0.38-0.37,0.29-0.64l-8.93-25.09c-0.1-0.27-0.38-0.42-0.63-0.33l-11.82,6.57
						C360.02,149.84,359.89,150.13,359.99,150.4z"/>
					<path id="XMLID_3904_" class="stt3" d="M361.65,151.83l10.52-5.88c0.22-0.07,0.46,0.05,0.54,0.28l7.18,20.22
						c0.08,0.23-0.03,0.48-0.24,0.55l-10.48,6.02c-0.22,0.07-0.46-0.05-0.54-0.28l-7.23-20.36
						C361.32,152.15,361.43,151.91,361.65,151.83z"/>
					<path id="XMLID_3888_" class="stt5" d="M365.91,147.25c0.16-0.09,0.36-0.02,0.46,0.14c0.1,0.17,0.05,0.37-0.11,0.46
						c-0.16,0.09-0.36,0.02-0.46-0.14C365.7,147.54,365.75,147.34,365.91,147.25z"/>
					<g id="XMLID_3885_">
						<path id="XMLID_3887_" class="stt5" d="M365.43,148.64c0.58-0.31,1.6-0.89,2.17-1.21c0.1-0.05,0.22-0.02,0.27,0.08
							c0.06,0.1,0.02,0.22-0.08,0.27l-2.18,1.21c-0.1,0.05-0.22,0.02-0.28-0.08C365.29,148.8,365.34,148.69,365.43,148.64z"/>
						<path id="XMLID_3886_" class="stt5" d="M364.88,148.94c0.09-0.05,0.2-0.01,0.26,0.08c0.05,0.09,0.03,0.21-0.06,0.26
							c-0.09,0.05-0.2,0.01-0.26-0.08C364.77,149.1,364.8,148.99,364.88,148.94z"/>
					</g>
					<path id="XMLID_3882_" class="stt5" d="M375.15,170.55c0.34-0.11,0.72,0.08,0.85,0.44c0.13,0.36-0.04,0.74-0.38,0.86
						c-0.34,0.11-0.72-0.08-0.85-0.44C374.64,171.05,374.82,170.67,375.15,170.55z"/>
					<path class="stt8" d="M368.81,151.85l1.71,2.26c0.07,0.09,0.17,0.13,0.25,0.09l2.12-0.91c0.22-0.1,0.42,0.25,0.34,0.59
						l-0.79,3.23c-0.03,0.13-0.02,0.29,0.03,0.41l1.24,2.92c0.13,0.31-0.01,0.71-0.24,0.68l-2.2-0.26
						c-0.09-0.01-0.18,0.05-0.23,0.16l-1.35,2.72c-0.14,0.28-0.43,0.18-0.49-0.17l-0.57-3.39c-0.02-0.14-0.09-0.26-0.17-0.31
						l-2.08-1.24c-0.22-0.13-0.25-0.59-0.06-0.78l1.85-1.83c0.08-0.08,0.12-0.21,0.13-0.35l0.06-3.48
						C368.37,151.8,368.63,151.61,368.81,151.85z"/>
				</g>
				<g id="XMLID_1116_">
					<g id="XMLID_1117_">
						<path id="XMLID_1118_" class="stt26" d="M419.06,154.45c-6.52,0.57-9.29,1.75-14.18,10.57c-5.31,9.57-15.51,26.9-16.81,29.09
							c-1.8,3.04-2.14,7.67-0.59,10.47c1.45,2.61,6.06,3.8,11.28-2.09c6.21-7.01,17.76-24.14,17.76-24.14
							S426.33,165.4,419.06,154.45z"/>
					</g>
				</g>
				<path id="XMLID_1115_" class="stt26" d="M390.18,206.58c-4.99-0.61-16.66-16.43-19.98-21.6c-3.63-5.66-7.02-8.38-10.11-10.66
					c-0.73-0.54-1.54-1.18-1.99-1.98c-0.43-0.76-0.56-1.66-0.57-2.52c-0.02-1.14,0.14-2.3-0.05-3.42c-0.12-0.68-0.37-1.34-0.31-2.03
					c0.06-0.65,0.39-1.25,0.5-1.9c0.14-0.79-0.06-1.59-0.09-2.39c-0.02-0.53,0.05-1.09,0.31-1.55c0.24-0.44,0.72-0.85,1.07-1.2
					c0.08-0.09,1.63-1.27,1.65-1.2c0,0,1.73,4.72,1.73,4.72l1.65,4.52c0.63,0.59,1.69,1.74,2.39,0.56c0.18-0.31,0.24-0.67,0.28-1.03
					c0.11-1.15,0.02-2.32,0.23-3.46c0.13-0.7,0.4-1.4,0.86-1.96c0.3-0.36,1.18-1.19,1.68-0.76c0.15,0.13,0.22,0.33,0.26,0.52
					c0.11,0.54-0.07,1.06,0,1.58c0.09,0.67,0.33,1.34,0.46,2.01c0.26,1.36,0.42,2.74,0.48,4.12c0.04,1.02,0.03,2.04,0.15,3.05
					c0.14,1.23,0.51,2.29,1.22,3.3c1.3,1.86,18.7,18.54,18.7,18.54L390.18,206.58z"/>
				<path class="stt6" d="M420.31,154.11c-3.95-0.1-8.69,0.53-12.37,5.31c-3.67,4.77-18.38,30.73-18.38,30.73l-8.25-7.4
					c0,0-5.19,3-6.35,8.97c0,0,3.99,6.31,7.47,10.14c3.49,3.83,7.38,6.48,10.57,5.31c3.19-1.18,6.45-3.7,13.32-13.27
					c6.87-9.56,14.36-20.85,14.36-20.85S425.42,162.03,420.31,154.11z"/>
			</g>
			<g id="XMLID_1112_">
				<path id="XMLID_1113_" class="stt25" d="M418.27,124.75c0,0-3.55,5.39-3.15,5.92c0.4,0.53,3.02,1.01,3.02,1.01L418.27,124.75z"/>
			</g>
			<g id="XMLID_1108_">
				<path id="XMLID_1109_" class="stt5" d="M419.94,128.22c-2.33,0-4.23-1.9-4.23-4.24c0-2.33,1.9-4.23,4.23-4.23s4.23,1.9,4.23,4.23
					C424.17,126.32,422.27,128.22,419.94,128.22z M419.94,120.69c-1.82,0-3.29,1.48-3.29,3.29c0,1.82,1.48,3.29,3.29,3.29
					c1.82,0,3.29-1.48,3.29-3.29C423.23,122.17,421.75,120.69,419.94,120.69z"/>
			</g>
			<g id="XMLID_1106_">
				<path id="XMLID_1107_" class="stt26" d="M428.14,109.84c-7.19,1.52-9.27,4.68-9.95,16.1c-0.71,11.94,0.51,15.69,2.08,17.3
					c1.06,1.08,6.94,1.28,9.91,0.46c3.71-1.02,12.11-4,16.04-10c4.62-7.06,5.84-16.64,0.89-20.57
					C440.14,107.6,431.07,109.22,428.14,109.84z"/>
			</g>
			<path class="stt25" d="M428.39,144.03l-0.33-2.2c0,0-3.46,1.99-7.37,1.67C422.06,144.18,425.64,144.38,428.39,144.03z"/>
			<polygon id="XMLID_1105_" class="stt5" points="416.1,123.1 428.88,124.75 428.37,125.65 416.1,124.06 			"/>
			<g id="XMLID_1045_">
				<g id="XMLID_1099_">
					<g id="XMLID_1100_">
						<path id="XMLID_1104_" class="stt5" d="M417.75,114.57c-0.16,1.08,0.02,2.22,0.55,3.18c0.93,1.68,2.9,2.71,4.81,2.54
							c-0.33,0.03,0.92,1.61,1.03,1.7c0.54,0.45,1.17,0.8,1.89,0.72c0.26,1.6,0.14,3.28,1.91,4.04c0,0,1.14-4.41,4.86-3.86
							c3.74,0.56,4.25,5.33,1.89,8.23c-2.34,2.88-4.53,1.8-4.56,1.79c0.22,0.11,0.29,1.52,0.37,1.78c0.24,0.83,0.56,1.65,0.96,2.41
							c0.81,1.55,1.96,2.91,3.37,3.94c1.19,0.88,2.6,1.68,4.08,1.92c1.34,0.22,2.92-0.39,4.29-0.57c3.44-4.67,6.33-9.74,8.61-15.08
							c1.01-2.36,2.02-4.94,2.06-7.54c0.03-2.13-0.06-4.41-1.36-6.22c-1.09-1.51-2.82-2.54-4.67-2.77c-0.25-2.35-1.92-4.38-4-5.5
							c-2.08-1.12-4.51-1.43-6.87-1.36c-2.36,0.06-4.69,0.48-7.04,0.71c-4.91,0.49-9.68,0.13-14.58-0.31
							c-0.17-0.02-0.36-0.03-0.51,0.06c-0.17,0.11-0.24,0.32-0.29,0.52c-0.76,3.25,0.74,6.61,4.12,7.41
							C418.18,112.97,417.87,113.76,417.75,114.57z"/>
					</g>
				</g>
				<g id="XMLID_1048_">
					<g id="XMLID_1097_">
						<path id="XMLID_1098_" class="stt5" d="M427.87,129.27l0.13-4.99c-1.38-0.04-2.53,1.05-2.56,2.43
							C425.4,128.09,426.49,129.23,427.87,129.27z"/>
					</g>
				</g>
			</g>
		</g>
	</g>
</g>
</svg>
