<?xml version="1.0" encoding="utf-8"?>
<!-- Generator: Adobe Illustrator 25.0.0, SVG Export Plug-In . SVG Version: 6.00 Build 0)  -->
<svg version="1.1" xmlns="http://www.w3.org/2000/svg" xmlns:xlink="http://www.w3.org/1999/xlink" x="0px" y="0px"
	 viewBox="0 0 500 500" style="enable-background:new 0 0 500 500;" xml:space="preserve">
<style type="text/css">
	.stz0{fill:#F5F5F5;}
	.stz1{fill:#E0E0E0;}
	.stz2{opacity:0.1;fill:#455A64;}
	.stz3{fill:#27DEBF;}
	.stz4{opacity:0.8;fill:#FFFFFF;}
	.stz5{opacity:0.6;fill:#FFFFFF;}
	.stz6{opacity:0.05;}
	.stz7{opacity:0.95;fill:#FFFFFF;}
	.stz8{opacity:0.5;fill:#FFFFFF;}
	.stz9{opacity:0.2;}
	.stz10{opacity:0.1;}
	.stz11{opacity:0.6;}
	.stz12{opacity:0.5;}
	.stz13{opacity:0.4;}
	.stz14{opacity:0.3;}
	.stz15{fill:#37474F;}
	.stz16{opacity:0.65;}
	.stz17{fill:#FFFFFF;}
	.stz18{opacity:0.17;}
	.stz19{fill:#455A64;}
	.stz20{fill:#F28F8F;}
	.stz21{fill:#EBEBEB;}
	.stz22{fill:#263238;}
	.stz23{opacity:0.35;}
	.stz24{opacity:0.25;}
	.stz25{opacity:0.15;}
	.stz26{opacity:0.4;fill:#FFFFFF;}
	.stz27{fill:#FAFAFA;}
	.stz28{fill:#FFA8A7;}
	.stz29{fill:#B16668;}
	.stz30{fill:#9A4A4D;}
	.stz31{opacity:0.7;fill:#FFFFFF;}
	.stz32{fill:#E6E6E6;}
	.stz33{opacity:0.7;}
</style>
<g id="Floor">
	<ellipse id="Floor_3_" class="stz0" cx="250" cy="344.42" rx="239.65" ry="138.36"/>
</g>
<g id="Shadows">
	<path id="Shadow_7_" class="stz1" d="M213.53,421.53l71.39,41.22c0.96,0.55,2.51,0.55,3.46,0l96.35-55.63c0.96-0.55,0.96-1.45,0-2
		l-71.39-41.22c-0.96-0.55-2.51-0.55-3.46,0l-96.35,55.63C212.57,420.08,212.57,420.98,213.53,421.53z"/>
	<path id="Shadow_16_" class="stz1" d="M317,331.87l54.41,31.4c0.96,0.55,2.51,0.55,3.46,0l76.42-43.95c0.96-0.55,0.96-1.45,0-2
		l-54.41-31.4c-0.96-0.55-2.51-0.55-3.46,0L317,329.87C316.05,330.42,316.05,331.32,317,331.87z"/>
	<path id="Shadow_32_" class="stz2" d="M452.59,343.5l-4.69-2.71c-0.89-0.51-1.98-0.51-2.86,0.01l-53.75,31.5l-6.37,7.5l13.27-3.52
		l54.4-31.41C453.12,344.57,453.12,343.81,452.59,343.5z"/>
	<path id="Shadow_15_" class="stz1" d="M149.85,431.44c-5.16,0-10.04-1.19-13.73-3.36c-0.22-0.13-0.43-0.26-0.64-0.39
		c-0.99-0.63-1.47-1.75-1.23-2.85c0.1-0.45,0.58-1.93,2.68-2.23l13.9-2.03l0.74-1.55l-3.33-1.95l-13.66,2
		c-0.17,0.02-0.33,0.04-0.49,0.04c-1.21,0-2.32-0.66-2.9-1.72c-0.58-1.06-0.54-2.35,0.11-3.38c1.11-1.75,2.81-3.28,5.03-4.55
		c3.66-2.08,8.46-3.23,13.5-3.23c1.9,0,3.78,0.16,5.58,0.48l58-33.48c-0.44-1.47-0.48-3.01-0.1-4.5c0.72-2.87,2.87-5.4,6.22-7.3
		c3.66-2.08,8.46-3.23,13.51-3.23c5.16,0,10.04,1.19,13.74,3.36c0.21,0.12,0.43,0.26,0.64,0.39c0.98,0.63,1.46,1.75,1.22,2.84
		c-0.1,0.45-0.58,1.93-2.66,2.24l-13.91,2.04l-0.74,1.55l3.33,1.95l13.66-2c0.16-0.02,0.33-0.04,0.49-0.04
		c1.21,0,2.32,0.66,2.9,1.72c0.58,1.06,0.54,2.36-0.11,3.38c-1.12,1.75-2.81,3.28-5.03,4.54c-3.66,2.08-8.46,3.23-13.5,3.23
		c-1.9,0-3.78-0.16-5.58-0.48l-58,33.48c0.44,1.48,0.48,3.02,0.1,4.5c-0.72,2.87-2.87,5.39-6.22,7.3
		C159.7,430.29,154.9,431.44,149.85,431.44z"/>
	<path id="Shadow_18_" class="stz1" d="M268.61,316.55l-43.84-25.31c-1.13-0.65-1.13-1.71,0-2.36l116.26-67.11
		c1.13-0.65,2.96-0.65,4.09,0l43.84,25.31c1.13,0.65,1.13,1.71,0,2.36l-116.26,67.11C271.56,317.2,269.73,317.2,268.61,316.55z"/>
	<path id="Shadow_25_" class="stz1" d="M104.22,416.49l128.98-74.38c4.78-2.76,4.78-7.24,0-10l-43.61-25.18
		c-4.78-2.76-12.54-2.76-17.32,0L43.29,381.31c-4.78,2.76-4.78,7.24,0,10l43.61,25.18C91.68,419.25,99.44,419.25,104.22,416.49z"/>
</g>
<g id="Calendar_2_">
	<g id="Calendar_1_">
		<g id="Calendar">
			<g>
				<path id="XMLID_987_" class="stz3" d="M231.89,292.08c-0.61-0.35-0.97-1.23-0.8-1.96l19.23-85.1c0.17-0.73,0.82-1.63,1.47-2
					l114.39-66.04c0.65-0.37,1.67-0.39,2.28-0.04c0.61,0.35,0.97,1.23,0.8,1.96l-19.23,85.1c-0.16,0.73-0.82,1.63-1.47,2
					l-114.39,66.05C233.52,292.41,232.5,292.43,231.89,292.08z"/>
				<path id="XMLID_986_" class="stz4" d="M231.89,292.08c-0.61-0.35-0.97-1.23-0.8-1.96l19.23-85.1c0.17-0.73,0.82-1.63,1.47-2
					l114.39-66.04c0.65-0.37,1.67-0.39,2.28-0.04c0.61,0.35,0.97,1.23,0.8,1.96l-19.23,85.1c-0.16,0.73-0.82,1.63-1.47,2
					l-114.39,66.05C233.52,292.41,232.5,292.43,231.89,292.08z"/>
				<path id="XMLID_985_" class="stz3" d="M252.51,206.29l-19.23,85.1c-0.16,0.73,0.23,1.02,0.88,0.64l114.39-66.05
					c0.65-0.37,1.31-1.27,1.47-2l19.23-85.1c0.16-0.73-0.23-1.02-0.88-0.64l-114.39,66.04
					C253.34,204.66,252.68,205.56,252.51,206.29z"/>
				<path id="XMLID_984_" class="stz5" d="M252.51,206.29l-19.23,85.1c-0.16,0.73,0.23,1.02,0.88,0.64l114.39-66.05
					c0.65-0.37,1.31-1.27,1.47-2l19.23-85.1c0.16-0.73-0.23-1.02-0.88-0.64l-114.39,66.04
					C253.34,204.66,252.68,205.56,252.51,206.29z"/>
				<path id="XMLID_983_" class="stz6" d="M252.51,206.29l-19.23,85.1c-0.16,0.73,0.23,1.02,0.88,0.64l114.39-66.05
					c0.65-0.37,1.31-1.27,1.47-2l19.23-85.1c0.16-0.73-0.23-1.02-0.88-0.64l-114.39,66.04
					C253.34,204.66,252.68,205.56,252.51,206.29z"/>
			</g>
			<g>
				<g>
					<path id="XMLID_982_" class="stz3" d="M370.66,138.2c-0.61-0.35-1.63-0.33-2.28,0.04l-114.39,66.04
						c-0.65,0.37-1.09,1.28-0.98,2.02l15.04,105.41c0.11,0.74,0.68,1.63,1.29,1.98c0.61,0.35,1.63,0.33,2.28-0.04L386,247.61
						c0.65-0.37,1.09-1.28,0.98-2.02l-15.04-105.41C371.84,139.44,371.26,138.55,370.66,138.2z"/>
					<path id="XMLID_981_" class="stz4" d="M370.66,138.2c-0.61-0.35-1.63-0.33-2.28,0.04l-114.39,66.04
						c-0.65,0.37-1.09,1.28-0.98,2.02l15.04,105.41c0.11,0.74,0.68,1.63,1.29,1.98c0.61,0.35,1.63,0.33,2.28-0.04L386,247.61
						c0.65-0.37,1.09-1.28,0.98-2.02l-15.04-105.41C371.84,139.44,371.26,138.55,370.66,138.2z"/>
				</g>
				<g>
					<path id="XMLID_980_" class="stz3" d="M255.21,207.58l15.04,105.41c0.11,0.74,0.72,1.04,1.37,0.66L386,247.61
						c0.65-0.37,1.09-1.28,0.98-2.02l-15.04-105.41c-0.11-0.74-0.72-1.04-1.37-0.66l-114.39,66.04
						C255.54,205.94,255.1,206.84,255.21,207.58z"/>
					<path id="XMLID_979_" class="stz7" d="M255.21,207.58l15.04,105.41c0.11,0.74,0.72,1.04,1.37,0.66L386,247.61
						c0.65-0.37,1.09-1.28,0.98-2.02l-15.04-105.41c-0.11-0.74-0.72-1.04-1.37-0.66l-114.39,66.04
						C255.54,205.94,255.1,206.84,255.21,207.58z"/>
				</g>
			</g>
			<g>
				<g>
					<path class="stz3" d="M263.54,280.17l-13.43,7.75h0c-0.28-0.06-0.57-0.08-0.83-0.03l-15.84,3.05c-0.01,0-0.02,0-0.03,0h-0.01
						l29.28-16.91L263.54,280.17z"/>
					<path class="stz8" d="M263.54,280.17l-13.43,7.75h0c-0.28-0.06-0.57-0.08-0.83-0.03l-15.84,3.05c-0.01,0-0.02,0-0.03,0h-0.01
						l29.28-16.91L263.54,280.17z"/>
					<path class="stz9" d="M263.54,280.17l-13.43,7.75h0c-0.28-0.06-0.57-0.08-0.83-0.03l-15.84,3.05c-0.01,0-0.02,0-0.03,0h-0.01
						l29.28-16.91L263.54,280.17z"/>
				</g>
				<g>
					<path class="stz3" d="M267.92,310.9l-16.5-22.24c-0.28-0.37-0.75-0.66-1.25-0.78l13.37-7.72L267.92,310.9z"/>
					<path class="stz5" d="M267.92,310.9l-16.5-22.24c-0.28-0.37-0.75-0.66-1.25-0.78l13.37-7.72L267.92,310.9z"/>
					<path class="stz10" d="M267.92,310.9l-16.5-22.24c-0.28-0.37-0.75-0.66-1.25-0.78l13.37-7.72L267.92,310.9z"/>
				</g>
				<g>
					<path id="XMLID_978_" class="stz3" d="M267.41,311.94l-15.97-20.74c-0.46-0.59-1.43-0.99-2.17-0.88l-14.94,2.16
						c-0.74,0.11-1.83-0.09-2.44-0.44c-0.61-0.35-0.51-0.75,0.23-0.89l17.16-3.3c0.74-0.14,1.69,0.23,2.14,0.83l18.21,24.53
						c0.45,0.6,0.32,0.8-0.29,0.45C268.73,313.3,267.86,312.53,267.41,311.94z"/>
					<path id="XMLID_977_" class="stz4" d="M267.41,311.94l-15.97-20.74c-0.46-0.59-1.43-0.99-2.17-0.88l-14.94,2.16
						c-0.74,0.11-1.83-0.09-2.44-0.44c-0.61-0.35-0.51-0.75,0.23-0.89l17.16-3.3c0.74-0.14,1.69,0.23,2.14,0.83l18.21,24.53
						c0.45,0.6,0.32,0.8-0.29,0.45C268.73,313.3,267.86,312.53,267.41,311.94z"/>
				</g>
			</g>
			<g id="XMLID_888_">
				<path id="XMLID_975_" class="stz3" d="M369.29,138.47c-0.01-0.62-0.34-1.26-0.84-1.54c-0.61-0.35-1.63-0.33-2.28,0.04
					l-114.39,66.05c-0.31,0.18-0.63,0.49-0.89,0.84c-0.28,0.37-0.49,0.79-0.58,1.17l-2.71,12.02l2.2,1.26l116.74-67.4l2.71-12.02
					C369.29,138.73,369.29,138.6,369.29,138.47L369.29,138.47z"/>
				<path id="XMLID_974_" class="stz11" d="M369.26,138.89c0.17-0.73-0.23-1.02-0.88-0.64l-114.39,66.04c-0.65,0.37-1.31,1.27-1.47,2
					l-2.72,12.02l116.74-67.4L369.26,138.89z"/>
				<path id="XMLID_973_" class="stz12" d="M253.09,205.13c-0.28,0.37-0.49,0.79-0.57,1.16l-2.72,12.02l-2.2-1.26l2.71-12.02
					c0.09-0.37,0.3-0.8,0.58-1.17L253.09,205.13z"/>
				<path id="XMLID_972_" class="stz9" d="M369.29,138.47c-0.05-0.41-0.41-0.52-0.91-0.22l-114.39,66.04
					c-0.31,0.18-0.63,0.49-0.89,0.84l-2.2-1.27c0.27-0.35,0.58-0.66,0.89-0.84l114.39-66.05c0.65-0.37,1.66-0.39,2.28-0.04
					C368.95,137.21,369.28,137.85,369.29,138.47z"/>
			</g>
			<g id="XMLID_883_">
				<path id="XMLID_887_" class="stz3" d="M372.09,141.19L372.09,141.19l-0.14-1.01c-0.01-0.05-0.02-0.1-0.03-0.15
					c0-0.01,0-0.03-0.01-0.04c0,0,0,0,0,0c-0.17-0.7-0.69-1.47-1.25-1.79c-0.61-0.35-1.63-0.33-2.28,0.04l-114.39,66.04
					c-0.33,0.19-0.61,0.52-0.79,0.9l0,0c-0.17,0.36-0.24,0.75-0.2,1.12l2.16,15.1l2.2,1.27l116.74-67.4L372.09,141.19z"/>
				<path class="stz13" d="M374.11,155.29l-116.74,67.4l-2.16-15.11c-0.05-0.36,0.02-0.76,0.2-1.12c0.18-0.38,0.46-0.71,0.79-0.9
					l114.4-66.05c0.57-0.33,1.11-0.14,1.31,0.43c0,0.01,0.01,0.03,0.01,0.04c0,0.01,0,0.02,0,0.04c0.01,0.05,0.02,0.1,0.03,0.15
					l0.14,1l0,0L374.11,155.29z"/>
				<path id="XMLID_886_" class="stz12" d="M257.36,222.69l-2.2-1.27l-2.16-15.1c-0.05-0.36,0.03-0.76,0.2-1.12l2.21,1.27
					c-0.17,0.36-0.25,0.76-0.2,1.12L257.36,222.69z"/>
				<path id="XMLID_884_" class="stz14" d="M371.91,139.99c-0.18-0.6-0.74-0.82-1.32-0.48l-114.39,66.05
					c-0.33,0.19-0.61,0.52-0.79,0.9l-2.21-1.27c0.18-0.38,0.46-0.71,0.79-0.91l114.39-66.04c0.65-0.37,1.67-0.4,2.28-0.04
					C371.22,138.53,371.75,139.29,371.91,139.99z"/>
			</g>
			<g>
				<g class="stz9">
					<path id="XMLID_882_" d="M265.7,207.71c-0.19-1.3,0.65-2.92,1.87-3.62c1.22-0.7,2.35-0.22,2.54,1.08
						c0.19,1.3-0.65,2.92-1.87,3.62C267.02,209.49,265.88,209,265.7,207.71z"/>
					<path id="XMLID_881_" d="M281.13,198.8c-0.19-1.3,0.65-2.92,1.87-3.62c1.22-0.7,2.35-0.22,2.54,1.08
						c0.19,1.3-0.65,2.92-1.87,3.62C282.45,200.58,281.31,200.1,281.13,198.8z"/>
					<path id="XMLID_880_" d="M296.54,189.9c-0.19-1.3,0.65-2.92,1.87-3.62c1.22-0.7,2.35-0.22,2.54,1.08
						c0.19,1.3-0.65,2.92-1.87,3.62C297.86,191.68,296.72,191.2,296.54,189.9z"/>
					<path id="XMLID_874_" d="M327.37,172.1c-0.19-1.3,0.65-2.92,1.87-3.62c1.22-0.7,2.35-0.22,2.54,1.08
						c0.19,1.3-0.65,2.92-1.87,3.62C328.69,173.88,327.55,173.4,327.37,172.1z"/>
					<path id="XMLID_873_" d="M342.8,163.19c-0.19-1.3,0.65-2.92,1.87-3.62c1.22-0.7,2.35-0.22,2.54,1.08
						c0.19,1.3-0.65,2.92-1.87,3.62C344.12,164.97,342.99,164.49,342.8,163.19z"/>
					<path id="XMLID_871_" d="M358.21,154.29c-0.19-1.3,0.65-2.92,1.87-3.62c1.22-0.7,2.35-0.22,2.54,1.08
						c0.19,1.3-0.65,2.92-1.87,3.62C359.53,156.07,358.39,155.59,358.21,154.29z"/>
				</g>
				<g>
					<path class="stz15" d="M270.37,203.06c0,0.46-0.04,0.91-0.12,1.33c-0.04,0.23-0.1,0.46-0.17,0.67
						c-0.33,1.11-0.96,1.95-1.84,2.46c-0.58,0.34-1.24,0.51-1.95,0.51c-0.18,0-0.35-0.01-0.54-0.03c-0.02-0.09-0.04-0.19-0.06-0.29
						c-0.08-0.56,0.03-1.19,0.29-1.77c0.47,0.06,0.88-0.01,1.23-0.21c0.69-0.4,0.96-1.25,1.04-1.92c0.01-0.03,0.01-0.06,0.01-0.09
						c0.02-0.19,0.03-0.41,0.03-0.65c0-1.91-0.81-4.08-2.06-5.84c-0.44-0.63-0.94-1.2-1.46-1.69c-0.47-0.43-0.96-0.81-1.47-1.1
						c-1.13-0.64-2.16-0.78-2.86-0.38c-0.71,0.41-1.1,1.36-1.1,2.67c0,0.57,0.08,1.18,0.23,1.82l-1.85,1.07l-0.03-0.12
						c-0.27-0.97-0.41-1.9-0.41-2.77c0-2.08,0.76-3.67,2.13-4.46c1.37-0.79,3.12-0.65,4.93,0.39c0.8,0.46,1.57,1.09,2.27,1.83
						c0.5,0.53,0.97,1.11,1.39,1.73C269.44,198.29,270.37,200.82,270.37,203.06z"/>
					<path class="stz15" d="M285.8,194.15c0,0.46-0.04,0.91-0.11,1.33c-0.04,0.24-0.1,0.47-0.17,0.68c-0.33,1.1-0.96,1.93-1.85,2.44
						c-0.58,0.34-1.24,0.51-1.95,0.51c-0.17,0-0.35-0.01-0.53-0.03c-0.03-0.09-0.05-0.19-0.06-0.29c-0.08-0.56,0.03-1.19,0.28-1.77
						c0.47,0.05,0.89-0.01,1.23-0.21c0.7-0.4,0.96-1.25,1.04-1.92c0-0.03,0.01-0.06,0.01-0.09c0.02-0.19,0.03-0.4,0.03-0.65
						c0-1.91-0.81-4.08-2.06-5.84c-0.44-0.63-0.93-1.2-1.46-1.69c-0.46-0.43-0.96-0.81-1.47-1.1c-1.12-0.64-2.16-0.78-2.86-0.38
						c-0.7,0.41-1.1,1.35-1.1,2.67c0,0.57,0.08,1.18,0.23,1.82l-1.86,1.07l-0.03-0.12c-0.27-0.97-0.41-1.9-0.41-2.76
						c0-2.08,0.76-3.67,2.14-4.46c1.36-0.79,3.12-0.65,4.92,0.38c0.81,0.47,1.58,1.09,2.27,1.83c0.5,0.53,0.97,1.11,1.39,1.73
						C284.88,189.38,285.8,191.91,285.8,194.15z"/>
					<path class="stz15" d="M301.2,185.25c0,0.46-0.04,0.91-0.11,1.33c-0.04,0.24-0.1,0.46-0.17,0.68c-0.33,1.1-0.96,1.94-1.85,2.45
						c-0.58,0.34-1.24,0.51-1.95,0.51c-0.17,0-0.35-0.01-0.53-0.03c-0.03-0.09-0.05-0.19-0.06-0.29c-0.08-0.56,0.03-1.19,0.28-1.77
						c0.47,0.05,0.89-0.01,1.23-0.21c0.7-0.4,0.96-1.26,1.04-1.93c0.01-0.03,0.01-0.06,0.01-0.09c0.02-0.19,0.03-0.41,0.03-0.65
						c0-1.91-0.81-4.07-2.06-5.84c-0.44-0.63-0.93-1.2-1.46-1.7c-0.46-0.43-0.96-0.81-1.47-1.1c-1.12-0.64-2.16-0.78-2.86-0.38
						c-0.7,0.41-1.1,1.35-1.1,2.67c0,0.57,0.08,1.18,0.23,1.82l-1.85,1.07l-0.03-0.13c-0.27-0.97-0.41-1.9-0.41-2.76
						c0-2.08,0.76-3.67,2.13-4.46c1.37-0.79,3.12-0.65,4.93,0.39c0.8,0.46,1.57,1.09,2.27,1.83c0.5,0.53,0.97,1.11,1.4,1.73
						C300.28,180.48,301.2,183.01,301.2,185.25z"/>
					<path class="stz15" d="M332.04,167.48c0,0.45-0.03,0.91-0.11,1.33c-0.04,0.24-0.1,0.47-0.17,0.69
						c-0.33,1.09-0.96,1.93-1.85,2.44c-0.58,0.33-1.23,0.51-1.94,0.51c-0.18,0-0.35-0.01-0.53-0.03c-0.03-0.1-0.05-0.2-0.07-0.31
						c-0.08-0.56,0.03-1.17,0.27-1.75c0.48,0.06,0.9-0.01,1.25-0.21c0.7-0.41,0.96-1.27,1.04-1.95c0-0.02,0-0.04,0.01-0.07
						c0.02-0.19,0.03-0.4,0.03-0.65c0-1.92-0.82-4.09-2.07-5.86c-0.44-0.63-0.94-1.2-1.47-1.69c-0.46-0.42-0.95-0.79-1.45-1.08
						c-1.12-0.64-2.16-0.78-2.86-0.38c-0.7,0.4-1.09,1.35-1.09,2.67c0,0.56,0.07,1.16,0.22,1.79l-1.85,1.07l-0.03-0.1
						c-0.27-0.97-0.41-1.9-0.41-2.76c0-2.09,0.76-3.67,2.14-4.46c1.37-0.79,3.12-0.66,4.92,0.38c0.8,0.46,1.56,1.08,2.26,1.81
						c0.5,0.53,0.97,1.11,1.4,1.73C331.11,162.69,332.04,165.23,332.04,167.48z"/>
					<path class="stz15" d="M347.48,158.57c0,0.46-0.04,0.91-0.12,1.34c-0.04,0.24-0.1,0.47-0.17,0.69
						c-0.33,1.09-0.96,1.93-1.84,2.43c-0.58,0.34-1.24,0.51-1.95,0.51c-0.17,0-0.35-0.01-0.53-0.03c-0.03-0.1-0.05-0.2-0.07-0.32
						c-0.08-0.56,0.03-1.17,0.28-1.74c0.48,0.06,0.9-0.01,1.24-0.21c0.7-0.4,0.97-1.27,1.05-1.94c0-0.02,0-0.04,0.01-0.07
						c0.02-0.19,0.03-0.4,0.03-0.65c0-1.92-0.82-4.09-2.07-5.86c-0.44-0.63-0.94-1.2-1.47-1.7c-0.46-0.42-0.95-0.79-1.45-1.08
						c-1.12-0.64-2.16-0.78-2.86-0.38c-0.71,0.4-1.1,1.35-1.1,2.67c0,0.56,0.07,1.16,0.22,1.79l-1.86,1.07l-0.02-0.1
						c-0.27-0.97-0.41-1.9-0.41-2.76c0-2.09,0.76-3.67,2.13-4.46c1.37-0.8,3.12-0.66,4.93,0.38c0.8,0.46,1.56,1.08,2.25,1.81h0
						c0.51,0.53,0.97,1.11,1.4,1.73C346.55,153.79,347.48,156.32,347.48,158.57z"/>
					<path class="stz15" d="M362.88,149.67c0,0.46-0.04,0.91-0.12,1.34c-0.04,0.23-0.1,0.46-0.17,0.67c-0.33,1.1-0.96,1.94-1.84,2.46
						c-0.58,0.33-1.24,0.51-1.95,0.51c-0.17,0-0.35-0.01-0.53-0.03c-0.03-0.1-0.05-0.21-0.07-0.32c-0.08-0.56,0.03-1.17,0.27-1.74
						c0.47,0.06,0.89-0.01,1.24-0.21c0.7-0.4,0.96-1.27,1.04-1.94c0-0.02,0-0.04,0.01-0.07c0.02-0.19,0.04-0.4,0.04-0.65
						c0-1.92-0.82-4.09-2.07-5.86c-0.44-0.63-0.94-1.2-1.47-1.69c-0.46-0.43-0.94-0.79-1.44-1.08c-1.13-0.65-2.16-0.78-2.86-0.38
						c-0.71,0.4-1.1,1.35-1.1,2.67c0,0.56,0.07,1.16,0.22,1.79l-1.86,1.07l-0.02-0.1c-0.27-0.97-0.41-1.9-0.41-2.76
						c0-2.09,0.76-3.67,2.13-4.46c1.37-0.79,3.12-0.66,4.93,0.38c0.8,0.46,1.56,1.08,2.26,1.81c0.5,0.53,0.97,1.11,1.4,1.74
						C361.95,144.89,362.88,147.43,362.88,149.67z"/>
				</g>
			</g>
			<g id="XMLID_429_">
				<g id="XMLID_866_">
					<g id="XMLID_869_">
						<polygon id="XMLID_870_" class="stz3" points="259.91,240.44 376.65,173.1 374.11,155.29 257.36,222.64 						"/>
					</g>
					<g id="XMLID_867_" class="stz16">
						<polygon id="XMLID_868_" class="stz17" points="259.91,240.44 376.64,173.1 374.11,155.29 257.36,222.64 						"/>
					</g>
				</g>
				<g id="XMLID_851_">
					<g id="XMLID_864_">
						<path id="XMLID_865_" class="stz3" d="M269.11,244.76c0.14,0.98,1.05,1.32,2.03,0.75l8.76-5.06c0.98-0.57,1.67-1.82,1.52-2.81
							c-0.14-0.98-1.05-1.32-2.03-0.75l-8.76,5.06C269.66,242.52,268.97,243.78,269.11,244.76z"/>
					</g>
					<g id="XMLID_862_">
						<path id="XMLID_863_" class="stz3" d="M283.89,236.23c0.14,0.98,1.05,1.32,2.03,0.75l8.76-5.06c0.98-0.57,1.67-1.82,1.52-2.81
							c-0.14-0.98-1.05-1.32-2.03-0.75l-8.76,5.06C284.43,233.99,283.75,235.25,283.89,236.23z"/>
					</g>
					<g id="XMLID_860_">
						<path id="XMLID_861_" class="stz3" d="M298.67,227.7c0.14,0.98,1.05,1.32,2.03,0.75l8.76-5.06c0.98-0.57,1.67-1.82,1.52-2.81
							c-0.14-0.98-1.05-1.32-2.03-0.75l-8.76,5.06C299.21,225.46,298.53,226.71,298.67,227.7z"/>
					</g>
					<g id="XMLID_858_">
						<path id="XMLID_859_" class="stz3" d="M313.44,219.17c0.14,0.98,1.05,1.32,2.03,0.75l8.76-5.06c0.98-0.57,1.67-1.82,1.52-2.81
							c-0.14-0.98-1.05-1.32-2.03-0.75l-8.76,5.06C313.98,216.93,313.3,218.18,313.44,219.17z"/>
					</g>
					<g id="XMLID_856_">
						<path id="XMLID_857_" class="stz3" d="M328.22,210.63c0.14,0.98,1.05,1.32,2.03,0.75l8.76-5.06c0.98-0.57,1.67-1.82,1.52-2.81
							c-0.14-0.98-1.05-1.32-2.03-0.75l-8.76,5.06C328.76,208.4,328.08,209.65,328.22,210.63z"/>
					</g>
					<g id="XMLID_854_">
						<path id="XMLID_855_" class="stz3" d="M342.99,202.1c0.14,0.98,1.05,1.32,2.03,0.75l8.76-5.06c0.98-0.57,1.67-1.82,1.52-2.81
							c-0.14-0.98-1.05-1.32-2.03-0.75l-8.76,5.06C343.54,199.86,342.85,201.12,342.99,202.1z"/>
					</g>
					<g id="XMLID_852_">
						<path id="XMLID_853_" class="stz3" d="M357.77,193.57c0.14,0.98,1.05,1.32,2.03,0.75l8.76-5.06c0.98-0.57,1.67-1.82,1.52-2.81
							c-0.14-0.98-1.05-1.32-2.03-0.75l-8.76,5.06C358.31,191.33,357.63,192.59,357.77,193.57z"/>
					</g>
				</g>
				<g>
					<g id="XMLID_792_" class="stz18">
						<g id="XMLID_849_">
							<path id="XMLID_850_" class="stz3" d="M379.8,244.86c-0.24,0.01-0.47-0.15-0.5-0.36l-7.14-49.84
								c-0.03-0.21,0.14-0.39,0.39-0.4c0.24-0.01,0.47,0.15,0.5,0.36l7.14,49.84C380.22,244.67,380.05,244.85,379.8,244.86z"/>
						</g>
						<g id="XMLID_847_">
							<path id="XMLID_848_" class="stz3" d="M365.02,253.4c-0.24,0.01-0.47-0.15-0.5-0.36l-7.14-49.84
								c-0.03-0.21,0.14-0.39,0.39-0.4c0.24-0.01,0.47,0.15,0.5,0.36l7.14,49.84C365.44,253.21,365.27,253.39,365.02,253.4z"/>
						</g>
						<g id="XMLID_845_">
							<path id="XMLID_846_" class="stz3" d="M350.24,261.93c-0.24,0.01-0.47-0.15-0.5-0.36l-7.14-49.84
								c-0.03-0.21,0.14-0.39,0.39-0.4s0.47,0.15,0.5,0.36l7.14,49.84C350.66,261.74,350.48,261.92,350.24,261.93z"/>
						</g>
						<g id="XMLID_843_">
							<path id="XMLID_844_" class="stz3" d="M335.46,270.47c-0.24,0.01-0.47-0.15-0.5-0.36l-7.14-49.84
								c-0.03-0.21,0.14-0.39,0.39-0.4c0.24-0.01,0.47,0.15,0.5,0.36l7.14,49.84C335.87,270.28,335.7,270.46,335.46,270.47z"/>
						</g>
						<g id="XMLID_841_">
							<path id="XMLID_842_" class="stz3" d="M320.68,279c-0.24,0.01-0.47-0.15-0.5-0.36l-7.14-49.84c-0.03-0.21,0.14-0.39,0.39-0.4
								c0.24-0.01,0.47,0.15,0.5,0.36l7.14,49.84C321.09,278.81,320.92,278.99,320.68,279z"/>
						</g>
						<g id="XMLID_839_">
							<path id="XMLID_840_" class="stz3" d="M305.89,287.54c-0.24,0.01-0.47-0.15-0.5-0.36l-7.14-49.84
								c-0.03-0.21,0.14-0.39,0.39-0.4c0.24-0.01,0.47,0.15,0.5,0.36l7.14,49.84C306.31,287.35,306.14,287.53,305.89,287.54z"/>
						</g>
						<g id="XMLID_837_">
							<path id="XMLID_838_" class="stz3" d="M291.11,296.07c-0.24,0.01-0.47-0.15-0.5-0.36l-7.14-49.84
								c-0.03-0.21,0.14-0.39,0.39-0.4c0.24-0.01,0.47,0.15,0.5,0.36l7.14,49.84C291.53,295.88,291.36,296.06,291.11,296.07z"/>
						</g>
						<g id="XMLID_835_">
							<path id="XMLID_836_" class="stz3" d="M276.33,304.6c-0.24,0.01-0.47-0.15-0.5-0.36l-7.14-49.84
								c-0.03-0.21,0.14-0.39,0.39-0.4c0.24-0.01,0.47,0.15,0.5,0.36l7.14,49.84C276.75,304.42,276.57,304.59,276.33,304.6z"/>
						</g>
						<g id="XMLID_833_">
							<path id="XMLID_834_" class="stz3" d="M270.98,267.22c-0.15,0.01-0.31-0.06-0.41-0.17c-0.15-0.18-0.11-0.41,0.09-0.52
								l103.47-59.74c0.19-0.11,0.48-0.06,0.62,0.11c0.15,0.18,0.11,0.41-0.09,0.52l-103.47,59.74
								C271.12,267.2,271.05,267.22,270.98,267.22z"/>
						</g>
						<g id="XMLID_831_">
							<path id="XMLID_832_" class="stz3" d="M272.76,279.68c-0.15,0.01-0.31-0.06-0.41-0.17c-0.15-0.18-0.11-0.41,0.09-0.52
								l103.47-59.74c0.19-0.12,0.48-0.06,0.62,0.11c0.15,0.18,0.11,0.41-0.09,0.52l-103.47,59.74
								C272.91,279.66,272.83,279.68,272.76,279.68z"/>
						</g>
						<g id="XMLID_829_">
							<path id="XMLID_830_" class="stz3" d="M274.54,292.14c-0.15,0.01-0.31-0.06-0.41-0.17c-0.15-0.18-0.11-0.41,0.09-0.52
								L377.7,231.7c0.19-0.11,0.48-0.06,0.62,0.11c0.15,0.18,0.11,0.41-0.09,0.52l-103.47,59.74
								C274.69,292.12,274.62,292.14,274.54,292.14z"/>
						</g>
						<g id="XMLID_800_">
							<path id="XMLID_801_" class="stz3" d="M276.33,304.6c-0.08,0-0.16-0.01-0.23-0.04c-0.15-0.06-0.25-0.18-0.27-0.32l-7.14-49.84
								c-0.02-0.14,0.05-0.26,0.17-0.34l103.48-59.74c0.13-0.07,0.3-0.08,0.44-0.02c0.15,0.06,0.25,0.18,0.27,0.32l7.14,49.84
								c0.02,0.14-0.05,0.26-0.17,0.34l-103.47,59.74C276.48,304.58,276.41,304.6,276.33,304.6z M269.61,254.59l7.01,48.96
								l102.65-59.27l-7.01-48.96L269.61,254.59z"/>
						</g>
					</g>
					<g id="XMLID_465_" class="stz18">
						<g id="XMLID_773_">
							<path id="XMLID_774_" d="M379.8,244.86c-0.24,0.01-0.47-0.15-0.5-0.36l-7.14-49.84c-0.03-0.21,0.14-0.39,0.39-0.4
								c0.24-0.01,0.47,0.15,0.5,0.36l7.14,49.84C380.22,244.67,380.05,244.85,379.8,244.86z"/>
						</g>
						<g id="XMLID_768_">
							<path id="XMLID_770_" d="M365.02,253.4c-0.24,0.01-0.47-0.15-0.5-0.36l-7.14-49.84c-0.03-0.21,0.14-0.39,0.39-0.4
								c0.24-0.01,0.47,0.15,0.5,0.36l7.14,49.84C365.44,253.21,365.27,253.39,365.02,253.4z"/>
						</g>
						<g id="XMLID_765_">
							<path id="XMLID_767_" d="M350.24,261.93c-0.24,0.01-0.47-0.15-0.5-0.36l-7.14-49.84c-0.03-0.21,0.14-0.39,0.39-0.4
								s0.47,0.15,0.5,0.36l7.14,49.84C350.66,261.74,350.48,261.92,350.24,261.93z"/>
						</g>
						<g id="XMLID_720_">
							<path id="XMLID_762_" d="M335.46,270.47c-0.24,0.01-0.47-0.15-0.5-0.36l-7.14-49.84c-0.03-0.21,0.14-0.39,0.39-0.4
								c0.24-0.01,0.47,0.15,0.5,0.36l7.14,49.84C335.87,270.28,335.7,270.46,335.46,270.47z"/>
						</g>
						<g id="XMLID_711_">
							<path id="XMLID_715_" d="M320.68,279c-0.24,0.01-0.47-0.15-0.5-0.36l-7.14-49.84c-0.03-0.21,0.14-0.39,0.39-0.4
								c0.24-0.01,0.47,0.15,0.5,0.36l7.14,49.84C321.09,278.81,320.92,278.99,320.68,279z"/>
						</g>
						<g id="XMLID_703_">
							<path id="XMLID_710_" d="M305.89,287.54c-0.24,0.01-0.47-0.15-0.5-0.36l-7.14-49.84c-0.03-0.21,0.14-0.39,0.39-0.4
								c0.24-0.01,0.47,0.15,0.5,0.36l7.14,49.84C306.31,287.35,306.14,287.53,305.89,287.54z"/>
						</g>
						<g id="XMLID_701_">
							<path id="XMLID_702_" d="M291.11,296.07c-0.24,0.01-0.47-0.15-0.5-0.36l-7.14-49.84c-0.03-0.21,0.14-0.39,0.39-0.4
								c0.24-0.01,0.47,0.15,0.5,0.36l7.14,49.84C291.53,295.88,291.36,296.06,291.11,296.07z"/>
						</g>
						<g id="XMLID_694_">
							<path id="XMLID_700_" d="M276.33,304.6c-0.24,0.01-0.47-0.15-0.5-0.36l-7.14-49.84c-0.03-0.21,0.14-0.39,0.39-0.4
								c0.24-0.01,0.47,0.15,0.5,0.36l7.14,49.84C276.75,304.42,276.57,304.59,276.33,304.6z"/>
						</g>
						<g id="XMLID_687_">
							<path id="XMLID_688_" d="M270.98,267.22c-0.15,0.01-0.31-0.06-0.41-0.17c-0.15-0.18-0.11-0.41,0.09-0.52l103.47-59.74
								c0.19-0.11,0.48-0.06,0.62,0.11c0.15,0.18,0.11,0.41-0.09,0.52l-103.47,59.74C271.12,267.2,271.05,267.22,270.98,267.22z"/>
						</g>
						<g id="XMLID_605_">
							<path id="XMLID_670_" d="M272.76,279.68c-0.15,0.01-0.31-0.06-0.41-0.17c-0.15-0.18-0.11-0.41,0.09-0.52l103.47-59.74
								c0.19-0.12,0.48-0.06,0.62,0.11c0.15,0.18,0.11,0.41-0.09,0.52l-103.47,59.74C272.91,279.66,272.83,279.68,272.76,279.68z"/>
						</g>
						<g id="XMLID_544_">
							<path id="XMLID_602_" d="M274.54,292.14c-0.15,0.01-0.31-0.06-0.41-0.17c-0.15-0.18-0.11-0.41,0.09-0.52L377.7,231.7
								c0.19-0.11,0.48-0.06,0.62,0.11c0.15,0.18,0.11,0.41-0.09,0.52l-103.47,59.74C274.69,292.12,274.62,292.14,274.54,292.14z"/>
						</g>
						<g id="XMLID_469_">
							<path id="XMLID_470_" d="M276.33,304.6c-0.08,0-0.16-0.01-0.23-0.04c-0.15-0.06-0.25-0.18-0.27-0.32l-7.14-49.84
								c-0.02-0.14,0.05-0.26,0.17-0.34l103.48-59.74c0.13-0.07,0.3-0.08,0.44-0.02c0.15,0.06,0.25,0.18,0.27,0.32l7.14,49.84
								c0.02,0.14-0.05,0.26-0.17,0.34l-103.47,59.74C276.48,304.58,276.41,304.6,276.33,304.6z M269.61,254.59l7.01,48.96
								l102.65-59.27l-7.01-48.96L269.61,254.59z"/>
						</g>
					</g>
				</g>
			</g>
		</g>
		<g>
			<path class="stz19" d="M302.23,207.88c0,0.65-0.08,1.27-0.23,1.85c-0.16,0.58-0.37,1.11-0.63,1.6s-0.57,0.91-0.92,1.28
				c-0.35,0.36-0.72,0.66-1.1,0.88c-0.42,0.24-0.8,0.38-1.15,0.41c-0.35,0.03-0.65-0.03-0.9-0.18c-0.25-0.16-0.45-0.41-0.6-0.76
				c-0.15-0.35-0.22-0.79-0.23-1.32c0-0.09,0.02-0.18,0.06-0.27c0.04-0.09,0.09-0.15,0.15-0.18l1.24-0.72
				c0.12-0.07,0.2-0.09,0.24-0.05c0.04,0.04,0.08,0.13,0.12,0.28c0.08,0.29,0.2,0.48,0.36,0.56c0.16,0.08,0.4,0.03,0.71-0.15
				c0.37-0.21,0.64-0.51,0.83-0.9c0.18-0.39,0.28-0.85,0.28-1.39v-4.15l-3.31,1.91c-0.07,0.04-0.13,0.04-0.18-0.01
				c-0.05-0.05-0.08-0.13-0.08-0.24v-1.58c0-0.11,0.03-0.22,0.08-0.33c0.05-0.11,0.11-0.18,0.18-0.22l4.83-2.79
				c0.07-0.04,0.13-0.04,0.18,0.01c0.05,0.05,0.08,0.13,0.08,0.24V207.88z"/>
			<path class="stz19" d="M303.51,208.74c0-0.65,0.16-1.29,0.49-1.91c0.33-0.61,0.86-1.23,1.59-1.86l1.13-0.95
				c0-0.24-0.04-0.41-0.13-0.52c-0.08-0.11-0.23-0.1-0.43,0.02c-0.15,0.08-0.26,0.18-0.34,0.3c-0.08,0.11-0.14,0.2-0.18,0.27
				c-0.06,0.11-0.11,0.2-0.16,0.24c-0.05,0.05-0.11,0.1-0.18,0.14l-1.23,0.71c-0.07,0.04-0.12,0.04-0.16,0
				c-0.04-0.04-0.06-0.1-0.05-0.21c0.01-0.24,0.08-0.51,0.19-0.83c0.12-0.32,0.27-0.63,0.48-0.96c0.2-0.33,0.45-0.64,0.73-0.94
				c0.28-0.3,0.58-0.54,0.91-0.73c0.39-0.23,0.73-0.35,1.02-0.37c0.29-0.02,0.53,0.05,0.72,0.2c0.19,0.15,0.33,0.38,0.42,0.69
				c0.09,0.31,0.14,0.69,0.14,1.12v4.51c0,0.11-0.03,0.22-0.08,0.33c-0.05,0.11-0.11,0.18-0.18,0.23l-1.22,0.7
				c-0.07,0.04-0.13,0.04-0.18-0.01c-0.05-0.05-0.08-0.13-0.08-0.24v-0.42c-0.15,0.39-0.35,0.73-0.58,1.04
				c-0.23,0.31-0.53,0.57-0.9,0.78c-0.28,0.16-0.52,0.24-0.74,0.25c-0.22,0.01-0.4-0.05-0.54-0.18c-0.14-0.12-0.26-0.31-0.33-0.55
				C303.55,209.36,303.51,209.07,303.51,208.74z M305.71,207.8c0.14-0.08,0.27-0.19,0.4-0.34c0.12-0.14,0.23-0.31,0.32-0.49
				c0.09-0.18,0.16-0.37,0.21-0.58c0.05-0.2,0.08-0.4,0.08-0.6l-0.89,0.72c-0.17,0.15-0.31,0.31-0.42,0.5
				c-0.11,0.18-0.16,0.37-0.16,0.55s0.04,0.3,0.12,0.33C305.45,207.92,305.56,207.89,305.71,207.8z"/>
			<path class="stz19" d="M315.17,203.8c0,0.11-0.03,0.22-0.08,0.33c-0.05,0.11-0.11,0.18-0.18,0.22l-1.22,0.7
				c-0.07,0.04-0.13,0.04-0.18-0.01c-0.05-0.05-0.08-0.13-0.08-0.24v-3.77c0-0.43-0.07-0.73-0.2-0.91
				c-0.14-0.18-0.35-0.19-0.64-0.02c-0.29,0.17-0.5,0.42-0.63,0.75c-0.13,0.33-0.2,0.71-0.2,1.14v3.77c0,0.11-0.03,0.22-0.08,0.33
				c-0.05,0.11-0.11,0.18-0.18,0.23l-1.22,0.7c-0.07,0.04-0.13,0.04-0.18-0.01c-0.05-0.05-0.08-0.13-0.08-0.24v-6.94
				c0-0.11,0.03-0.22,0.08-0.33c0.05-0.11,0.11-0.18,0.18-0.23l1.17-0.67c0.07-0.04,0.13-0.04,0.18,0.01
				c0.05,0.05,0.08,0.13,0.08,0.24v0.34c0.05-0.13,0.12-0.27,0.19-0.42c0.08-0.15,0.17-0.3,0.28-0.45c0.11-0.15,0.24-0.29,0.38-0.43
				c0.15-0.14,0.31-0.26,0.51-0.37c0.31-0.18,0.59-0.28,0.85-0.29c0.26-0.01,0.48,0.06,0.66,0.24c0.18,0.17,0.33,0.44,0.43,0.81
				c0.1,0.37,0.15,0.84,0.15,1.43V203.8z"/>
			<path class="stz19" d="M316.68,195.99c0-0.11,0.03-0.22,0.08-0.33c0.05-0.11,0.11-0.18,0.18-0.22l1.22-0.7
				c0.07-0.04,0.13-0.04,0.18,0.01c0.05,0.05,0.08,0.13,0.08,0.24v3.77c0,0.43,0.06,0.73,0.18,0.92c0.12,0.19,0.33,0.2,0.61,0.04
				s0.48-0.41,0.6-0.74c0.12-0.33,0.18-0.7,0.18-1.13v-3.77c0-0.11,0.03-0.22,0.08-0.33c0.05-0.11,0.11-0.18,0.18-0.22l1.22-0.7
				c0.07-0.04,0.13-0.04,0.18,0.01c0.05,0.05,0.08,0.13,0.08,0.24v6.94c0,0.11-0.03,0.22-0.08,0.33c-0.05,0.11-0.11,0.18-0.18,0.23
				l-1.12,0.65c-0.07,0.04-0.13,0.04-0.18-0.01c-0.05-0.05-0.08-0.13-0.08-0.24v-0.34c-0.05,0.14-0.12,0.28-0.19,0.43
				c-0.07,0.15-0.17,0.29-0.27,0.44c-0.11,0.15-0.24,0.29-0.38,0.43c-0.14,0.14-0.32,0.27-0.52,0.38c-0.63,0.36-1.12,0.38-1.49,0.04
				c-0.37-0.33-0.56-1.08-0.56-2.25V195.99z"/>
			<path class="stz19" d="M323.01,197.47c0-0.65,0.16-1.29,0.49-1.91c0.33-0.61,0.86-1.23,1.59-1.86l1.13-0.95
				c0-0.24-0.04-0.41-0.12-0.52c-0.08-0.1-0.23-0.1-0.44,0.02c-0.15,0.09-0.26,0.18-0.34,0.3c-0.08,0.11-0.14,0.2-0.18,0.27
				c-0.06,0.11-0.11,0.2-0.16,0.24c-0.05,0.05-0.11,0.1-0.18,0.14l-1.23,0.71c-0.06,0.04-0.12,0.04-0.16,0
				c-0.04-0.04-0.06-0.1-0.05-0.21c0.01-0.24,0.08-0.51,0.19-0.83c0.12-0.32,0.27-0.63,0.48-0.96c0.2-0.33,0.44-0.64,0.73-0.94
				c0.28-0.3,0.58-0.54,0.91-0.73c0.39-0.23,0.74-0.35,1.03-0.37c0.29-0.02,0.53,0.05,0.72,0.2c0.19,0.15,0.33,0.38,0.42,0.69
				c0.09,0.31,0.14,0.69,0.14,1.12v4.51c0,0.11-0.03,0.22-0.08,0.33c-0.05,0.11-0.11,0.18-0.18,0.23l-1.22,0.7
				c-0.07,0.04-0.13,0.04-0.18-0.01c-0.05-0.05-0.08-0.13-0.08-0.24v-0.42c-0.15,0.39-0.35,0.73-0.58,1.04
				c-0.23,0.31-0.53,0.57-0.9,0.78c-0.28,0.16-0.52,0.24-0.74,0.25c-0.22,0.01-0.4-0.05-0.54-0.18c-0.14-0.12-0.26-0.31-0.33-0.55
				C323.05,198.1,323.01,197.81,323.01,197.47z M325.22,196.54c0.14-0.08,0.27-0.19,0.4-0.34c0.12-0.14,0.23-0.31,0.32-0.49
				c0.09-0.18,0.16-0.37,0.21-0.58c0.05-0.2,0.08-0.4,0.08-0.6l-0.89,0.72c-0.17,0.15-0.31,0.31-0.42,0.5
				c-0.11,0.18-0.16,0.37-0.16,0.55c0,0.19,0.04,0.3,0.12,0.33C324.96,196.66,325.07,196.63,325.22,196.54z"/>
			<path class="stz19" d="M333.03,186.15c0.07-0.04,0.13-0.04,0.18,0.01c0.05,0.05,0.08,0.13,0.08,0.24v1.5
				c0,0.11-0.03,0.22-0.08,0.33c-0.05,0.11-0.11,0.18-0.18,0.22l-0.88,0.51c-0.59,0.34-0.89,0.97-0.89,1.88v3.66
				c0,0.11-0.03,0.22-0.08,0.33c-0.05,0.11-0.11,0.18-0.18,0.23l-1.22,0.7c-0.07,0.04-0.13,0.04-0.18-0.01
				c-0.05-0.05-0.08-0.13-0.08-0.24v-6.94c0-0.11,0.03-0.22,0.08-0.33c0.05-0.11,0.11-0.18,0.18-0.23l1.12-0.65
				c0.07-0.04,0.13-0.04,0.18,0.01c0.05,0.05,0.08,0.13,0.08,0.24v0.34c0.15-0.3,0.33-0.59,0.54-0.85c0.21-0.26,0.46-0.47,0.75-0.64
				L333.03,186.15z"/>
			<path class="stz19" d="M337.06,194.04c-0.02,0.09-0.05,0.19-0.1,0.29c-0.05,0.11-0.11,0.18-0.18,0.23l-1.27,0.73
				c-0.06,0.04-0.12,0.03-0.16-0.01c-0.05-0.04-0.07-0.12-0.07-0.22c0-0.04,0-0.08,0.01-0.11l0.73-3.09l-1.95-5.85
				c-0.01-0.03-0.01-0.06-0.01-0.1c0-0.1,0.02-0.2,0.07-0.29c0.04-0.09,0.1-0.16,0.16-0.2l1.27-0.73c0.08-0.05,0.14-0.04,0.18,0.01
				c0.04,0.05,0.08,0.11,0.1,0.18l1.07,3.25l1.06-4.48c0.02-0.09,0.05-0.19,0.1-0.29c0.05-0.1,0.11-0.18,0.18-0.23l1.28-0.74
				c0.07-0.04,0.12-0.03,0.16,0.01c0.05,0.04,0.07,0.11,0.07,0.21c0,0.04,0,0.08-0.01,0.11L337.06,194.04z"/>
		</g>
		<g id="XMLID_450_">
			<path id="XMLID_451_" class="stz20" d="M367.91,214.61l0.87,1.23c0.05,0.08,0.14,0.1,0.24,0.07l1.47-0.57
				c0.23-0.09,0.37,0.2,0.24,0.49l-0.86,1.84c-0.05,0.12-0.07,0.25-0.04,0.35l0.5,1.61c0.08,0.26-0.13,0.61-0.35,0.59l-1.4-0.09
				c-0.09-0.01-0.18,0.05-0.26,0.15l-1.16,1.57c-0.18,0.25-0.45,0.17-0.45-0.13l-0.01-1.9c0-0.12-0.05-0.22-0.12-0.26l-1.21-0.65
				c-0.19-0.1-0.15-0.5,0.07-0.67l1.4-1.08c0.09-0.07,0.16-0.18,0.18-0.31l0.41-1.97C367.47,214.59,367.77,214.42,367.91,214.61z"/>
		</g>
		<g id="XMLID_448_">
			<path id="XMLID_449_" class="stz20" d="M376.44,214.13c-0.38-1.83-1.46-3.61-3.74-4.19c-2.8-0.71-4.79,1.2-6.23,2.81
				c-0.38,0.42,0.44,0.58,0.75,0.29c1.52-1.47,4.51-3,6.64-1.2c2.08,1.76,1.54,4.57,0.9,6.64c-1.08,3.44-4.58,6.85-9.2,6.74
				c-10.09-0.23-1.43-15.77,4.37-16.87c0.47-0.09,0.71-0.74,0.06-0.81c-3.04-0.3-4.84,2.08-6.46,3.87c-1.8,2-3.13,4.22-3.86,6.73
				c-1.34,4.64,2.41,10.11,8.63,8.07C373.72,224.43,377.53,219.4,376.44,214.13z"/>
		</g>
		<g id="XMLID_453_">
			<path id="XMLID_454_" class="stz20" d="M304.91,269.06c-0.38-1.83-1.46-3.61-3.74-4.19c-2.8-0.71-4.79,1.2-6.23,2.81
				c-0.38,0.42,0.44,0.58,0.75,0.29c1.52-1.47,4.51-3,6.64-1.2c2.08,1.76,1.54,4.57,0.9,6.64c-1.08,3.44-4.58,6.85-9.2,6.74
				c-10.09-0.23-1.43-15.77,4.37-16.87c0.47-0.09,0.71-0.74,0.06-0.81c-3.04-0.3-4.84,2.08-6.46,3.87c-1.8,2-3.13,4.22-3.86,6.73
				c-1.34,4.64,2.41,10.11,8.63,8.07C302.19,279.36,306,274.32,304.91,269.06z"/>
		</g>
	</g>
</g>
<g id="Gears">
	<g id="Gears_1_">
		<g id="XMLID_1668_">
			<path id="XMLID_1684_" class="stz1" d="M337.35,82.21l-1.28-7.43l-6.63,4.36c-0.66-1.27-1.52-2.29-2.52-3.06l3.17-8.58l-5.91-1.32
				l-4.36,8.32c-1.45,0.22-2.97,0.71-4.55,1.48l-1.89-6.27l-7.08,5.56l0.46,7.39c-1.43,1.59-2.74,3.34-3.91,5.17l-5.85-0.29
				l-4.1,9.19l5.02,2.14c-0.53,1.98-0.87,3.94-0.99,5.82l-6.37,5.86l1.28,7.43l6.63-4.36c0.66,1.27,1.52,2.29,2.52,3.06l-3.17,8.58
				l5.91,1.32l6.24-6.09c1.45-0.22,1.09-2.94,2.67-3.71l1.89,6.27l7.08-5.56l-0.18-2.91c1.43-1.59,6.84-5.11,8.01-6.94l1.47-2.42
				l4.1-9.19l-1.91-3.46l-2.12-4.51L337.35,82.21z M315.73,106.7c-5.43,4.27-7.08,5.2-8.06-0.5c-0.98-5.7,2.19-14.4,7.62-18.66
				c5.43-4.27,7.51-4.59,8.49,1.11C324.77,94.35,321.16,102.43,315.73,106.7z"/>
			<polygon id="XMLID_1683_" class="stz0" points="324.18,66.17 331.91,70.63 327.55,78.95 319.81,74.49 			"/>
			<polygon id="XMLID_1682_" class="stz0" points="343.8,79.23 337.17,83.6 329.44,79.14 336.07,74.77 			"/>
			<polygon id="XMLID_1681_" class="stz1" points="342.73,100.49 337.71,98.35 329.98,93.89 335,96.03 			"/>
			<polygon id="XMLID_1680_" class="stz1" points="297.82,125.26 305.55,129.72 308.73,121.14 301,116.68 			"/>
			<polygon id="XMLID_1679_" class="stz1" points="322.26,127.51 314.53,123.05 312.64,116.79 320.37,121.24 			"/>
			<path id="XMLID_1676_" class="stz21" d="M345.08,86.66l-1.28-7.43l-6.63,4.36c-0.66-1.27-1.52-2.29-2.52-3.06l3.17-8.58
				l-5.91-1.32l-4.36,8.32c-1.45,0.22-2.97,0.71-4.55,1.48l-1.89-6.27l-7.08,5.56l0.46,7.39c-1.43,1.59-2.74,3.34-3.91,5.17
				l-5.85-0.29l-4.1,9.19l5.02,2.14c-0.53,1.98-0.87,3.94-0.99,5.82l-6.37,5.86l1.28,7.43l6.63-4.36c0.66,1.27,1.52,2.29,2.52,3.06
				l-3.17,8.58l5.91,1.32l4.36-8.32c1.45-0.22,2.97-0.71,4.55-1.48l1.89,6.27l7.08-5.56l-0.46-7.39c1.43-1.59,2.74-3.34,3.91-5.17
				l5.85,0.29l4.1-9.19l-5.02-2.14c0.53-1.98,0.87-3.94,0.99-5.82L345.08,86.66z M323.46,111.16c-5.43,4.27-10.63,3.11-11.61-2.6
				c-0.98-5.7,2.62-13.78,8.05-18.05c5.43-4.27,10.63-3.11,11.61,2.6C332.5,98.81,328.89,106.89,323.46,111.16z"/>
			<polygon id="XMLID_1675_" class="stz0" points="321.11,74.16 313.38,69.7 306.3,75.26 314.03,79.72 			"/>
			<polygon id="XMLID_1674_" class="stz1" points="306.3,75.26 306.77,82.65 314.5,87.11 314.03,79.72 			"/>
			<polygon id="XMLID_1673_" class="stz0" points="310.58,92.28 302.85,87.82 297.01,87.53 304.74,91.99 			"/>
			<polygon id="XMLID_1672_" class="stz1" points="297.01,87.53 292.91,96.72 300.64,101.18 304.74,91.99 			"/>
			<polygon id="XMLID_1671_" class="stz0" points="304.67,109.15 296.94,104.69 290.56,110.55 298.29,115.01 			"/>
			<polygon id="XMLID_1670_" class="stz1" points="299.57,122.44 291.84,117.98 290.56,110.55 298.29,115.01 			"/>
			<polygon id="XMLID_1669_" class="stz0" points="331.91,70.63 324.18,66.17 330.09,67.49 337.82,71.95 			"/>
		</g>
		<g id="XMLID_1638_">
			<path id="XMLID_1665_" class="stz1" d="M275.96,66.99v-11.1l-8.83,3.98c-0.53-2.05-1.34-3.81-2.39-5.26l5.57-11.22l-6.8-3.92
				l-6.94,10.43c-1.78-0.18-3.7,0-5.75,0.56l-0.97-9.64l-9.61,5.55l-0.97,10.76c-2.04,1.79-3.97,3.84-5.75,6.07l-6.94-2.42
				l-6.8,11.77l5.57,4.8c-1.04,2.65-1.85,5.35-2.39,8.01l-8.83,6.22v11.1l8.83-3.98c0.53,2.05,1.34,3.81,2.39,5.26l-5.57,11.22
				l6.8,3.92l6.94-10.43c1.78,0.18,3.7,0,5.75-0.56l0.97,9.64l9.61-5.55l0.97-10.76c2.86-0.96,5.93-3.17,7.71-5.4l4.98,1.75
				l6.8-11.77l-4.17-3.59c1.04-2.65,1.15-6.89,0.99-9.21L275.96,66.99z M245.05,94.7c-7.37,4.26-11.96,1.24-11.96-7.28
				c0-8.52,6.09-18.95,13.47-23.21c7.37-4.26,11.84-1.16,11.84,7.36S252.42,90.45,245.05,94.7z"/>
			<polygon id="XMLID_1664_" class="stz0" points="271.24,43.93 263.51,39.47 256.57,49.9 264.3,54.36 			"/>
			<polygon id="XMLID_1663_" class="stz0" points="283.69,60.35 275.96,55.89 267.12,59.87 274.85,64.33 			"/>
			<polygon id="XMLID_1662_" class="stz1" points="247.97,122.21 240.24,117.75 239.27,108.11 247,112.57 			"/>
			<polygon id="XMLID_1661_" class="stz1" points="219.79,115.18 227.52,119.64 233.09,108.41 225.36,103.96 			"/>
			<path id="XMLID_1649_" class="stz21" d="M283.69,71.45v-11.1l-8.83,3.98c-0.53-2.05-1.34-3.81-2.39-5.26l5.57-11.22l-6.8-3.92
				l-6.94,10.43c-1.78-0.18-3.7,0-5.75,0.56l-0.97-9.64l-9.61,5.55L247,61.59c-2.04,1.79-3.97,3.84-5.75,6.07l-6.94-2.42l-6.8,11.77
				l5.57,4.8c-1.04,2.65-1.85,5.35-2.39,8.01l-8.83,6.22v11.1l8.83-3.98c0.53,2.05,1.34,3.81,2.39,5.26l-5.57,11.22l6.8,3.92
				l6.94-10.43c1.78,0.18,3.7,0,5.75-0.56l0.97,9.64l9.61-5.55l0.97-10.76c2.04-1.79,3.97-3.84,5.75-6.07l6.94,2.42l6.8-11.77
				l-5.57-4.8c1.04-2.65,1.85-5.35,2.39-8.01L283.69,71.45z M252.78,99.16c-7.37,4.26-13.35,0.81-13.35-7.71
				c0-8.52,5.98-18.87,13.35-23.13c7.37-4.26,13.35-0.81,13.35,7.71C266.13,84.55,260.15,94.9,252.78,99.16z"/>
			<polygon id="XMLID_1647_" class="stz0" points="233.53,63.2 241.26,67.66 234.32,65.24 226.59,60.78 			"/>
			
				<rect id="XMLID_1646_" x="220.26" y="64.43" transform="matrix(0.4996 -0.8663 0.8663 0.4996 53.9444 231.1727)" class="stz0" width="13.59" height="8.92"/>
			<polygon id="XMLID_1645_" class="stz1" points="219.79,72.55 227.52,77.01 233.09,81.81 225.36,77.35 			"/>
			<polygon id="XMLID_1644_" class="stz0" points="222.97,85.36 230.7,89.82 221.87,96.04 214.14,91.58 			"/>
			<polygon id="XMLID_1643_" class="stz1" points="214.14,91.58 221.87,96.04 221.87,107.14 214.14,102.68 			"/>
			<polygon id="XMLID_1642_" class="stz0" points="257.58,45.28 249.85,40.82 240.24,46.37 247.97,50.83 			"/>
		</g>
	</g>
</g>
<g id="Wrench_1_">
	<g id="Wrench">
		<path class="stz15" d="M249.61,372.97c0,0.26-0.07,0.52-0.21,0.74c-0.86,1.31-2.22,2.55-4.07,3.6c-4.98,2.83-12.14,3.58-18.29,2.29
			l-60.76,35.08c0.04,0.06,0.07,0.12,0.11,0.19l0.95-0.16v3.45c0,2.6-1.73,5.21-5.21,7.18c-6.88,3.92-17.96,3.87-24.75-0.11
			c-0.12-0.07-0.29-0.18-0.44-0.27c-0.14-0.09-0.25-0.3-0.25-0.46v-3.25l15.82,0.91l2.31-4.82l-1.29-0.76l-4.78-2.8l-14.72,2.14
			c-0.39,0.06-0.75-0.25-0.75-0.65v-3.62l4.28-0.71c0,0,12.14-3.59,18.3-2.29l60.75-35.08c-0.73-1.16-1.08-2.38-1.05-3.61
			c-0.01,0.01-0.01-3.42-0.01-3.42l0.92,0.33c0.84-1.45,2.27-2.81,4.29-3.96c6.89-3.92,25.43-2.8,25.43-2.8v3.38
			c0,0.16-0.12,0.3-0.28,0.32l-15.53,2.28l-1.01,2.12l-1.3,2.7l6.08,3.56l15.09-5.45l0.37,0.65V372.97z"/>
		<path class="stz22" d="M154.82,413.88l-1.29,2.7l-4.78-2.8l-14.72,2.14c-0.4,0.06-0.75-0.25-0.75-0.65v-3.62l15.47-1.33
			L154.82,413.88z"/>
		<path class="stz22" d="M230.38,362.63l15.81-2.55v3.41c0,0.16-0.12,0.3-0.28,0.33l-15.53,2.28l-1.01,2.12l-1.29-0.76L230.38,362.63
			z"/>
		<polygon id="XMLID_1899_" class="stz15" points="227.04,379.6 227.04,376.14 166.28,411.22 166.28,414.68 		"/>
		<path id="XMLID_1905_" class="stz19" d="M137.57,407.48c-1.91,1.08-3.29,2.36-4.15,3.72c-0.37,0.59,0.11,1.35,0.8,1.25l14.53-2.12
			l6.07,3.56l-2.31,4.82l-15.22,2.23c-0.57,0.08-0.75,0.31-0.45,0.5c0.18,0.11,0.36,0.23,0.55,0.34c6.78,3.98,17.86,4.03,24.75,0.11
			c5.05-2.87,6.42-7.06,4.15-10.67l60.76-35.08c6.15,1.3,13.31,0.54,18.29-2.29c1.91-1.08,3.29-2.35,4.15-3.71
			c0.38-0.59-0.11-1.35-0.81-1.25l-14.53,2.12l-6.07-3.56l2.31-4.82l15.22-2.23c0.55-0.08,0.74-0.32,0.45-0.5
			c-0.18-0.11-0.36-0.23-0.55-0.34c-6.78-3.98-17.86-4.03-24.75-0.11c-5.05,2.87-6.42,7.06-4.15,10.67l-60.76,35.08
			C149.7,403.9,142.55,404.65,137.57,407.48z"/>
	</g>
</g>
<g id="Books_1_">
	<g id="Books">
		<g id="XMLID_462_">
			<g id="XMLID_667_">
				<polygon id="XMLID_673_" class="stz19" points="322.79,328.32 374.04,357.76 447.41,315.4 396.16,285.96 				"/>
				<path id="XMLID_672_" class="stz0" d="M374.51,355.98l-49.81-28.76c1.03-2.93,0.95-6.36-0.21-10.27l49.56,28.52
					C374.04,345.47,374.79,347.95,374.51,355.98z"/>
				<path id="XMLID_671_" class="stz22" d="M372.04,342.26c2.09,1.21,3.78,4.14,3.78,6.55v7.65c0,2.41-1.69,3.39-3.78,2.18
					l-49.24-28.43l0-1.9l48.73,27.99c1.25,0.72,2.27,0.14,2.27-1.31l-0.04-7.09c0-1.45-1.02-3.21-2.27-3.93l-48.68-28l0-2.15
					L372.04,342.26z"/>
				<path id="XMLID_669_" class="stz19" d="M322.79,313.84l73.37-42.36l49.24,28.43c2.09,1.2,3.78,4.14,3.78,6.55l0,7.65
					c0,1.2-0.42,2.05-1.11,2.45l-73.37,42.36c0.69-0.4,1.11-1.24,1.11-2.45l0.01-7.66c0-2.41-1.69-5.34-3.78-6.55L322.79,313.84z"/>
				<path id="XMLID_668_" class="stz15" d="M374.71,345.08c0.68,1.19,1.11,2.52,1.11,3.73l-0.01,7.66c0,1.2-0.42,2.05-1.11,2.45
					l73.37-42.36c0.69-0.4,1.11-1.24,1.11-2.45l0-7.65c0-1.2-0.42-2.54-1.11-3.73L374.71,345.08z"/>
			</g>
			<g id="XMLID_463_">
				<polygon id="XMLID_666_" class="stz3" points="339.36,310.65 380.16,334.05 447.56,295.14 406.76,271.74 				"/>
				<polygon id="XMLID_660_" class="stz23" points="339.36,310.65 380.16,334.05 447.56,295.14 406.76,271.74 				"/>
				<path id="XMLID_648_" class="stz21" d="M380.62,332.27l-39.36-22.72c1.03-2.93,0.95-6.36-0.21-10.27l39.1,22.48
					C380.16,321.76,380.9,324.24,380.62,332.27z"/>
				<path id="XMLID_613_" class="stz0" d="M380.62,332.27l-39.36-22.72c1.03-2.93,0.95-6.36-0.21-10.27l39.1,22.48
					C380.16,321.76,380.9,324.24,380.62,332.27z"/>
				<path id="XMLID_612_" class="stz3" d="M378.15,318.56c2.09,1.21,3.78,4.14,3.78,6.55l0,7.65c0,2.41-1.69,3.39-3.78,2.18
					l-38.79-22.39l0-1.9l38.27,21.95c1.25,0.72,2.27,0.14,2.27-1.31l-0.04-7.09c0-1.45-1.02-3.21-2.27-3.93l-38.22-21.96l0-2.15
					L378.15,318.56z"/>
				<path id="XMLID_611_" class="stz24" d="M378.15,318.56c2.09,1.21,3.78,4.14,3.78,6.55l0,7.65c0,2.41-1.69,3.39-3.78,2.18
					l-38.79-22.39l0-1.9l38.27,21.95c1.25,0.72,2.27,0.14,2.27-1.31l-0.04-7.09c0-1.45-1.02-3.21-2.27-3.93l-38.22-21.96l0-2.15
					L378.15,318.56z"/>
				<path id="XMLID_608_" class="stz3" d="M339.36,296.17l67.4-38.91l38.78,22.39c2.09,1.2,3.78,4.14,3.78,6.55l0,7.65
					c0,1.2-0.42,2.05-1.11,2.45l-67.4,38.91c0.69-0.4,1.11-1.24,1.11-2.45l0.01-7.66c0-2.41-1.69-5.34-3.78-6.55L339.36,296.17z"/>
				<path id="XMLID_464_" class="stz25" d="M380.83,321.38c0.68,1.19,1.11,2.52,1.11,3.73l-0.01,7.66c0,1.2-0.42,2.05-1.11,2.45
					l67.4-38.91c0.69-0.4,1.11-1.24,1.11-2.45l0-7.65c0-1.2-0.42-2.54-1.11-3.73L380.83,321.38z"/>
			</g>
		</g>
	</g>
</g>
<g id="List_1_">
	<g id="List">
		<g id="XMLID_730_">
			<path id="XMLID_2890_" class="stz3" d="M382.58,401.13v1.7c0,0.54-0.38,1.19-0.84,1.45l-94.35,54.47c-0.46,0.27-1.21,0.27-1.68,0
				l-67.58-39.02c-0.46-0.27-0.84-0.92-0.84-1.45v-1.7c0-0.54,0.38-1.19,0.84-1.45l94.35-54.47c0.46-0.27,1.21-0.27,1.68,0
				l67.58,39.02C382.21,399.95,382.58,400.6,382.58,401.13z"/>
			<path id="XMLID_732_" class="stz26" d="M218.02,415.21c-0.35,0.27-0.31,0.65,0.11,0.89l67.59,39.02c0.23,0.14,0.53,0.2,0.84,0.2
				l0,3.64c-0.31,0-0.6-0.07-0.84-0.2l-67.59-39.02c-0.46-0.27-0.84-0.92-0.84-1.45l0-1.7C217.3,416.1,217.61,415.51,218.02,415.21z
				"/>
			<path id="XMLID_731_" class="stz25" d="M381.88,399.78c0.02,0.01,0.03,0.02,0.04,0.03c0.02,0.02,0.05,0.04,0.07,0.06
				c0.01,0.01,0.02,0.02,0.03,0.02c0.04,0.04,0.07,0.07,0.11,0.11l0.01,0.02c0.22,0.26,0.38,0.59,0.43,0.91
				c0.01,0.07,0.02,0.14,0.02,0.2l0,1.7c0,0.53-0.38,1.18-0.84,1.45l-94.35,54.47c-0.23,0.13-0.54,0.2-0.84,0.2l0-3.64
				c0.31,0,0.61-0.07,0.84-0.2l94.35-54.47c0.16-0.09,0.27-0.21,0.32-0.33c0.06-0.15,0.03-0.32-0.1-0.46
				C381.94,399.83,381.91,399.8,381.88,399.78z"/>
		</g>
		<g>
			<path class="stz22" d="M357.04,375.73c0-0.64-0.38-1.26-1.4-1.85c-0.96-0.55-1.97-0.78-3-0.81c-0.09,0-0.17,0-0.26,0
				c-2.63,0.01-5.37,1.23-7.7,1.56c-0.03,0-0.07,0.01-0.1,0.01c-3.27,0.45-4.98-0.57-6.6-0.73c-0.28-0.03-0.53-0.04-0.78-0.04
				c-0.36,0-0.71,0.02-1.1,0.04c-0.95,0.06-2.14,0.12-4.26-0.1c-1.12-0.12-1.96-0.17-2.59-0.18c-0.09,0-0.17,0-0.25,0
				c-1.21,0-1.59,0.19-1.91,0.37l-3.78,2.18v1.26l28.32,16.36l3.79-2.19c0.32-0.18,0.64-0.41,0.64-1.15c0-0.2,0-1.02,0-1.24
				c0-0.38-0.09-0.89-0.31-1.6c-0.11-0.36-0.18-0.66-0.22-0.94c0.05-0.33,0.12-0.61,0.12-0.89c0-0.15,0-1.04,0-1.28
				c0-0.14-0.02-0.28-0.07-0.44c-0.19-0.64-1.07-1.31-1.37-2.27c0.03-0.11,0.07-0.22,0.12-0.34c0.58-1.35,2.71-2.95,2.7-4.47
				C357.04,376.8,357.04,375.96,357.04,375.73z M351.22,379.36c-0.62,0.36-1.32,0.62-2.04,0.78c-1.44,0.32-2.92,0.24-3.85-0.3
				c-0.32-0.19-0.54-0.41-0.68-0.66c0.24-0.52,0.75-1.04,1.52-1.48c1.58-0.91,3.72-1.21,5.18-0.78c0.26,0.08,0.49,0.18,0.7,0.3
				c0.32,0.19,0.55,0.41,0.68,0.66C352.5,378.39,351.99,378.91,351.22,379.36z"/>
			<path id="XMLID_737_" class="stz15" d="M327.09,374.01l-3.78,2.18l28.32,16.36l3.79-2.19c0.48-0.28,0.98-0.66,0.33-2.74
				c-0.66-2.08,0.12-2.6-0.17-3.55c-0.28-0.95-2.08-1.95-1.24-3.87c0.83-1.92,4.77-4.33,1.31-6.33c-0.96-0.55-1.97-0.78-3-0.81
				c-0.09,0-0.17,0-0.26,0c-2.63,0.01-5.37,1.23-7.7,1.56c-0.03,0-0.07,0.01-0.1,0.01c-3.27,0.45-4.98-0.57-6.6-0.73
				c-0.28-0.03-0.53-0.04-0.78-0.04c-0.36,0-0.71,0.02-1.1,0.04c-0.95,0.06-2.14,0.12-4.26-0.1c-1.12-0.12-1.96-0.17-2.59-0.18
				c-0.09,0-0.17,0-0.25,0C327.79,373.65,327.4,373.83,327.09,374.01z M350.45,388.67c0.49-0.28,1.19-0.35,1.56-0.13
				c0.37,0.21,0.26,0.62-0.23,0.9c-0.49,0.28-1.19,0.34-1.56,0.13C349.85,389.35,349.96,388.95,350.45,388.67z M346.17,376.44
				c1.58-0.91,3.72-1.21,5.18-0.78c0.26,0.08,0.49,0.18,0.7,0.3c1.39,0.81,1.02,2.33-0.84,3.4c-0.62,0.36-1.32,0.62-2.04,0.78
				c-1.44,0.32-2.92,0.24-3.85-0.3C343.93,379.03,344.31,377.51,346.17,376.44z M328.6,376.05c0.49-0.28,1.19-0.34,1.56-0.13
				c0.37,0.21,0.27,0.62-0.22,0.9c-0.49,0.28-1.19,0.34-1.56,0.13C328.01,376.74,328.11,376.33,328.6,376.05z"/>
		</g>
		<g id="XMLID_704_">
			<path id="XMLID_707_" class="stz0" d="M289.18,449.19l-58.81-33.96c-0.28-0.16-0.5-0.55-0.5-0.87l0-0.65
				c0-0.32,0.23-0.71,0.5-0.87l77.7-44.86c0.28-0.16,0.73-0.16,1.01,0l58.81,33.95c0.28,0.16,0.5,0.55,0.5,0.87v0.66
				c0,0.32-0.23,0.71-0.5,0.87l-77.7,44.86C289.91,449.36,289.46,449.36,289.18,449.19z"/>
			<path id="XMLID_706_" class="stz27" d="M230.24,412.93c-0.15,0.16-0.11,0.36,0.12,0.49l58.81,33.95c0.14,0.08,0.32,0.12,0.5,0.12
				l0,1.82c-0.18,0-0.37-0.04-0.5-0.12l-58.81-33.95c-0.28-0.16-0.51-0.55-0.5-0.87l0-0.66
				C229.87,413.44,230.03,413.12,230.24,412.93z"/>
			<path id="XMLID_705_" class="stz1" d="M367.99,402.01c0.05,0.04,0.09,0.08,0.14,0.14c0.02,0.02,0.04,0.05,0.06,0.08
				c0.06,0.08,0.11,0.18,0.14,0.27c0.02,0.06,0.04,0.12,0.05,0.19c0.01,0.04,0.01,0.08,0.01,0.12l0,0.65c0,0.32-0.22,0.71-0.5,0.87
				l-77.7,44.86c-0.14,0.08-0.32,0.12-0.5,0.12l0-1.82c0.18,0,0.37-0.04,0.5-0.12l77.7-44.86
				C368.12,402.38,368.16,402.17,367.99,402.01z"/>
		</g>
		<g id="XMLID_675_">
			<g id="XMLID_1191_">
				<g id="XMLID_1198_">
					<polygon id="XMLID_1202_" class="stz27" points="303.18,378.07 312.62,383.45 303.18,388.9 293.73,383.53 					"/>
					<path id="XMLID_1199_" class="stz19" d="M303.18,378.52l-8.67,5l8.66,4.93l8.67-5L303.18,378.52z M293.4,383.72
						c-0.03-0.06-0.05-0.12-0.05-0.19c0-0.14,0.07-0.27,0.19-0.34l9.44-5.45c0.12-0.07,0.27-0.07,0.39,0l9.45,5.38
						c0.12,0.07,0.2,0.2,0.2,0.34c0,0.14-0.07,0.27-0.19,0.34l-9.45,5.45c-0.12,0.07-0.27,0.07-0.39,0l-9.45-5.38
						C293.48,383.83,293.43,383.78,293.4,383.72z"/>
				</g>
				<g id="XMLID_1194_">
					<path id="XMLID_1197_" class="stz1" d="M317.01,386.37l-0.68,0.39c-0.37,0.21-0.37,0.56,0,0.78l33.29,19.22
						c0.37,0.21,0.97,0.21,1.34,0l0.69-0.4c0.37-0.21,0.37-0.56,0-0.78l-33.29-19.22C317.99,386.15,317.39,386.15,317.01,386.37z"/>
					<path id="XMLID_1196_" class="stz1" d="M312.89,388.75l-0.68,0.39c-0.37,0.21-0.37,0.56,0,0.78l33.29,19.22
						c0.37,0.21,0.97,0.21,1.34,0l0.69-0.4c0.37-0.21,0.37-0.56,0-0.77l-33.29-19.22C313.86,388.54,313.26,388.54,312.89,388.75z"/>
					<path id="XMLID_1195_" class="stz1" d="M308.79,391.12l-0.68,0.39c-0.37,0.21-0.37,0.56,0,0.78l33.29,19.22
						c0.37,0.21,0.97,0.21,1.34,0l0.69-0.4c0.37-0.21,0.37-0.56,0-0.77l-33.29-19.22C309.76,390.9,309.16,390.9,308.79,391.12z"/>
				</g>
				<g id="XMLID_1192_">
					<polygon id="XMLID_1193_" class="stz3" points="300.77,385.06 301.5,382.12 303.69,381.94 303.28,383.61 315.33,382.62 
						315.02,383.88 					"/>
				</g>
			</g>
			<g id="XMLID_1180_">
				<g id="XMLID_1186_">
					<polygon id="XMLID_1190_" class="stz27" points="285.86,388.07 295.31,393.45 285.86,398.9 276.42,393.53 					"/>
					<path id="XMLID_1187_" class="stz19" d="M285.86,388.52l-8.67,5l8.66,4.93l8.67-5L285.86,388.52z M276.08,393.72
						c-0.03-0.06-0.05-0.12-0.05-0.19c0-0.14,0.07-0.27,0.19-0.34l9.44-5.45c0.12-0.07,0.27-0.07,0.39,0l9.45,5.38
						c0.12,0.07,0.2,0.2,0.2,0.34c0,0.14-0.07,0.27-0.19,0.34l-9.45,5.45c-0.12,0.07-0.27,0.07-0.39,0l-9.45-5.38
						C276.17,393.83,276.12,393.78,276.08,393.72z"/>
				</g>
				<g id="XMLID_1182_">
					<path id="XMLID_1185_" class="stz1" d="M299.7,396.37l-0.68,0.39c-0.37,0.21-0.37,0.56,0,0.78l33.29,19.22
						c0.37,0.21,0.97,0.21,1.34,0l0.69-0.4c0.37-0.21,0.37-0.56,0-0.77l-33.29-19.22C300.67,396.15,300.07,396.15,299.7,396.37z"/>
					<path id="XMLID_1184_" class="stz1" d="M295.57,398.75l-0.68,0.39c-0.37,0.21-0.37,0.56,0,0.78l33.29,19.22
						c0.37,0.21,0.97,0.21,1.34,0l0.69-0.4c0.37-0.21,0.37-0.56,0-0.78l-33.29-19.22C296.54,398.53,295.94,398.53,295.57,398.75z"/>
					<path id="XMLID_1183_" class="stz1" d="M291.47,401.12l-0.68,0.39c-0.37,0.21-0.37,0.56,0,0.78l33.29,19.22
						c0.37,0.21,0.97,0.21,1.34,0l0.69-0.4c0.37-0.21,0.37-0.56,0-0.77l-33.29-19.22C292.44,400.9,291.84,400.9,291.47,401.12z"/>
				</g>
				<polygon id="XMLID_1181_" class="stz3" points="283.46,395.06 284.19,392.12 286.38,391.94 285.96,393.61 298.02,392.62 
					297.7,393.88 				"/>
			</g>
			<g id="XMLID_1169_">
				<g id="XMLID_1175_">
					<path id="XMLID_1176_" class="stz19" d="M268.55,398.52l-8.67,5l8.66,4.93l8.67-5L268.55,398.52z M258.77,403.72
						c-0.03-0.06-0.05-0.12-0.05-0.19c0-0.14,0.07-0.27,0.19-0.34l9.45-5.45c0.12-0.07,0.27-0.07,0.39,0l9.45,5.38
						c0.12,0.07,0.2,0.2,0.2,0.34c0,0.14-0.07,0.27-0.19,0.34l-9.45,5.45c-0.12,0.07-0.27,0.07-0.39,0l-9.44-5.38
						C258.85,403.82,258.8,403.78,258.77,403.72z"/>
				</g>
				<g id="XMLID_1171_">
					<path id="XMLID_1174_" class="stz1" d="M282.38,406.36l-0.68,0.39c-0.37,0.21-0.37,0.56,0,0.78l33.29,19.22
						c0.37,0.21,0.97,0.21,1.34,0l0.69-0.4c0.37-0.21,0.37-0.56,0-0.78l-33.29-19.22C283.35,406.15,282.75,406.15,282.38,406.36z"/>
					<path id="XMLID_1173_" class="stz1" d="M278.26,408.75l-0.68,0.39c-0.37,0.21-0.37,0.56,0,0.78l33.29,19.22
						c0.37,0.21,0.97,0.21,1.34,0l0.69-0.4c0.37-0.21,0.37-0.56,0-0.78l-33.29-19.22C279.23,408.53,278.63,408.53,278.26,408.75z"/>
					<path id="XMLID_1172_" class="stz1" d="M274.15,411.11l-0.68,0.39c-0.37,0.21-0.37,0.56,0,0.78l33.29,19.22
						c0.37,0.21,0.97,0.21,1.34,0l0.69-0.4c0.37-0.21,0.37-0.56,0-0.78l-33.29-19.22C275.13,410.9,274.52,410.9,274.15,411.11z"/>
				</g>
				<polygon id="XMLID_681_" class="stz3" points="265.91,405.46 266.64,402.52 268.83,402.34 268.42,404.02 280.47,403.02 
					280.16,404.29 				"/>
			</g>
			<g id="XMLID_676_">
				<g id="XMLID_1164_">
					<path id="XMLID_1165_" class="stz19" d="M251.23,408.51l-8.67,5l8.66,4.93l8.67-5L251.23,408.51z M241.45,413.71
						c-0.03-0.06-0.05-0.12-0.05-0.19c0-0.14,0.07-0.27,0.19-0.34l9.44-5.45c0.12-0.07,0.27-0.07,0.39,0l9.45,5.38
						c0.12,0.07,0.2,0.2,0.2,0.34c0,0.14-0.07,0.27-0.19,0.34l-9.45,5.45c-0.12,0.07-0.27,0.07-0.39,0l-9.45-5.38
						C241.53,413.82,241.48,413.77,241.45,413.71z"/>
				</g>
				<g id="XMLID_677_">
					<path id="XMLID_1163_" class="stz1" d="M265.07,416.36l-0.68,0.39c-0.37,0.21-0.37,0.56,0,0.78l33.29,19.22
						c0.37,0.21,0.97,0.21,1.34,0l0.69-0.4c0.37-0.21,0.37-0.56,0-0.77l-33.29-19.22C266.04,416.15,265.44,416.15,265.07,416.36z"/>
					<path id="XMLID_679_" class="stz1" d="M260.94,418.74l-0.68,0.39c-0.37,0.21-0.37,0.56,0,0.78l33.29,19.22
						c0.37,0.21,0.97,0.21,1.34,0l0.69-0.4c0.37-0.21,0.37-0.56,0-0.78l-33.29-19.22C261.91,418.53,261.31,418.53,260.94,418.74z"/>
					<path id="XMLID_678_" class="stz1" d="M256.84,421.11l-0.68,0.39c-0.37,0.21-0.37,0.56,0,0.78l33.29,19.22
						c0.37,0.21,0.97,0.21,1.34,0l0.69-0.4c0.37-0.21,0.37-0.56,0-0.78l-33.29-19.22C257.81,420.9,257.21,420.9,256.84,421.11z"/>
				</g>
				<polygon id="XMLID_682_" class="stz3" points="248.37,415.87 249.1,412.93 251.29,412.75 250.87,414.42 262.93,413.43 
					262.61,414.69 				"/>
			</g>
		</g>
		<g>
			<path class="stz15" d="M346.52,391.3l-4.19-3.27c0,0-0.12-0.14-0.24-0.34c0.03-0.04,0.07-0.08,0.11-0.12l1.04-0.95l3.25-2.98
				c0,0,0.31-0.22,0.31-0.63c0-0.19,0-0.96,0-1.26c0-0.22-0.09-0.51-0.37-0.84c-0.32-0.38-0.57-0.97-0.68-1.61
				c0.1-0.55,0.34-1.08,0.77-1.48c1.06-0.97,1.45-2.15,1.21-3.23c0.31-1.41-0.42-2.86-2.1-3.74c-0.95-0.5-2.07-0.75-3.2-0.76
				c-0.04,0-0.09,0-0.14,0c-1.8,0.01-3.61,0.6-4.83,1.71c-0.67,0.62-1.89,1.01-3.12,1.19c-1.08,0.16-2.16,0.17-2.88,0.04
				c-0.25-0.05-0.47-0.07-0.66-0.07c-0.02,0-0.04,0-0.07,0c-0.98,0-1.33,0.42-1.33,0.42l-2.8,2.6l-1.04,0.95
				c-0.02,0.01-0.03,0.03-0.05,0.04c-0.77,0.66-1.95,0.51-2.36,0.34c-1.54-0.65-2.27-1.01-4.78-2.15c-0.71-0.32-1.5-0.48-2.3-0.48
				c-0.02,0-0.03,0-0.05,0c-1.15,0.01-2.33,0.31-3.38,0.85v1.26l34.65,20c0.41-0.56,0.66-1.13,0.66-1.73c0-0.21,0-1.05,0-1.27
				C347.95,393.03,347.54,392.21,346.52,391.3z M339.37,373.83c1.11-1.02,3.03-1.33,4.53-0.8c0.17,0.06,0.33,0.13,0.48,0.21
				c0.63,0.33,1.04,0.79,1.22,1.29c-0.12,0.34-0.34,0.67-0.67,0.97c-0.38,0.35-0.87,0.62-1.39,0.8c-1.18,0.4-2.58,0.35-3.64-0.21
				c-0.63-0.33-1.03-0.78-1.22-1.28C338.82,374.46,339.04,374.13,339.37,373.83z"/>
			<path id="XMLID_733_" class="stz19" d="M312.64,375.54l34.65,20c0.94-1.28,1.04-2.61-0.77-4.24l-4.19-3.27
				c0,0-0.91-1.01-0.13-1.72l1.04-0.95l3.25-2.98c0,0,0.74-0.52-0.07-1.47c-0.8-0.95-1.17-3.18,0.09-4.35
				c2.01-1.84,1.61-4.4-0.89-5.72c-0.95-0.5-2.07-0.75-3.2-0.76c-0.04,0-0.09,0-0.14,0c-1.8,0.01-3.61,0.6-4.83,1.71
				c-0.67,0.62-1.89,1.01-3.12,1.19c-1.08,0.16-2.16,0.17-2.88,0.04c-0.25-0.05-0.47-0.07-0.66-0.07c-0.02,0-0.04,0-0.07,0
				c-0.98,0-1.33,0.42-1.33,0.42l-2.8,2.6l-1.04,0.95c-0.02,0.01-0.03,0.03-0.05,0.04c-0.77,0.66-1.95,0.51-2.36,0.34
				c-1.54-0.65-2.27-1.01-4.78-2.15c-0.71-0.32-1.5-0.48-2.3-0.48c-0.02,0-0.03,0-0.05,0C314.87,374.7,313.69,375,312.64,375.54z
				 M343.9,371.77c0.17,0.06,0.33,0.13,0.48,0.21c1.54,0.81,1.79,2.38,0.55,3.51c-0.38,0.35-0.87,0.62-1.39,0.8
				c-1.18,0.4-2.58,0.35-3.64-0.21c-1.54-0.81-1.78-2.38-0.55-3.52C340.48,371.55,342.4,371.24,343.9,371.77z"/>
		</g>
	</g>
</g>
<g id="Pencil_1_">
	<g id="Pencil">
		<path id="XMLID_689_" class="stz3" d="M440.96,346.89l-0.96,0.58l-1.16,0.71l-41.61,25.24c0.34-0.83,0.02-2.45-0.85-4
			c-1.02-1.8-2.54-3.21-3.62-3.24l41.3-25.06l2.21-1.34C434.9,340.74,439.56,347.82,440.96,346.89z"/>
		<g>
			<path id="XMLID_686_" class="stz21" d="M436.14,339.88c0.61-0.4,1.71,0.74,2.77,2.18c1.42,1.92,2.59,4.47,1.78,5l-1.58,0.96
				l-0.57,0.33c0.81-0.53-0.37-3.08-1.78-5c-1.02-1.38-2.17-2.44-2.8-2.16l-0.01,0L436.14,339.88z"/>
			<path id="XMLID_685_" class="stz3" d="M434.43,340.9c1.41-0.92,6.07,6.2,4.65,7.12l-2.14,1.3c1.41-0.92-3.24-8.05-4.65-7.12
				L434.43,340.9z"/>
			<path id="XMLID_684_" class="stz21" d="M430.25,343.45l2.11-1.29c1.38-0.92,5.94,5.91,4.78,7.05c-0.02,0.02-0.05,0.04-0.07,0.06
				l-2.14,1.28C436.32,349.6,431.65,342.52,430.25,343.45z"/>
		</g>
		<g id="XMLID_680_">
			<polygon id="XMLID_885_" class="stz27" points="392.77,366.18 392.77,366.19 392.77,366.19 392.78,366.18 392.77,366.18 
				386.49,373.66 386.49,373.66 			"/>
			<polygon id="XMLID_889_" class="stz1" points="386.49,373.66 384.97,375.47 386.49,373.66 			"/>
			<path class="stz28" d="M396.14,368.06c-0.91-1.1-2.13-1.89-3.36-1.87l-0.01,0v0l0,0l-6.27,7.47c0.25,0.04,0.5,0.16,0.68,0.35
				c0.77,1,0.71,1.5,0.71,1.5l9.36-2.08C398.14,371.97,397.47,369.68,396.14,368.06z"/>
			<path class="stz15" d="M387.17,374.01c-0.18-0.25-0.55-0.37-0.68-0.35l-1.52,1.81h0c-0.14,0.17-0.1,0.39,0.04,0.51
				c0.08,0.07,0.2,0.11,0.33,0.08l2.55-0.57C387.88,375.5,387.99,375,387.17,374.01z"/>
		</g>
		<path class="stz20" d="M449.39,341.77l-8.42,5.12c-0.05,0.03-0.1,0.05-0.15,0.06c0.57-0.69-0.55-3.08-1.9-4.9
			c-0.98-1.33-2.13-2.35-2.77-2.18l8.78-5.35c1.92-1.39,4.54,2.24,5.1,4.86C450.25,340.37,450.1,341.25,449.39,341.77z"/>
		<path class="stz25" d="M449.39,341.77c0.71-0.52,0.86-1.4,0.64-2.39c-0.03-0.12-0.06-0.25-0.1-0.38l-52.44,31.67l-12.48,5.31
			c0.08,0.07,0.2,0.11,0.33,0.08l2.55-0.57l9.36-2.08c0,0,0-0.01,0-0.01c0,0,0,0.01,0,0.01L449.39,341.77z"/>
	</g>
</g>
<g id="Character">
	<g id="Clock_2_">
		<g id="XMLID_577_">
			<path id="XMLID_578_" class="stz19" d="M76.84,365.22l-12.92,25.21c-1.74,3.26-0.5,7.31,2.76,9.05c3.26,1.74,7.31,0.5,9.05-2.76
				l13-25.35c1.26-2.43-0.38-5.77-3.66-7.47C81.77,362.2,78.09,362.79,76.84,365.22z"/>
		</g>
		<g id="XMLID_575_">
			<path id="XMLID_576_" class="stz19" d="M177.79,312.45L203,325.37c3.26,1.74,7.31,0.5,9.05-2.76c1.74-3.26,0.5-7.31-2.76-9.05
				l-25.35-13c-2.43-1.26-5.78,0.38-7.47,3.66C174.77,307.52,175.36,311.2,177.79,312.45z"/>
		</g>
		<path id="XMLID_574_" class="stz3" d="M199.57,200.62L199.57,200.62l-0.12-0.07c0,0-0.01,0-0.01-0.01l-45.56-23.37
			c-0.01,0-0.02-0.01-0.03-0.01l-0.17-0.09l0,0.01c-13.47-6.83-31.47-4.82-50.85,7.66c-38.93,25.07-68.67,82.89-66.42,129.14
			c1.12,23.05,9.98,38.88,23.4,45.85l0,0l0.12,0.06c0,0,0.01,0.01,0.01,0.01l45.56,23.38c0,0,0.01,0,0.01,0.01l0.14,0.07l0-0.01
			c13.48,6.85,31.49,4.85,50.89-7.64c38.93-25.07,68.67-82.89,66.42-129.14C221.85,223.42,213,207.6,199.57,200.62z"/>
		<path id="XMLID_573_" class="stz10" d="M104.52,382.65L59.95,359.8c-0.02,0-0.02,0-0.02,0l-0.13-0.08
			c-13.42-6.99-22.27-22.82-23.39-45.84c-1-20.63,4.37-43.54,14.05-64.82l45.57,23.37c-9.7,21.27-15.06,44.19-14.05,64.82
			C83.08,359.82,91.58,375.45,104.52,382.65z"/>
		
			<ellipse id="XMLID_572_" transform="matrix(0.4574 -0.8893 0.8893 0.4574 -176.8117 293.9669)" class="stz26" cx="152.48" cy="291.87" rx="102.69" ry="59.29"/>
		<path id="XMLID_571_" class="stz27" d="M123.92,372.39c-22.95,1.11-26.69-24.69-27.23-35.84c-1.98-40.79,25.35-93.94,59.69-116.05
			c8.74-5.63,17.26-8.79,24.65-9.15c22.95-1.11,26.69,24.69,27.23,35.84c1.98,40.79-25.35,93.94-59.69,116.05
			C139.84,368.87,131.31,372.03,123.92,372.39L123.92,372.39z"/>
		<g id="XMLID_515_">
			<g id="XMLID_569_">
				<path id="XMLID_570_" class="stz3" d="M142.89,345.76c-0.11,0.01-0.23-0.01-0.35-0.04c-0.56-0.16-0.88-0.75-0.71-1.31
					l13.85-46.68c0.17-0.56,0.75-0.88,1.31-0.71c0.56,0.16,0.88,0.75,0.71,1.31L143.85,345
					C143.72,345.44,143.32,345.73,142.89,345.76z"/>
			</g>
			<g id="XMLID_567_">
				<path id="XMLID_568_" class="stz15" d="M182.02,285.31c-0.22,0.36-0.51,0.68-0.87,0.93l-23.18,16.32l-37.3-22.81
					c-1.49-0.91-1.95-2.85-1.04-4.34c0.91-1.49,2.85-1.95,4.34-1.04l33.77,20.64l19.79-13.93c1.42-1,3.39-0.66,4.4,0.76
					C182.65,282.91,182.65,284.27,182.02,285.31z"/>
			</g>
			<path id="XMLID_566_" class="stz3" d="M156.19,287.87c4.58-2.95,8.51-0.93,8.77,4.51c0.26,5.44-3.23,12.24-7.81,15.19
				c-4.58,2.95-8.51,0.93-8.77-4.51C148.12,297.62,151.61,290.82,156.19,287.87z"/>
		</g>
	</g>
	<g id="Character_4_">
		<g>
			<path id="XMLID_262_" class="stz29" d="M180.07,127.8c1.13-1.12,3.31-1.65,4.9-1.54c1.05,0.07,2.13,0.1,2.74,0.03
				c1.18-0.14,2.39-0.74,2.88-1.82c0.12-0.27,0.2-0.57,0.33-0.84c0.21-0.43,0.55-0.79,0.78-1.21c0.33-0.6,0.42-1.32,0.25-1.98
				c-0.07-0.26-0.17-0.52-0.11-0.78c0.05-0.22,0.22-0.4,0.35-0.59c0.6-0.81,0.71-1.96,0.26-2.87c-0.12-0.24-0.27-0.47-0.34-0.73
				c-0.13-0.55,0.17-1.1,0.19-1.66c0.1-2.51-4.06-2.14-5.55-1.81c-0.43,0.1-2.52,0.52-3.46,0.75c0.15-1.12,0.22-2.2-0.05-4.14
				c-0.36-2.65-2.89-3.91-3.18-2.35c-0.17,0.89,0.01,3.39-1.07,5.48c-0.48,0.94-1.1,1.45-1.54,3.04c-0.39,1.41-0.86,2.4-4,5.39
				c-2.93,2.79-13.97,11.67-13.97,11.67s-11.6-20.18-14.46-25.53c-5.82-10.87-16.08-8.58-16.08-8.58l2.19,14.43
				c0,0,18.5,29.35,21.67,33.39c3.09,3.94,7.41,2.8,9.69,0.76C165.77,143.37,174.32,133.48,180.07,127.8z"/>
			<path class="stz3" d="M127.39,97.9c0,0,8.78-2.1,13.08,1.97c4.02,3.8,5.62,7.02,10.74,16.72c4.69,8.9,8.05,14.02,8.05,14.02
				s-4.07,8.96-11.46,8.45l-11.56-16.85L127.39,97.9z"/>
			<path class="stz11" d="M127.39,97.9c0,0,8.78-2.1,13.08,1.97c4.02,3.8,5.62,7.02,10.74,16.72c4.69,8.9,8.05,14.02,8.05,14.02
				s-4.07,8.96-11.46,8.45l-11.56-16.85L127.39,97.9z"/>
			<path class="stz30" d="M184.36,113.63c-1.18,0.35-1.94,1.16-2.27,3.24c-0.2,1.23-1.13,3.36-2.62,4.02c0,0,1.13,0.1,1.88-0.44
				c0.75-0.53,0.94-0.58,1.22-0.14c0.28,0.43,0.83,0.7,0.83,0.7s-0.94,0.7-0.49,1.87c0.45,1.18,3.33,1.72,5.91,0.93
				c0,0-4.05,0.5-4.72-0.88c-0.67-1.38,1.64-2.53,3.22-2.67c0,0-3.86,0.21-4.21-1.1c-0.35-1.31,1.35-1.96,3.63-2.12
				c0,0-3.16,0-3.5-1.13C182.82,114.53,183.88,113.97,184.36,113.63z"/>
		</g>
		<g id="XMLID_665_">
			<path class="stz3" d="M142.12,126.47c0,0-1.32,7.26-0.11,13.39c1.19,6.05,2.1,11.34,2.1,11.34s-3.71,4.26-10.73,3.28
				c-7.64-1.06-5.31-19.19-0.93-23.64C136.83,126.39,142.12,126.47,142.12,126.47z"/>
			<path class="stz12" d="M142.12,126.47c0,0-1.32,7.26-0.11,13.39c1.19,6.05,2.1,11.34,2.1,11.34s-3.71,4.26-10.73,3.28
				c-7.64-1.06-5.31-19.19-0.93-23.64C136.83,126.39,142.12,126.47,142.12,126.47z"/>
		</g>
		<g>
			<g>
				<path class="stz22" d="M141.34,272.65l0.96-0.16c0-3.03-0.23-5.8,0.49-7.24l-1.45-3.69V272.65z"/>
				<path class="stz22" d="M138.69,258.91c0.26,2.07,1.48,4.18,1.65,8.27c0.17,4.09,0,5.23,0,5.23l1,0.25v-11.09L138.69,258.91z"/>
				<path class="stz22" d="M162.53,274.95c0,0-0.12,1.12-0.63,1.53c-0.51,0.41-2.15,1.78-7.48,1.58c-5.34-0.21-7.23-1.48-9.09-3.11
					c-1.86-1.62-2.43-5.98-2.74-8.03c-0.61-3.98-2.31-6.03-3.9-8.01c-0.45-0.97-0.2-2.07-0.2-2.07s4.4-0.34,6.41,4.5
					c2.01,4.84,3.62,10.48,7.96,11.74C157.19,274.36,162.53,274.95,162.53,274.95z"/>
				<path class="stz29" d="M159.73,270.37c1.66,1.37,2.9,1.97,2.79,3.28c-0.11,1.32-1.49,1.93-2.58,2.28
					c-2.6,0.84-5.57,0.57-8.2,0.16c-2.7-0.43-5.59-1.59-6.75-4.06c-0.34-0.72-0.51-1.51-0.67-2.29c-0.53-2.56-1.03-5.18-2.16-7.56
					c-0.49-1.03-0.85-2-1.52-2.92c-0.71-0.98-1.57-2.04-1.72-3.28c-0.13-1.03,0.64-2.51,1.65-4.1c0.01-0.01,0.01-0.02,0.02-0.03
					c1.14-1.79,1.35-2.7,1.18-4.82l-0.44-7.53l11.9,2.59c0,0-0.95,6.56-1.03,8.27c-0.08,1.71,0.12,4.86,0.77,7.5
					c0.72,2.94,1.8,5.79,3.21,8.47c0.35,0.68,0.74,1.35,1.26,1.91C158.09,268.92,158.58,269.42,159.73,270.37z"/>
				<path class="stz15" d="M138.89,253.8c0.73-1.35,1.74-2.18,2.45-3.35c0.45,0.54,1.1,2.15,1.45,3.21
					c0.35,1.06,1.31,6.27,2.68,10.41c1.03,3.1,2.69,4.73,4.94,5.53c1.4,0.5,2.93,0.63,4.4,0.4c0.01,0,0.01,0,0.02,0
					c2.76-0.44,2.07-2.42,2.07-2.42c0.66,0.87,3.67,3.13,5.34,4.24c1.05,0.7,0.94,2.24,0.28,3.13c-0.76,0.68-3.35,2.35-9.99,1.53
					c-5.89-0.73-7.32-3.42-7.91-4.63c-0.44-0.93-0.85-2.92-1.33-5.49c-0.38-2.05-1.1-4.03-2.18-5.81c-0.14-0.22-0.27-0.43-0.4-0.61
					l0,0c0,0,0,0,0,0c-0.41-0.57-0.89-1.21-1.43-1.84c-0.42-0.49-0.75-0.71-0.88-1.19C138.27,255.78,138.26,254.98,138.89,253.8z"/>
			</g>
			<g>
				<path class="stz22" d="M161.63,263.79l0.96-0.13c0.09-3.03-0.06-5.8,0.7-7.22l-1.34-3.73L161.63,263.79z"/>
				<path class="stz22" d="M159.37,249.98c0.2,2.08,1.36,4.22,1.41,8.31c0.05,4.09-0.15,5.23-0.15,5.23l1,0.27l0.32-11.08
					L159.37,249.98z"/>
				<path class="stz22" d="M182.74,266.7c0,0-0.15,1.12-0.68,1.51c-0.53,0.39-2.19,1.65-7.52,1.29c-5.33-0.36-7.19-1.62-8.99-3.3
					c-1.81-1.68-2.25-6.05-2.51-8.11c-0.49-3.99-2.14-6.1-3.67-8.12c-0.43-0.99-0.14-2.07-0.14-2.07s4.41-0.21,6.27,4.69
					c1.87,4.9,3.31,10.58,7.61,11.97C177.42,265.95,182.74,266.7,182.74,266.7z"/>
				<path class="stz29" d="M180.07,262.04c1.62,1.42,2.85,2.06,2.69,3.36c-0.15,1.31-1.54,1.88-2.65,2.2
					c-2.62,0.76-5.59,0.41-8.2-0.08c-2.69-0.5-5.54-1.75-6.63-4.26c-0.32-0.73-0.47-1.52-0.61-2.31c-0.46-2.58-0.88-5.21-1.94-7.62
					c-0.46-1.04-0.79-2.02-1.43-2.96c-0.68-1-1.51-2.09-1.63-3.33c-0.1-1.04,0.71-2.49,1.77-4.05c0.01-0.01,0.02-0.02,0.02-0.03
					c1.19-1.76,1.57-2.46,1.57-5.65l-0.38-6.67l11.82,2.93c0,0-0.88,4.38-1.27,7.74c-0.31,2.73-0.12,5.35,0.46,8.01
					c0.64,2.96,1.64,5.84,2.96,8.56c0.33,0.69,0.7,1.37,1.21,1.94C178.48,260.55,178.95,261.06,180.07,262.04z"/>
				<path class="stz15" d="M159.88,244.55c0.68-1.01,1.41-1.74,2.37-2.87c0.44,0.56,0.93,1.58,1.41,2.95
					c0.48,1.36,1.09,6.52,2.34,10.7c0.94,3.13,2.55,4.8,4.77,5.67c1.39,0.54,2.91,0.72,4.39,0.53c0.01,0,0.01,0,0.02,0
					c2.77-0.36,2.14-2.36,2.14-2.36c0.63,0.89,3.58,3.24,5.21,4.39c1.03,0.73,0.87,2.26,0.19,3.14c-0.78,0.66-3.42,2.25-10.03,1.24
					c-5.87-0.9-7.22-3.63-7.77-4.86c-0.42-0.94-0.77-2.94-1.17-5.53c-0.32-2.06-0.98-4.06-2.01-5.87c-0.13-0.23-0.26-0.44-0.38-0.62
					l0,0c0,0,0,0,0,0c-0.39-0.59-0.85-1.23-1.38-1.88c-0.41-0.5-0.73-0.74-0.84-1.21C159.05,246.83,159.13,245.67,159.88,244.55z"/>
			</g>
			<path class="stz15" d="M110.02,166.77c1.06-4.34,2.46-7.16,3.66-9.48c11.33,5.38,15.67,3.81,27.08,0.15
				c5.33,5.87,12.95,8.88,20.23,12.61c7.28,3.73,15.54,7.6,20.1,12.3c2.06,2.12,1.44,7.29,0.4,13.93c-1.41,9-7.02,37.44-7.02,37.44
				c-7.75,2.76-11.75-1.82-11.75-1.82s-1.22-12.01-2.2-21.68c-0.99-9.71,2.51-14.27,2.51-14.27s-23.27-8.82-32.07-10.64
				C116.27,182.28,108.09,180.41,110.02,166.77z"/>
			<path class="stz19" d="M93.09,171.94c1.02-6.39,7.48-19.82,8.68-22.15c11.33,5.38,27.58,11.32,38.99,7.66
				c-1.73,11.98-8.4,19.33-8.4,19.33c17.22,12.58,20.74,16.99,24.94,22.19c1.17,1.44,2.29,4.43,1.61,8.58
				c-1.48,8.99-6.05,37.09-6.05,37.09c-6.82,2.34-11.64-0.98-11.64-0.98s-1.41-10.65-2.4-20.32c-0.99-9.71,0.06-14.44,0.06-14.44
				s-23.24-10.35-32.03-14.39C92.1,187.72,92.07,178.33,93.09,171.94z"/>
		</g>
		<g>
			<g id="XMLID_663_">
				<g id="XMLID_664_">
					<path class="stz3" d="M113.72,98.3c0,0-12.72,1.46-14.25,2.15c11.94,8.4,2.27,27.08,2.27,27.08l4.58,14.33
						c-1.9,5.04-8.06,11.45-9.94,19.36c16.57,9.96,37.57,8.1,44.39-3.79c-0.35-5.79-0.3-14.56-0.83-18.24
						c0.15-2.7-0.08-5.82,0.23-10.24c5.63-5.76,4.01-12.22,2.7-14.82c-4.74-9.4-12.88-16.24-15.48-16.24L113.72,98.3z"/>
				</g>
			</g>
			<g id="XMLID_662_">
				<path class="stz3" d="M109.8,98.69c0,0-8,0.64-10.34,1.76c-2.34,1.12-6.22,7.83-2.74,17.6c3.48,9.77,6.63,21.23,6.28,23.54
					s-6.62,15.7-6.62,15.7c1.38,2.16,3.37,3.75,6.04,4.24l3.82-11.33L105,162.5c0,0,7.9,1.63,13.37,1.16
					C118.37,163.66,118.49,123.97,109.8,98.69z"/>
			</g>
			<g id="XMLID_645_" class="stz12">
				<path d="M109.8,98.69c0,0-8,0.64-10.34,1.76c-2.34,1.12-6.22,7.83-2.74,17.6c3.48,9.77,6.63,21.23,6.28,23.54
					s-6.62,15.7-6.62,15.7c1.05,1.89,3.37,3.75,6.04,4.24l3.82-11.33L105,162.5c0,0,7.9,1.63,13.37,1.16
					C118.37,163.66,118.49,123.97,109.8,98.69z"/>
			</g>
		</g>
		<g id="XMLID_627_">
			<g id="XMLID_643_">
				<path class="stz22" d="M124.15,51.88c-11.81-0.82-23.77,8.64-21.29,24.43c1.69,10.74,7.94,14.48,10.02,14.54l12.09,0.49
					c2.79-8.5,16.27-9.55,19.17-22.1C147.04,56.72,135.96,52.7,124.15,51.88z"/>
				<path class="stz22" d="M101.33,57.1c-4.71,1.51-6.99,5.58-8.32,10.09c-0.98,3.33-1.54,6.81-2.94,9.99
					c-0.46,1.04-1.01,2.06-1.79,2.89c-1.01,1.09-2.34,1.81-3.58,2.62c-1.24,0.82-2.45,1.81-3.01,3.18
					c-0.76,1.85,1.03,3.61,2.52,4.57c2.82,1.82,6.42,1.95,9.53,0.87c3.11-1.08,5.38-3.5,6.44-6.62c0.99-2.9,0.94-5.71,0.94-8.71
					c-0.01-3.14,0.12-6.36,1.36-9.24c0.45-1.06,1.07-2.07,1.99-2.77c0.86-0.66,1.92-0.98,2.93-1.4c1-0.41,2.02-0.96,2.58-1.89
					c1.52-2.53-2.15-3.8-4.02-4.04C104.4,56.46,102.82,56.62,101.33,57.1z"/>
				<path id="XMLID_644_" class="stz22" d="M109.06,57.9l-5.12-2.37c0.62-1.46,2.27-2.12,3.68-1.47
					C109.04,54.72,109.68,56.43,109.06,57.9z"/>
				<path id="XMLID_650_" class="stz22" d="M109.07,57.19l-1.11-5.53c1.55-0.37,3.05,0.58,3.36,2.1
					C111.62,55.3,110.62,56.83,109.07,57.19z"/>
			</g>
			<g id="XMLID_628_">
				<g id="XMLID_641_">
					<path id="XMLID_642_" class="stz29" d="M135.81,62.37c3.9,2.19,5.41,7.36,4.31,19.25c-0.93,10.07-4.38,12.34-6.07,12.95
						c-1.69,0.6-4.83-0.05-7.87-0.78l-0.35,4.18c0,0,4.95,6.59,4.49,9.35c-0.46,2.76-7.49,3.53-11.29,0.54
						c-3.79-2.99-6.8-8.44-6.8-8.44l1.05-13.99c0,0-1.93,1.63-4.82-1.27c-2.38-2.39-2.98-6.19-0.86-8.06
						c2.12-1.87,5.73-1.07,6.93,1.89c0,0,5.67-0.21,12.25-3.76C133.22,70.75,135.24,66.47,135.81,62.37z"/>
				</g>
				<g id="XMLID_639_">
					<path id="XMLID_640_" class="stz22" d="M127.79,77.66c-0.01,0.73-0.59,1.31-1.3,1.29c-0.7-0.02-1.26-0.62-1.25-1.35
						c0.01-0.73,0.59-1.31,1.3-1.29C127.25,76.33,127.81,76.93,127.79,77.66z"/>
				</g>
				<g id="XMLID_637_">
					<path id="XMLID_638_" class="stz30" d="M128.78,86.88l2.88,1.14c-0.3,0.83-1.19,1.24-1.99,0.92
						C128.87,88.63,128.48,87.71,128.78,86.88z"/>
				</g>
				<g id="XMLID_635_">
					<path id="XMLID_636_" class="stz22" d="M139.14,75.13l-2.83-1.33c0.34-0.8,1.25-1.16,2.03-0.79
						C139.12,73.38,139.48,74.33,139.14,75.13z"/>
				</g>
				<g id="XMLID_633_">
					<path id="XMLID_634_" class="stz22" d="M137.79,77.66c-0.01,0.73-0.59,1.31-1.3,1.29c-0.7-0.02-1.26-0.62-1.25-1.35
						c0.01-0.73,0.59-1.31,1.3-1.29C137.24,76.33,137.8,76.93,137.79,77.66z"/>
				</g>
				<g id="XMLID_631_">
					<polygon id="XMLID_632_" class="stz30" points="131.79,76.31 131.14,84.58 135.24,83.61 					"/>
				</g>
				<g id="XMLID_629_">
					<path id="XMLID_630_" class="stz30" d="M126.18,93.79c-3.22-0.65-9.76-3.03-10.62-5.74c0,0,0.23,1.68,2.11,3.53
						c1.88,1.85,8.37,4.23,8.37,4.23L126.18,93.79z"/>
				</g>
			</g>
		</g>
		<g>
			<g>
				<path class="stz3" d="M112.35,97.9l-5.5,1.09c0,0,2.54,11.02,9.33,12.98c6.79,1.95,9.33-2.2,9.33-2.2
					C119.42,107.23,115.06,103.25,112.35,97.9z"/>
				<path class="stz31" d="M112.35,97.9l-5.5,1.09c0,0,2.54,11.02,9.33,12.98c6.79,1.95,9.33-2.2,9.33-2.2
					C119.42,107.23,115.06,103.25,112.35,97.9z"/>
			</g>
			<g>
				<path class="stz3" d="M125.83,97.96c0,0,3.8,8.62-0.31,11.81c0,0,5.44,1.62,6.89-0.68c1.45-2.3-1.2-8.85-3.47-11.37L125.83,97.96
					z"/>
				<path class="stz31" d="M125.83,97.96c0,0,3.8,8.62-0.31,11.81c0,0,5.44,1.62,6.89-0.68c1.45-2.3-1.2-8.85-3.47-11.37
					L125.83,97.96z"/>
			</g>
		</g>
		<g id="XMLID_581_">
			<g id="XMLID_623_">
				<path id="XMLID_624_" class="stz21" d="M103.53,189.12l-0.01,0.95c-0.01,0.96,0.49,1.86,1.31,2.36l25.5,15.17
					c0.41,0.25,0.88,0.37,1.35,0.38c0.46,0.01,0.93-0.1,1.35-0.34l47.57-26.55c0.84-0.47,1.37-1.35,1.38-2.32l0.01-0.66
					l-50.29,28.07L103.53,189.12z"/>
			</g>
			<g id="XMLID_621_">
				<path id="XMLID_622_" class="stz27" d="M181.99,178.11l-27.74-16.55c-0.49-0.29-1.11-0.3-1.61-0.02l-48.93,27.32
					c-0.24,0.13-0.25,0.48-0.01,0.62l28,16.71L181.99,178.11z"/>
			</g>
			<g id="XMLID_618_">
				<polygon id="XMLID_619_" class="stz1" points="131.47,203.8 116.51,194.88 161,170.05 176.04,178.93 				"/>
			</g>
			<g id="XMLID_616_">
				<polygon id="XMLID_617_" class="stz1" points="124.41,179.49 124.69,179.66 132.02,184.03 145.28,176.63 145.56,176.48 
					137.95,171.94 				"/>
			</g>
			<g id="XMLID_614_">
				<polygon id="XMLID_615_" class="stz32" points="124.69,179.66 132.02,184.03 145.28,176.63 137.94,172.25 				"/>
			</g>
			<g id="XMLID_604_">
				<path id="XMLID_609_" class="stz21" d="M131.7,206.18l-0.03,1.79c0.46,0.01,0.93-0.1,1.35-0.34l47.57-26.55
					c0.84-0.47,1.37-1.35,1.38-2.32l0.01-0.66L131.7,206.18z"/>
			</g>
			<g id="XMLID_590_" class="stz12">
				<path id="XMLID_591_" class="stz1" d="M131.7,206.18l-0.03,1.79c0.46,0.01,0.93-0.1,1.35-0.34l47.57-26.55
					c0.84-0.47,1.37-1.35,1.38-2.32l0.01-0.66L131.7,206.18z"/>
			</g>
			<g id="XMLID_588_">
				<path id="XMLID_589_" class="stz3" d="M132.45,206.59c0.89,0.36,1.9,0.31,2.76-0.17l47.36-26.44c0.83-0.46,1.41-1.27,1.59-2.21
					l5.59-30.59c0.03-0.17,0.05-0.35,0.05-0.52c0.01-0.85-0.32-1.68-0.91-2.28l-49.22,27.48c-0.61,0.35-1.04,0.94-1.17,1.64
					L132.45,206.59z"/>
			</g>
			<g id="XMLID_586_" class="stz33">
				<path id="XMLID_587_" class="stz17" d="M132.45,206.59c0.89,0.36,1.9,0.31,2.76-0.17l47.36-26.44c0.83-0.46,1.41-1.27,1.59-2.21
					l5.59-30.59c0.03-0.17,0.05-0.35,0.05-0.52c0.01-0.85-0.32-1.68-0.91-2.28l-49.22,27.48c-0.61,0.35-1.04,0.94-1.17,1.64
					L132.45,206.59z"/>
			</g>
			<g id="XMLID_584_">
				<path id="XMLID_585_" class="stz27" d="M131.7,206.18l0.32,0.19c0.14,0.08,0.29,0.16,0.44,0.22l6.04-33.11
					c0.13-0.69,0.56-1.29,1.17-1.64l49.22-27.48c-0.19-0.19-0.41-0.36-0.64-0.51l-49.32,27.53c-0.61,0.35-1.04,0.94-1.17,1.64
					L131.7,206.18z"/>
			</g>
			<g id="XMLID_582_">
				<path id="XMLID_583_" class="stz3" d="M159.32,178.67c0.37-2.05,2.53-4.74,4.82-6.02c2.29-1.28,3.84-0.65,3.47,1.39
					c-0.37,2.05-2.53,4.74-4.82,6.02C160.49,181.34,158.94,180.71,159.32,178.67z"/>
			</g>
		</g>
		<g>
			<g id="XMLID_579_">
				<path id="XMLID_580_" class="stz29" d="M107.74,184.18c-2.58-1.78-19.07-13.76-25.65-18.87c-6.86-5.31-6.43-7.02-5.6-10.86
					c1.64-7.57,10.1-31.82,12.96-38.88c3.2-7.9,4.2-13.26,9.85-14.28c4.3,3.39,7.56,11.43,2.68,25.62l-9.25,27.63
					c0,0,7.07,8.37,11.7,12.71c4.64,4.34,8.75,8.4,12.09,9.39c2.99,0.88,6.45,1.48,7.5,2.44c1.05,0.97,6.1,6.59,7.08,8.21
					c0.98,1.62,3.32,4.9,0,5.95c-3.03,0.96-5.5-0.34-7.96-2.03c-1.58-1.09-3.29-2.71-3.29-2.71s-3.63,0.56-7.11-1.41
					C110.87,186.03,107.74,184.18,107.74,184.18z"/>
			</g>
			<g id="XMLID_661_">
				<path class="stz3" d="M99.47,100.45c-5.02,0.85-6.45,4.32-10.16,14.02c-2.61,6.81-11.94,36.52-11.94,36.52s5.21,6.05,15.35,3.55
					l11.7-31.68C104.42,122.86,108.1,107.84,99.47,100.45z"/>
			</g>
			<g id="XMLID_649_" class="stz11">
				<path d="M99.47,100.45c-5.02,0.85-6.45,4.32-10.16,14.02c-2.61,6.81-11.94,36.52-11.94,36.52s5.21,6.05,15.35,3.55l11.7-31.68
					C104.42,122.86,108.1,107.84,99.47,100.45z"/>
			</g>
		</g>
	</g>
</g>
</svg>
