<?xml version="1.0" encoding="utf-8"?>
<!-- Generator: Adobe Illustrator 25.0.0, SVG Export Plug-In . SVG Version: 6.00 Build 0)  -->
<svg version="1.1" xmlns="http://www.w3.org/2000/svg" xmlns:xlink="http://www.w3.org/1999/xlink" x="0px" y="0px"
	 viewBox="0 0 500 500" style="enable-background:new 0 0 500 500;" xml:space="preserve">
<style type="text/css">
	.st0{fill:#F5F5F5;}
	.st1{fill:#E0E0E0;}
	.st2{fill:#EBEBEB;}
	.st3{fill:#27DEBF;}
	.st4{opacity:0.3;}
	.st5{fill:#FFFFFF;}
	.st6{opacity:0.15;}
	.st7{opacity:0.65;}
	.st8{opacity:0.1;}
	.st9{opacity:0.75;}
	.st10{fill:#FAFAFA;}
	.st11{fill:#455A64;}
	.st12{opacity:0.7;fill:#FFFFFF;}
	.st13{fill:#263238;}
	.st14{fill:#37474F;}
	.st15{opacity:0.9;}
	.st16{opacity:0.8;}
	.st17{opacity:0.95;}
	.st18{opacity:0.7;}
	.st19{opacity:0.6;}
	.st20{opacity:0.2;}
	.st21{opacity:0.35;}
	.st22{opacity:0.8;fill:#FFFFFF;}
	.st23{fill:#B16668;}
	.st24{opacity:0.5;fill:#FFFFFF;}
	.st25{fill:#9A4A4D;}
</style>
<g id="Floor">
	<ellipse id="Floor_1_" class="st0" cx="250" cy="352.38" rx="239.65" ry="134.69"/>
</g>
<g id="Shadows">
	<path id="Shadow_3_" class="st1" d="M70.48,403.52l-43.28-24.86c-2.39-1.38-2.4-3.61-0.01-5l260.79-151.4
		c2.39-1.39,6.19-1.27,8.49,0.25l40.93,27.1c2.3,1.52,2.23,3.88-0.16,5.26L79.15,403.51C76.75,404.89,72.87,404.89,70.48,403.52z"/>
	<path id="Shadow_5_" class="st1" d="M435.88,417.98c-18.87,10.9-49.47,10.9-68.34,0c-18.87-10.9-18.87-28.56,0-39.46
		c18.87-10.9,49.47-10.9,68.34,0C454.75,389.42,454.75,407.09,435.88,417.98z"/>
</g>
<g id="Clouds">
	<g id="Clouds_1_">
		<g id="XMLID_1335_">
			<path id="XMLID_1336_" class="st2" d="M98.29,64.84l-6.82,3.94c0.03-0.3,0.06-0.61,0.06-0.9V65.9c0-3.51-2.47-4.94-5.51-3.18
				c-1.23,0.71-2.37,1.84-3.29,3.16c-0.5-4.42-3.97-6.07-8.18-3.63c-4.55,2.63-8.25,9.02-8.25,14.28v2.95c0,1.36,0.25,2.51,0.7,3.42
				l-5.66,3.27c-1.69,0.98-3.06,3.35-3.06,5.3c0,1.95,1.37,2.74,3.06,1.77L98.29,71.9c1.69-0.97,3.06-3.35,3.06-5.3
				C101.35,64.65,99.98,63.86,98.29,64.84z"/>
		</g>
		<g id="XMLID_1242_">
			<path id="XMLID_1334_" class="st2" d="M144.34,73.69l-3.76,1.45v-8.28c0-6.57-5.24-8.14-10.93-4.86l0,0
				c-5.69,3.28-10.3,11.27-10.3,17.84v1.2c-1.29-0.51-2.96-0.32-4.78,0.74l0,0c-4.09,2.36-7.41,8.11-7.41,12.84v0.55l-5.24,3.03
				c-2.7,1.56-4.88,5.34-4.88,8.45c0,3.11,2.19,4.37,4.88,2.82l42.42-24.49c2.7-1.56,4.88-5.34,4.88-8.45
				C149.22,73.39,147.04,72.13,144.34,73.69z"/>
		</g>
	</g>
</g>
<g id="Plants">
	<g id="Plants_11_">
		<g id="XMLID_1251_">
			<g id="XMLID_1006_">
				<path id="XMLID_1271_" class="st3" d="M422.27,367.2c0,0,1.35-11.84,7.24-21.03c5.89-9.19,13.99-14.93,21.54-15.52
					c7.55-0.6,13.65,6.35,5.57,11.12c-8.08,4.77-22.44,9.64-29.04,27.49L422.27,367.2z"/>
				<path id="XMLID_1007_" class="st4" d="M422.27,367.2c0,0,1.35-11.84,7.24-21.03c5.89-9.19,13.99-14.93,21.54-15.52
					c7.55-0.6,13.65,6.35,5.57,11.12c-8.08,4.77-22.44,9.64-29.04,27.49L422.27,367.2z"/>
			</g>
			<g id="XMLID_1252_">
				<path id="XMLID_1005_" class="st5" d="M424.48,364.12c-0.03,0-0.05-0.01-0.08-0.02c-0.21-0.08-0.31-0.32-0.22-0.53
					c7.97-19.63,23.14-27.82,30.05-29.42c0.22-0.05,0.43,0.09,0.48,0.3c0.05,0.22-0.09,0.43-0.3,0.48
					c-6.77,1.56-21.64,9.61-29.49,28.93C424.86,364.06,424.67,364.16,424.48,364.12z"/>
			</g>
		</g>
		<g id="XMLID_1243_">
			<g id="XMLID_1248_">
				<g id="XMLID_1249_">
					<path id="XMLID_1250_" class="st3" d="M464.83,364.36c-0.68,1.54-2.37,2.34-3.93,2.98c-1.56,0.63-3.26,1.31-4.11,2.77
						c-1.7,2.94,1.09,7.08-0.74,9.95c-0.77,1.2-2.2,1.84-3.6,2.09c-1.17,0.22-2.36,0.22-3.54,0.32c-0.57-0.01-1.13-0.05-1.68-0.13
						c-1.62-0.24-3.38-0.31-4.87,0.52c-2.34,1.32-3.06,4.27-4.48,6.55c-1.7,2.73-4.72,4.51-7.88,4.94
						c-1.05,0.14-3.01,0.33-4.08-0.27c-0.08-0.05-0.15-0.09-0.22-0.14c-0.01,0-0.01-0.01-0.02-0.02c-0.15-0.17-0.33-0.38-0.41-0.49
						c-0.02-0.02-0.03-0.04-0.04-0.07c-0.41-1.53,0.26-3.12,0.29-4.69c0-0.1,0-0.19,0-0.29c-0.07-1.83-0.12-3.66-0.16-5.49
						c-0.09-3.36-0.12-6.74-0.1-10.1c0.02-2.19-0.24-4.58,0.68-6.64c1.03-2.27,3.57-2.32,4.54-4.54c0.39-0.89,0.59-1.84,0.96-2.73
						c1.11-2.63,3.81-4.52,6.67-4.66c4.45-0.23,8.44,3.38,12.88,3.05c1.15-0.09,2.27-0.44,3.41-0.65c3.6-0.67,7.77,0.35,9.79,3.4
						C465.04,361.28,465.45,362.96,464.83,364.36z"/>
				</g>
			</g>
			<g id="XMLID_979_" class="st6">
				<g id="XMLID_988_">
					<path id="XMLID_989_" d="M464.83,364.36c-0.68,1.54-2.37,2.34-3.93,2.98c-1.56,0.63-3.26,1.31-4.11,2.77
						c-1.7,2.94,1.09,7.08-0.74,9.95c-0.77,1.2-2.2,1.84-3.6,2.09c-1.17,0.22-2.36,0.22-3.54,0.32c-0.57-0.01-1.13-0.05-1.68-0.13
						c-1.62-0.24-3.38-0.31-4.87,0.52c-2.34,1.32-3.06,4.27-4.48,6.55c-1.7,2.73-4.72,4.51-7.88,4.94
						c-1.05,0.14-3.01,0.33-4.08-0.27c-0.08-0.05-0.15-0.09-0.22-0.14c-0.01,0-0.01-0.01-0.02-0.02c-0.15-0.17-0.33-0.38-0.41-0.49
						c-0.02-0.02-0.03-0.04-0.04-0.07c-0.41-1.53,0.26-3.12,0.29-4.69c0-0.1,0-0.19,0-0.29c-0.07-1.83-0.12-3.66-0.16-5.49
						c-0.09-3.36-0.12-6.74-0.1-10.1c0.02-2.19-0.24-4.58,0.68-6.64c1.03-2.27,3.57-2.32,4.54-4.54c0.39-0.89,0.59-1.84,0.96-2.73
						c1.11-2.63,3.81-4.52,6.67-4.66c4.45-0.23,8.44,3.38,12.88,3.05c1.15-0.09,2.27-0.44,3.41-0.65c3.6-0.67,7.77,0.35,9.79,3.4
						C465.04,361.28,465.45,362.96,464.83,364.36z"/>
				</g>
			</g>
			<g id="XMLID_1246_">
				<path id="XMLID_1247_" class="st5" d="M424.85,386.33c-0.01,0-0.02,0-0.03-0.01c-0.2-0.05-0.32-0.26-0.27-0.46
					c6.15-23.06,30.45-26.4,36.13-25.99c0.21,0.02,0.37,0.2,0.35,0.41c-0.02,0.21-0.2,0.37-0.41,0.35
					c-5.56-0.4-29.33,2.86-35.34,25.42C425.24,386.25,425.05,386.37,424.85,386.33z"/>
			</g>
			<g id="XMLID_1244_">
				<path id="XMLID_1245_" class="st5" d="M451.85,374.65c-0.07-0.01-0.14-0.05-0.2-0.11c-0.06-0.06-6.26-6.17-16.54-4.66
					c-0.21,0.03-0.4-0.11-0.43-0.32c-0.03-0.21,0.11-0.4,0.32-0.43c10.68-1.57,17.12,4.81,17.19,4.88c0.15,0.15,0.15,0.39,0,0.54
					C452.1,374.63,451.97,374.67,451.85,374.65z"/>
			</g>
		</g>
	</g>
	<g id="Plants_12_">
		<g id="XMLID_994_">
			<g id="XMLID_999_">
				<path id="XMLID_1000_" class="st3" d="M73.16,375.5c-1.33-7.62-2.23-21.93-10.96-34c-6.32-8.74-16.29-16.57-23.91-14.3
					c-7.1,2.11-5.83,13.36,2.42,19.79c8.25,6.43,18.89,15.45,23.73,31.98l7.15,11.65L73.16,375.5z"/>
			</g>
			<g id="XMLID_997_" class="st4">
				<path id="XMLID_998_" d="M73.16,375.5c-1.33-7.62-2.23-21.93-10.96-34c-6.32-8.74-16.29-16.57-23.91-14.3
					c-7.1,2.11-5.83,13.36,2.42,19.79c8.25,6.43,18.89,15.45,23.73,31.98l7.15,11.65L73.16,375.5z"/>
			</g>
			<g id="XMLID_995_">
				<path id="XMLID_996_" class="st5" d="M71.48,381.3c-0.27,0-0.5-0.2-0.53-0.47c-2.87-21.83-13.03-38.6-29.39-48.51
					c-0.25-0.15-0.33-0.48-0.18-0.74c0.15-0.26,0.49-0.33,0.74-0.18c16.65,10.08,26.99,27.13,29.9,49.29
					c0.04,0.29-0.17,0.56-0.46,0.6C71.53,381.3,71.51,381.3,71.48,381.3z"/>
			</g>
		</g>
		<g id="XMLID_990_">
			<path id="XMLID_993_" class="st3" d="M70.82,391.88c0,0-4.21,4.85-12.15,7.19c-7.94,2.34-12.03-1.07-12.03-1.07
				s2.2-8.02,6.53-10.76c0,0-7.6,2.61-13.32,7.61c0,0-4.94,0.72-7.9-6.58c0,0,2.34-4.93,11.86-8.67c0,0-6.19-0.73-14.53,2.6
				c-0.61,0.34-4.65-9.07-6.07-13.47c-1.42-4.4,0.4-4.59,3.79-5.98c3.39-1.4,15.28-3.55,17.73-1.9c2.45,1.65,4.43,8.11,4.43,8.11
				s1.62-4.01,0.68-7.29c0,0,3.37-1.66,7.5-0.8c4.13,0.86,4.97,3.54,5.9,6.29c0.93,2.74,1.24,5.25,0.99,8.79
				c0,0,2.11-5.17,0.69-9.77c0,0,4.17,1.54,6.83,5.19C74.4,375.02,75.2,385.36,70.82,391.88z"/>
			<path id="XMLID_1001_" class="st6" d="M70.82,391.88c0,0-4.21,4.85-12.15,7.19c-7.94,2.34-12.03-1.07-12.03-1.07
				s2.2-8.02,6.53-10.76c0,0-7.6,2.61-13.32,7.61c0,0-4.94,0.72-7.9-6.58c0,0,2.34-4.93,11.86-8.67c0,0-6.19-0.73-14.53,2.6
				c-0.61,0.34-4.65-9.07-6.07-13.47c-1.42-4.4,0.4-4.59,3.79-5.98c3.39-1.4,15.28-3.55,17.73-1.9c2.45,1.65,4.43,8.11,4.43,8.11
				s1.62-4.01,0.68-7.29c0,0,3.37-1.66,7.5-0.8c4.13,0.86,4.97,3.54,5.9,6.29c0.93,2.74,1.24,5.25,0.99,8.79
				c0,0,2.11-5.17,0.69-9.77c0,0,4.17,1.54,6.83,5.19C74.4,375.02,75.2,385.36,70.82,391.88z"/>
			<g id="XMLID_991_">
				<path id="XMLID_992_" class="st5" d="M70.82,392.42c-0.18,0-0.35-0.09-0.45-0.24c-8.3-12.73-34.66-25.33-43.58-25.89
					c-0.3-0.02-0.52-0.27-0.5-0.57c0.02-0.29,0.25-0.53,0.57-0.5c9.1,0.57,35.96,13.41,44.42,26.38c0.16,0.25,0.09,0.58-0.16,0.74
					C71.02,392.39,70.92,392.42,70.82,392.42z"/>
			</g>
		</g>
	</g>
</g>
<g id="Window_1_">
	<g id="Window_5_">
		<g id="Window">
			<path id="XMLID_4093_" class="st3" d="M335.87,49l-5.13-2.98L69.19,197.02v193.23c0,1.74,0.61,2.96,1.59,3.53l0,0l0.01,0l0,0
				l5.12,2.98v0c0.99,0.57,2.36,0.49,3.87-0.38L330.4,251.7c3.02-1.74,5.47-5.98,5.47-9.47L335.87,49z"/>
			<path id="XMLID_323_" class="st6" d="M335.87,49l-5.13-2.98L69.19,197.02v193.23c0,1.74,0.61,2.96,1.59,3.53l0,0l0.01,0l0,0
				l5.12,2.98v0c0.99,0.57,2.36,0.49,3.87-0.38L330.4,251.7c3.02-1.74,5.47-5.98,5.47-9.47L335.87,49z"/>
			<path class="st3" d="M75.84,396.73l-5.05-2.94c-0.99-0.58-1.6-1.8-1.6-3.54v-171.8l5.13,2.96v171.82
				C74.32,394.93,74.9,396.13,75.84,396.73z"/>
			<g class="st7">
				<path class="st5" d="M75.84,396.73l-5.05-2.94c-0.99-0.58-1.6-1.8-1.6-3.54v-171.8l5.13,2.96v171.82
					C74.32,394.93,74.9,396.13,75.84,396.73z"/>
			</g>
			<path class="st8" d="M75.84,396.73l-5.05-2.94c-0.99-0.58-1.6-1.8-1.6-3.54v-171.8l5.13,2.96v171.82
				C74.32,394.93,74.9,396.13,75.84,396.73z"/>
			<g id="XMLID_4092_">
				<path class="st3" d="M74.31,393.24c0,3.49,2.45,4.9,5.47,3.16L330.4,251.7c3.02-1.74,5.47-5.98,5.47-9.47l0-193.23L74.31,200
					V393.24z"/>
			</g>
			<g id="XMLID_322_" class="st9">
				<path class="st5" d="M74.31,393.24c0,3.49,2.45,4.9,5.47,3.16L330.4,251.7c3.02-1.74,5.47-5.98,5.47-9.47l0-193.23L74.31,200
					V393.24z"/>
			</g>
			<g id="XMLID_289_">
				<polygon id="XMLID_4078_" class="st3" points="74.31,200 74.31,221.41 335.86,70.41 335.87,49 				"/>
				<g>
					<path id="XMLID_4077_" class="st10" d="M285.41,86.59l0,5.1c0,1.04,0.74,1.47,1.64,0.95l33.43-19.35l0-8.88l-33.43,19.35
						C286.15,84.27,285.41,85.55,285.41,86.59z"/>
					<path id="XMLID_4076_" class="st11" d="M329.1,59.42c0.91-0.52,1.64-0.1,1.64,0.95v5.1c0,1.05-0.73,2.32-1.64,2.84l-8.62,4.98
						l0-8.88L329.1,59.42z"/>
					<path id="XMLID_321_" class="st10" d="M328.46,66.41l-0.96-0.3c0.1-0.41,0.15-0.83,0.15-1.24c0-0.98-0.32-1.73-0.88-2.05
						c-0.41-0.24-0.91-0.22-1.4,0.07c-1.08,0.62-1.92,2.38-1.92,4c0,0.98,0.32,1.73,0.88,2.05c0.19,0.11,0.39,0.16,0.61,0.16
						c0.26,0,0.53-0.08,0.79-0.23c0.65-0.37,1.21-1.16,1.55-2.08l0.96,0.3c0.04,0.01,0.07,0.02,0.11,0.02c0.15,0,0.29-0.1,0.34-0.25
						C328.75,66.67,328.65,66.47,328.46,66.41z M325.38,68.25c-0.27,0.15-0.5,0.18-0.69,0.07c-0.32-0.19-0.52-0.73-0.52-1.44
						c0-1.34,0.72-2.89,1.56-3.38c0.16-0.09,0.3-0.14,0.43-0.14c0.09,0,0.18,0.02,0.26,0.07c0.32,0.19,0.52,0.73,0.52,1.44
						C326.94,66.21,326.22,67.76,325.38,68.25z"/>
				</g>
				<g>
					<path class="st10" d="M94.97,193.11l-6.49,3.74c-0.98,0.57-1.78,1.96-1.78,3.1v7.5c0,1.14,0.8,1.6,1.78,1.03l6.49-3.75
						c0.98-0.57,1.78-1.96,1.78-3.1v-7.49C96.76,193,95.96,192.54,94.97,193.11z M91.73,205.2c-2.11,1.21-3.82,0.23-3.82-2.2
						c0-2.44,1.71-5.39,3.82-6.61c2.11-1.21,3.82-0.23,3.82,2.21C95.54,201.02,93.83,203.98,91.73,205.2z"/>
					<path class="st10" d="M89.26,202.22c0,1.57,1.1,2.21,2.46,1.42c1.36-0.79,2.46-2.7,2.46-4.27c0-1.57-1.1-2.21-2.47-1.42
						C90.36,198.73,89.26,200.65,89.26,202.22z"/>
				</g>
				<path class="st11" d="M101.88,192.43v0.63c0,0.69,0.48,0.97,1.08,0.62l18.14-10.48c0.6-0.35,1.08-1.18,1.08-1.88l0-0.63
					c0-0.69-0.48-0.97-1.08-0.62l-18.15,10.48C102.37,190.9,101.88,191.74,101.88,192.43z"/>
				<g>
					<path class="st11" d="M183.12,147.93v0.63c0,0.69,0.48,0.97,1.08,0.62l14.08-8.12c0.6-0.35,1.08-1.18,1.08-1.88l0-0.63
						c0-0.69-0.48-0.97-1.08-0.62l-14.08,8.12C183.61,146.4,183.12,147.24,183.12,147.93z"/>
					<path class="st11" d="M207.49,133.86v0.63c0,0.69,0.48,0.97,1.08,0.62l14.08-8.12c0.6-0.35,1.08-1.18,1.08-1.88l0-0.63
						c0-0.69-0.48-0.97-1.08-0.62l-14.08,8.12C207.98,132.33,207.49,133.17,207.49,133.86z"/>
					<path class="st10" d="M231.87,119.79v0.63c0,0.69,0.48,0.97,1.08,0.62l14.08-8.12c0.6-0.35,1.08-1.18,1.08-1.88l0-0.63
						c0-0.69-0.48-0.97-1.08-0.62l-14.08,8.12C232.35,118.26,231.87,119.1,231.87,119.79z"/>
					<path class="st11" d="M256.24,105.72v0.63c0,0.69,0.48,0.97,1.08,0.62l14.08-8.12c0.6-0.35,1.08-1.18,1.08-1.88l0-0.63
						c0-0.69-0.48-0.97-1.08-0.62l-14.08,8.12C256.72,104.19,256.24,105.03,256.24,105.72z"/>
				</g>
				<g>
					<path class="st12" d="M101.88,198.53v0.42c0,0.46,0.32,0.65,0.72,0.42l12.09-6.98c0.4-0.23,0.72-0.79,0.72-1.25l0-0.42
						c0-0.46-0.32-0.65-0.72-0.42l-12.09,6.98C102.2,197.51,101.88,198.07,101.88,198.53z"/>
				</g>
				<path id="XMLID_318_" class="st13" d="M329.19,31.06c-0.99-0.61-2.38-0.54-3.92,0.35L74.66,176.1
					c-3.02,1.74-5.47,5.98-5.47,9.47v11.45l5.13,2.98L335.87,49V37.54c0-1.73-0.6-2.95-1.58-3.52
					C333.36,33.48,330.08,31.6,329.19,31.06z"/>
				<path id="XMLID_317_" class="st14" d="M74.31,188.55c0-3.49,2.45-7.73,5.47-9.47L330.4,34.39c3.02-1.74,5.47-0.33,5.47,3.16V49
					L74.31,200V188.55z"/>
				<path id="XMLID_311_" class="st11" d="M334.34,34.05c-1-0.62-2.39-0.56-3.94,0.34L79.78,179.08c-1.51,0.87-2.88,2.37-3.86,4.08
					l-5.14-2.97c1-1.72,2.36-3.22,3.88-4.09L325.27,31.4c1.54-0.88,2.93-0.95,3.91-0.34c0.9,0.54,4.18,2.42,5.1,2.95
					C334.3,34.03,334.32,34.04,334.34,34.05z"/>
				<g id="XMLID_294_">
					<g id="XMLID_295_">
						<path id="XMLID_701_" class="st3" d="M305.1,54.9c-1.42,0.82-2.56,2.81-2.56,4.44c0,1.64,1.15,2.3,2.56,1.48
							c1.42-0.82,2.56-2.81,2.56-4.44C307.66,54.75,306.51,54.08,305.1,54.9z"/>
						<path class="st3" d="M314.07,49.73c-1.42,0.82-2.56,2.81-2.56,4.44c0,1.64,1.15,2.3,2.56,1.48c1.42-0.82,2.56-2.81,2.56-4.44
							C316.63,49.58,315.49,48.92,314.07,49.73z"/>
						<path id="XMLID_700_" class="st3" d="M323.04,44.57c-1.42,0.82-2.56,2.81-2.56,4.44c0,1.64,1.15,2.3,2.56,1.48
							c1.42-0.82,2.56-2.81,2.56-4.44C325.61,44.41,324.46,43.75,323.04,44.57z"/>
					</g>
				</g>
			</g>
		</g>
		<g>
			<polygon class="st10" points="86.69,222.11 323.46,85.28 323.46,243.62 86.69,380.46 			"/>
			<g>
				<g>
					<g>
						<g>
							<path class="st1" d="M240.18,152.61c-0.62,0-1.19-0.15-1.71-0.44c-1.22-0.7-1.89-2.15-1.89-4.06c0-3.75,2.64-8.32,5.89-10.2
								c1.66-0.96,3.25-1.1,4.46-0.4c1.22,0.7,1.89,2.15,1.89,4.06c0,3.75-2.64,8.32-5.89,10.2
								C241.97,152.33,241.03,152.61,240.18,152.61z M245.22,138.01c-0.69,0-1.47,0.24-2.29,0.71l0,0
								c-2.99,1.73-5.42,5.94-5.42,9.39c0,1.57,0.5,2.73,1.42,3.26c0.92,0.53,2.17,0.39,3.53-0.4c2.99-1.73,5.42-5.94,5.42-9.39
								c0-1.57-0.5-2.73-1.42-3.26C246.1,138.11,245.68,138.01,245.22,138.01z"/>
						</g>
						<g>
							<path class="st1" d="M252.21,139.04v0.59c0,0.64,0.45,0.91,1.01,0.58l13.14-7.61c0.56-0.32,1.01-1.11,1.01-1.75l0-0.59
								c0-0.64-0.45-0.91-1.01-0.58l-13.14,7.61C252.66,137.61,252.21,138.39,252.21,139.04z"/>
						</g>
					</g>
					<g>
						<path class="st1" d="M243,148.03c-0.04,0.03-0.08,0.02-0.12-0.01c-0.03-0.03-0.05-0.08-0.05-0.15v-1.13l-1.88,1.08
							c-0.05,0.03-0.08,0.02-0.12-0.01c-0.03-0.03-0.05-0.08-0.05-0.15v-0.66c0-0.09,0.01-0.17,0.04-0.25
							c0.03-0.08,0.06-0.17,0.09-0.26l1.85-4.63c0.08-0.2,0.16-0.33,0.25-0.38l0.46-0.27c0.04-0.03,0.08-0.02,0.11,0.01
							c0.03,0.03,0.05,0.08,0.05,0.15v3.73l0.52-0.3c0.04-0.03,0.08-0.02,0.12,0.01c0.03,0.03,0.05,0.08,0.05,0.15v0.66
							c0,0.07-0.02,0.14-0.05,0.21c-0.03,0.07-0.07,0.11-0.12,0.14l-0.52,0.3v1.13c0,0.07-0.02,0.14-0.05,0.2
							c-0.03,0.07-0.07,0.12-0.11,0.14L243,148.03z M242.84,145.58v-2l-1.04,2.59L242.84,145.58z"/>
					</g>
				</g>
				<g>
					<g>
						<g>
							<path class="st3" d="M193.43,179.61c-0.62,0-1.19-0.15-1.7-0.44c-1.22-0.7-1.89-2.15-1.89-4.06c0-3.75,2.64-8.32,5.89-10.2
								c1.66-0.96,3.25-1.1,4.46-0.4c1.22,0.7,1.89,2.15,1.89,4.06c0,3.75-2.64,8.32-5.89,10.2
								C195.23,179.33,194.29,179.61,193.43,179.61z M198.48,165.01c-0.69,0-1.47,0.24-2.29,0.71c-2.99,1.73-5.42,5.94-5.42,9.39
								c0,1.57,0.51,2.73,1.42,3.26c0.92,0.53,2.17,0.39,3.53-0.4c2.99-1.73,5.42-5.94,5.42-9.39c0-1.57-0.51-2.73-1.42-3.26
								C199.36,165.11,198.94,165.01,198.48,165.01z"/>
						</g>
						<g>
							<path class="st3" d="M205.46,166.04v0.59c0,0.64,0.45,0.91,1.01,0.58l13.14-7.61c0.56-0.32,1.01-1.11,1.01-1.75l0-0.59
								c0-0.64-0.45-0.91-1.01-0.58l-13.14,7.61C205.92,164.61,205.46,165.4,205.46,166.04z"/>
						</g>
					</g>
					<g>
						<path class="st3" d="M197.29,167.95c0.04-0.03,0.08-0.02,0.11,0.01c0.03,0.03,0.05,0.08,0.05,0.15v0.66
							c0,0.07-0.01,0.14-0.05,0.22c-0.03,0.08-0.06,0.15-0.09,0.2l-0.88,1.95c0.18-0.07,0.35-0.09,0.49-0.08
							c0.15,0.01,0.27,0.07,0.38,0.17c0.11,0.1,0.19,0.24,0.24,0.42c0.06,0.19,0.08,0.41,0.08,0.68c0,0.32-0.04,0.64-0.12,0.93
							c-0.08,0.3-0.2,0.58-0.35,0.84c-0.15,0.26-0.32,0.49-0.52,0.7c-0.2,0.21-0.42,0.38-0.65,0.52c-0.28,0.16-0.53,0.25-0.74,0.27
							c-0.21,0.02-0.38-0.01-0.52-0.1c-0.14-0.08-0.25-0.2-0.32-0.37c-0.07-0.16-0.12-0.34-0.13-0.53c0-0.07,0.01-0.14,0.05-0.21
							c0.03-0.07,0.07-0.11,0.12-0.14l0.48-0.28c0.04-0.02,0.07-0.02,0.1,0c0.03,0.03,0.05,0.07,0.08,0.13
							c0.02,0.06,0.06,0.11,0.1,0.15c0.04,0.04,0.09,0.07,0.16,0.08c0.07,0.01,0.15,0.01,0.25-0.02c0.1-0.03,0.22-0.08,0.37-0.17
							c0.25-0.14,0.45-0.33,0.6-0.57c0.15-0.24,0.23-0.5,0.23-0.78c0-0.28-0.08-0.44-0.23-0.47c-0.15-0.03-0.35,0.02-0.6,0.16
							l-0.5,0.29c-0.04,0.03-0.08,0.02-0.11-0.01c-0.03-0.03-0.05-0.08-0.05-0.15v-0.66c0-0.07,0.02-0.14,0.05-0.22
							c0.03-0.08,0.06-0.14,0.09-0.2l0.85-1.86l-1.67,0.97c-0.05,0.03-0.08,0.02-0.12-0.01c-0.03-0.03-0.05-0.08-0.05-0.15v-0.66
							c0-0.07,0.02-0.14,0.05-0.21c0.03-0.07,0.07-0.12,0.12-0.14L197.29,167.95z"/>
					</g>
				</g>
				<g>
					<g>
						<g>
							<path class="st1" d="M286.88,125.58c-0.62,0-1.19-0.15-1.71-0.44c-1.22-0.7-1.89-2.15-1.89-4.06c0-3.75,2.64-8.32,5.89-10.2
								c1.66-0.96,3.25-1.1,4.46-0.4c1.22,0.7,1.89,2.15,1.89,4.06c0,3.75-2.64,8.32-5.89,10.2
								C288.67,125.3,287.74,125.58,286.88,125.58z M291.93,110.98c-0.69,0-1.47,0.24-2.29,0.71l0,0c-2.99,1.73-5.42,5.94-5.42,9.39
								c0,1.57,0.5,2.73,1.42,3.26c0.92,0.53,2.17,0.39,3.53-0.4c2.99-1.73,5.42-5.94,5.42-9.39c0-1.57-0.5-2.73-1.42-3.26
								C292.8,111.08,292.39,110.98,291.93,110.98z"/>
						</g>
						<g>
							<path class="st1" d="M288.1,115.59c0-0.07,0.02-0.14,0.05-0.21c0.03-0.07,0.07-0.12,0.11-0.14l2.28-1.32
								c0.05-0.03,0.08-0.02,0.12,0.01c0.03,0.03,0.05,0.08,0.05,0.15v0.66c0,0.07-0.02,0.14-0.05,0.21
								c-0.03,0.07-0.07,0.12-0.12,0.14l-1.7,0.98l-0.07,1.23c0.11-0.13,0.22-0.23,0.32-0.31c0.11-0.07,0.2-0.13,0.26-0.17
								c0.23-0.13,0.44-0.21,0.63-0.22c0.19-0.02,0.36,0.02,0.5,0.12c0.14,0.1,0.25,0.26,0.33,0.48c0.08,0.22,0.12,0.5,0.12,0.85
								c0,0.4-0.04,0.76-0.12,1.09c-0.08,0.33-0.2,0.63-0.34,0.9c-0.14,0.27-0.31,0.5-0.51,0.69c-0.19,0.2-0.4,0.36-0.62,0.48
								c-0.28,0.16-0.52,0.25-0.72,0.27c-0.2,0.02-0.37-0.02-0.5-0.12c-0.13-0.1-0.23-0.23-0.3-0.42c-0.07-0.18-0.11-0.39-0.11-0.63
								c0-0.07,0.01-0.14,0.05-0.21c0.03-0.07,0.07-0.11,0.12-0.14l0.49-0.28c0.04-0.02,0.08-0.02,0.11,0
								c0.03,0.02,0.05,0.06,0.07,0.12c0.02,0.13,0.06,0.22,0.11,0.28c0.05,0.06,0.11,0.1,0.18,0.11c0.07,0.01,0.15,0,0.23-0.03
								c0.08-0.03,0.17-0.07,0.27-0.13c0.23-0.13,0.42-0.34,0.56-0.61c0.14-0.27,0.21-0.58,0.21-0.92c0-0.28-0.07-0.47-0.21-0.58
								c-0.14-0.11-0.33-0.09-0.56,0.03c-0.12,0.07-0.22,0.14-0.29,0.21c-0.07,0.07-0.13,0.14-0.17,0.2
								c-0.04,0.06-0.08,0.12-0.12,0.17c-0.04,0.05-0.08,0.09-0.14,0.12l-0.56,0.32c-0.04,0.03-0.08,0.02-0.11-0.01
								c-0.03-0.03-0.05-0.08-0.05-0.15L288.1,115.59z"/>
						</g>
						<g>
							<path class="st1" d="M298.91,112.01v0.59c0,0.64,0.45,0.91,1.01,0.58l13.14-7.61c0.56-0.32,1.01-1.11,1.01-1.75v-0.59
								c0-0.64-0.45-0.91-1.01-0.58l-13.14,7.61C299.36,110.58,298.91,111.37,298.91,112.01z"/>
						</g>
					</g>
				</g>
				<g>
					<g>
						<g>
							<path class="st3" d="M146.69,206.61c-0.62,0-1.19-0.15-1.7-0.44c-1.22-0.7-1.89-2.15-1.89-4.06c0-3.75,2.64-8.32,5.89-10.2
								c1.66-0.96,3.25-1.1,4.46-0.4c1.22,0.7,1.89,2.15,1.89,4.06c0,3.75-2.64,8.32-5.89,10.2
								C148.49,206.33,147.55,206.61,146.69,206.61z"/>
						</g>
						<g>
							<path class="st3" d="M158.72,193.04v0.59c0,0.64,0.45,0.91,1.01,0.58l13.14-7.61c0.56-0.32,1.01-1.11,1.01-1.75l0-0.59
								c0-0.64-0.45-0.91-1.01-0.58l-13.14,7.61C159.18,191.61,158.72,192.4,158.72,193.04z"/>
						</g>
					</g>
					<path id="Check_1_" class="st10" d="M151.87,194.27c-0.38-0.16-0.82,0.02-0.98,0.4l-2.84,6.75l-0.68-0.66
						c-0.3-0.29-0.77-0.28-1.06,0.02c-0.29,0.3-0.28,0.77,0.02,1.06l1.46,1.42c0.14,0.14,0.33,0.21,0.52,0.21
						c0.05,0,0.1,0,0.15-0.01c0.24-0.05,0.45-0.22,0.54-0.44l3.26-7.76C152.43,194.87,152.25,194.43,151.87,194.27z"/>
				</g>
				<g>
					<g>
						<g>
							<path class="st3" d="M99.95,233.62c-0.62,0-1.19-0.15-1.71-0.44c-1.22-0.7-1.89-2.15-1.89-4.06c0-3.75,2.64-8.32,5.89-10.2
								l0,0c1.66-0.96,3.25-1.1,4.46-0.4c1.22,0.7,1.89,2.15,1.89,4.06c0,3.75-2.64,8.32-5.89,10.2
								C101.75,233.33,100.81,233.62,99.95,233.62z"/>
						</g>
						<g>
							<path class="st3" d="M111.98,220.04v0.59c0,0.64,0.45,0.91,1.01,0.58l13.14-7.61c0.56-0.32,1.01-1.11,1.01-1.75l0-0.59
								c0-0.64-0.45-0.91-1.01-0.58l-13.14,7.61C112.43,218.61,111.98,219.4,111.98,220.04z"/>
						</g>
					</g>
					<path id="Check_2_" class="st10" d="M105.12,221.26c-0.38-0.16-0.82,0.02-0.98,0.4l-2.84,6.75l-0.68-0.66
						c-0.3-0.29-0.77-0.28-1.06,0.02c-0.29,0.3-0.28,0.77,0.02,1.06l1.46,1.42c0.14,0.14,0.33,0.21,0.52,0.21
						c0.05,0,0.1,0,0.15-0.01c0.24-0.05,0.45-0.22,0.54-0.44l3.26-7.76C105.68,221.86,105.5,221.42,105.12,221.26z"/>
				</g>
			</g>
			<g>
				<polygon class="st1" points="86.69,247.36 323.46,110.52 323.46,111.85 86.69,248.68 				"/>
				<polygon class="st3" points="86.69,248.13 86.69,248.68 227.77,167.26 227.77,165.93 86.69,247.36 				"/>
			</g>
		</g>
	</g>
</g>
<g id="Tabs_1_">
	<g>
		<path id="XMLID_4_" class="st3" d="M285.11,148.04c-0.36-0.24-0.86-0.22-1.43,0.11l-159.73,92.2c-1.08,0.62-1.95,2.14-1.95,3.38
			l0,103.84c0,0.61,0.21,1.05,0.56,1.25c0.35,0.21,3.32,1.91,3.67,2.12c0.35,0.21,0.85,0.18,1.39-0.13l159.73-92.2
			c1.08-0.62,1.95-2.14,1.95-3.38V151.39c0-0.62-0.22-1.06-0.57-1.26C288.37,149.92,285.43,148.26,285.11,148.04z"/>
		<g class="st15">
			<path class="st5" d="M288.73,150.13c-0.35-0.21-0.72-0.41-0.1-0.05c-0.34-0.14-0.79-0.09-1.28,0.19l-159.73,92.2
				c-0.54,0.31-1.03,0.85-1.38,1.46c-0.36,0.61-0.58,1.3-0.58,1.92v103.83c0,0.56,0.18,0.97,0.47,1.2c0.04,0.02,0.07,0.04,0.1,0.06
				c0.35,0.21,0.85,0.18,1.39-0.13l159.73-92.2c1.08-0.62,1.95-2.14,1.95-3.38V151.39C289.29,150.77,289.08,150.33,288.73,150.13z"
				/>
		</g>
		<g class="st16">
			<path class="st5" d="M125.66,245.84c0-0.62,0.22-1.31,0.58-1.92l-3.67-2.12c-0.35,0.61-0.57,1.3-0.57,1.92l0,103.84
				c0,0.61,0.21,1.05,0.56,1.25c0.33,0.2,2.96,1.7,3.57,2.06c-0.29-0.24-0.47-0.65-0.47-1.2V245.84z"/>
		</g>
		<g id="XMLID_1_" class="st17">
			<path class="st5" d="M285.11,148.04c0.31,0.21,2.9,1.68,3.52,2.03c-0.34-0.14-0.79-0.09-1.28,0.19l-159.73,92.2
				c-0.54,0.31-1.03,0.85-1.38,1.46l-3.67-2.12c0.35-0.61,0.85-1.15,1.39-1.46l159.73-92.19
				C284.24,147.83,284.76,147.81,285.11,148.04z"/>
		</g>
	</g>
	<g>
		<path id="XMLID_8_" class="st3" d="M312.11,165.04c-0.36-0.24-0.86-0.22-1.43,0.11l-159.73,92.2c-1.08,0.62-1.95,2.14-1.95,3.38
			l0,103.84c0,0.61,0.21,1.05,0.56,1.25c0.35,0.21,3.32,1.91,3.67,2.12c0.35,0.21,0.85,0.18,1.39-0.13l159.73-92.2
			c1.08-0.62,1.95-2.14,1.95-3.38V168.39c0-0.62-0.22-1.06-0.57-1.26C315.37,166.92,312.43,165.26,312.11,165.04z"/>
		<g class="st18">
			<path class="st5" d="M315.73,167.13c-0.35-0.21-0.72-0.41-0.1-0.05c-0.34-0.14-0.79-0.09-1.28,0.19l-159.73,92.2
				c-0.54,0.31-1.03,0.85-1.38,1.46c-0.36,0.61-0.58,1.3-0.58,1.92v103.83c0,0.56,0.18,0.97,0.47,1.2c0.04,0.02,0.07,0.04,0.1,0.06
				c0.35,0.21,0.85,0.18,1.39-0.13l159.73-92.2c1.08-0.62,1.95-2.14,1.95-3.38V168.39C316.29,167.77,316.08,167.33,315.73,167.13z"
				/>
		</g>
		<g class="st19">
			<path class="st5" d="M152.66,262.84c0-0.62,0.22-1.31,0.58-1.92l-3.67-2.12c-0.35,0.61-0.57,1.3-0.57,1.92l0,103.84
				c0,0.61,0.21,1.05,0.56,1.25c0.33,0.2,2.96,1.7,3.57,2.06c-0.29-0.24-0.47-0.65-0.47-1.2V262.84z"/>
		</g>
		<g id="XMLID_6_" class="st16">
			<path class="st5" d="M312.11,165.04c0.31,0.21,2.9,1.68,3.52,2.03c-0.34-0.14-0.79-0.09-1.28,0.19l-159.73,92.2
				c-0.54,0.31-1.03,0.85-1.38,1.46l-3.67-2.12c0.35-0.61,0.85-1.14,1.39-1.46l159.73-92.19
				C311.24,164.83,311.76,164.81,312.11,165.04z"/>
		</g>
	</g>
	<g>
		<g>
			<g id="XMLID_702_">
				<g id="XMLID_716_">
					<path id="XMLID_893_" class="st3" d="M341.11,181.04c-0.36-0.24-0.86-0.22-1.43,0.11l-159.73,92.2
						c-1.08,0.62-1.95,2.14-1.95,3.38l0,103.84c0,0.61,0.21,1.05,0.56,1.25c0.35,0.21,3.32,1.91,3.67,2.12
						c0.35,0.21,0.85,0.18,1.39-0.13l159.73-92.2c1.08-0.62,1.95-2.14,1.95-3.38V184.39c0-0.62-0.22-1.06-0.57-1.26
						C344.37,182.92,341.43,181.26,341.11,181.04z"/>
					<path id="XMLID_725_" class="st3" d="M341.11,181.04c0.31,0.21,2.9,1.68,3.52,2.03c-0.34-0.14-0.79-0.09-1.28,0.19
						l-159.73,92.2c-0.54,0.31-1.03,0.85-1.38,1.46l-3.67-2.12c0.35-0.61,0.85-1.14,1.39-1.46l159.73-92.19
						C340.24,180.83,340.76,180.81,341.11,181.04z"/>
					<path id="XMLID_894_" class="st20" d="M341.11,181.04c0.31,0.21,2.9,1.68,3.52,2.03c-0.34-0.14-0.79-0.09-1.28,0.19
						l-159.73,92.2c-0.54,0.31-1.03,0.85-1.38,1.46l-3.67-2.12c0.35-0.61,0.85-1.14,1.39-1.46l159.73-92.19
						C340.24,180.83,340.76,180.81,341.11,181.04z"/>
					<path id="XMLID_721_" class="st21" d="M181.66,382.67c0,0.56,0.18,0.97,0.48,1.21c-0.62-0.36-3.25-1.87-3.58-2.06
						c-0.34-0.21-0.56-0.64-0.56-1.25V276.72c0-0.62,0.22-1.31,0.57-1.92l3.67,2.12c-0.36,0.61-0.58,1.3-0.58,1.92V382.67z"/>
				</g>
			</g>
		</g>
		<g>
			<path class="st10" d="M203.39,272.4c1.32-0.76,2.39-0.14,2.39,1.39c0,1.53-1.07,3.38-2.39,4.14c-1.32,0.76-2.39,0.14-2.39-1.39
				C201,275.02,202.07,273.16,203.39,272.4z"/>
			<path class="st11" d="M203.39,273.91c0.6-0.35,1.09-0.06,1.09,0.63s-0.49,1.53-1.09,1.88c-0.6,0.34-1.08,0.06-1.08-0.63
				C202.31,275.1,202.79,274.26,203.39,273.91z"/>
		</g>
		<path class="st10" d="M208.14,272.18v0.54c0,0.59,0.41,0.82,0.92,0.53l11.97-6.9c0.51-0.29,0.92-1.01,0.92-1.59l0-0.54
			c0-0.59-0.41-0.82-0.92-0.53l-11.97,6.9C208.55,270.88,208.14,271.59,208.14,272.18z"/>
		<g>
			<g>
				<path class="st10" d="M300.84,216.08c1.32-0.76,2.39-0.14,2.39,1.39c0,1.53-1.07,3.38-2.39,4.14c-1.32,0.76-2.39,0.14-2.39-1.39
					C298.45,218.7,299.52,216.85,300.84,216.08z"/>
			</g>
			<path class="st12" d="M305.58,215.86v0.54c0,0.59,0.41,0.82,0.92,0.53l11.97-6.9c0.51-0.29,0.92-1.01,0.92-1.59l0-0.54
				c0-0.59-0.41-0.82-0.92-0.53l-11.97,6.9C305.99,214.56,305.58,215.27,305.58,215.86z"/>
		</g>
		<polygon class="st4" points="181.66,295.71 262.9,248.81 262.9,250.37 181.66,297.27 		"/>
		<polygon class="st12" points="262.9,248.81 345.29,201.24 345.29,202.79 262.9,250.37 		"/>
		<g class="st4">
			<path d="M197.91,296.83v0.54c0,0.59,0.41,0.82,0.92,0.53l11.97-6.9c0.51-0.29,0.92-1.01,0.92-1.59l0-0.54
				c0-0.59-0.41-0.82-0.92-0.53l-11.97,6.9C198.32,295.53,197.91,296.24,197.91,296.83z"/>
			<path d="M246.65,268.69v0.54c0,0.59,0.41,0.82,0.92,0.53l11.97-6.9c0.51-0.29,0.92-1.01,0.92-1.59l0-0.54
				c0-0.59-0.41-0.82-0.92-0.53l-11.97,6.9C247.06,267.39,246.65,268.1,246.65,268.69z"/>
			<path d="M295.4,240.54v0.54c0,0.59,0.41,0.82,0.92,0.53l11.97-6.9c0.51-0.29,0.92-1.01,0.92-1.59l0-0.54
				c0-0.59-0.41-0.82-0.92-0.53l-11.97,6.9C295.81,239.24,295.4,239.96,295.4,240.54z"/>
			<path d="M197.91,315.62v0.54c0,0.59,0.41,0.82,0.92,0.53l11.97-6.9c0.51-0.29,0.92-1.01,0.92-1.59l0-0.54
				c0-0.59-0.41-0.82-0.92-0.53l-11.97,6.9C198.32,314.32,197.91,315.03,197.91,315.62z"/>
			<path d="M197.91,334.37v0.54c0,0.59,0.41,0.82,0.92,0.53l11.97-6.9c0.51-0.29,0.92-1.01,0.92-1.59l0-0.54
				c0-0.59-0.41-0.82-0.92-0.53l-11.97,6.9C198.32,333.07,197.91,333.78,197.91,334.37z"/>
			<path d="M246.65,287.48v0.54c0,0.59,0.41,0.82,0.92,0.53l11.97-6.9c0.51-0.29,0.92-1.01,0.92-1.59l0-0.54
				c0-0.59-0.41-0.82-0.92-0.53l-11.97,6.9C247.06,286.18,246.65,286.89,246.65,287.48z"/>
			<path d="M295.4,259.33v0.54c0,0.59,0.41,0.82,0.92,0.53l11.97-6.9c0.51-0.29,0.92-1.01,0.92-1.59l0-0.54
				c0-0.59-0.41-0.82-0.92-0.53l-11.97,6.9C295.81,258.03,295.4,258.75,295.4,259.33z"/>
		</g>
		<path class="st12" d="M198.81,300.71l32.69-18.87c0.51-0.29,0.92-0.06,0.92,0.53v3.86c0,0.59-0.41,1.3-0.92,1.59l-32.69,18.87
			c-0.51,0.29-0.92,0.06-0.92-0.53v-3.86C197.89,301.72,198.3,301.01,198.81,300.71z"/>
		<path class="st12" d="M247.55,272.57l32.69-18.87c0.51-0.29,0.92-0.06,0.92,0.53v3.86c0,0.59-0.41,1.3-0.92,1.59l-32.69,18.87
			c-0.51,0.29-0.92,0.06-0.92-0.53v-3.86C246.63,273.58,247.05,272.86,247.55,272.57z"/>
		<path class="st12" d="M296.3,244.43l32.69-18.87c0.51-0.29,0.92-0.06,0.92,0.53v3.86c0,0.59-0.41,1.3-0.92,1.59l-32.69,18.87
			c-0.51,0.29-0.92,0.06-0.92-0.53v-3.86C295.38,245.44,295.79,244.72,296.3,244.43z"/>
		<path class="st12" d="M198.81,319.5l32.69-18.87c0.51-0.29,0.92-0.06,0.92,0.53v3.86c0,0.59-0.41,1.3-0.92,1.59l-32.69,18.87
			c-0.51,0.29-0.92,0.06-0.92-0.53v-3.86C197.89,320.51,198.3,319.8,198.81,319.5z"/>
		<path class="st12" d="M198.81,338.75l130.18-75.18c0.51-0.29,0.92-0.06,0.92,0.53v24.76c0,0.59-0.41,1.3-0.92,1.59l-130.18,75.18
			c-0.51,0.29-0.92,0.06-0.92-0.53v-24.76C197.89,339.76,198.3,339.04,198.81,338.75z"/>
		<path class="st12" d="M247.55,291.36l32.69-18.87c0.51-0.29,0.92-0.06,0.92,0.53v3.86c0,0.59-0.41,1.3-0.92,1.59l-32.69,18.87
			c-0.51,0.29-0.92,0.06-0.92-0.53v-3.86C246.63,292.37,247.05,291.66,247.55,291.36z"/>
		<path class="st12" d="M296.3,263.22l32.69-18.87c0.51-0.29,0.92-0.06,0.92,0.53v3.86c0,0.59-0.41,1.3-0.92,1.59L296.3,269.2
			c-0.51,0.29-0.92,0.06-0.92-0.53v-3.86C295.38,264.23,295.79,263.51,296.3,263.22z"/>
	</g>
	<g>
		<g id="Speach_Bubble_1_">
			<g id="XMLID_944_">
				<path id="XMLID_953_" class="st13" d="M340.1,302.72l-30.31,17.53c-0.46,0.26-0.83,0.91-0.83,1.43v14.57
					c0,0.53,0.37,1.17,0.83,1.43l1.95,1.11c0.46,0.26,1.2,0.26,1.66-0.01l30.31-17.53c0.46-0.26,0.83-0.91,0.83-1.43v-14.57
					c0-0.53-0.37-1.17-0.83-1.43l-1.95-1.11C341.3,302.45,340.56,302.46,340.1,302.72z"/>
				<path id="XMLID_952_" class="st11" d="M312.57,338.31v-14.57c0-0.53,0.37-1.17,0.83-1.43l30.31-17.53
					c0.46-0.26,0.83-0.05,0.83,0.48v14.57c0,0.53-0.37,1.17-0.83,1.43l-30.31,17.53C312.94,339.05,312.57,338.83,312.57,338.31z"/>
				<path id="XMLID_946_" class="st20" d="M313.4,338.79c-0.44,0.26-1.25,0.26-1.66,0.01l-1.95-1.11c-0.46-0.26-0.83-0.9-0.83-1.42
					v-14.57c0-0.28,0.1-0.58,0.26-0.85l3.59,2.08c-0.15,0.26-0.24,0.55-0.24,0.82v14.57C312.57,338.79,312.92,339.07,313.4,338.79z"
					/>
				<path id="XMLID_945_" class="st14" d="M344.53,305.1c-0.07-0.42-0.41-0.57-0.82-0.33L313.4,322.3
					c-0.23,0.13-0.44,0.36-0.59,0.62l-3.6-2.08c0.15-0.25,0.35-0.46,0.57-0.59l30.31-17.53c0.46-0.26,1.2-0.27,1.66-0.01l1.95,1.11
					C344.13,304.06,344.47,304.61,344.53,305.1z"/>
			</g>
		</g>
		<g>
			<path class="st3" d="M322.53,329.8c-0.11,0.06-0.19,0.06-0.24,0.01c-0.06-0.05-0.1-0.1-0.12-0.13l-2.59-4.42v5.86
				c0,0.1-0.02,0.21-0.07,0.31c-0.05,0.1-0.11,0.18-0.17,0.21l-0.75,0.43c-0.07,0.04-0.13,0.04-0.17-0.01
				c-0.05-0.05-0.07-0.12-0.07-0.23v-9.18c0-0.1,0.02-0.21,0.07-0.31c0.05-0.11,0.11-0.18,0.17-0.22l0.65-0.37
				c0.1-0.06,0.18-0.06,0.24-0.01c0.05,0.05,0.09,0.1,0.12,0.13l2.59,4.42v-5.86c0-0.1,0.02-0.21,0.07-0.31
				c0.05-0.1,0.11-0.18,0.18-0.21l0.75-0.43c0.07-0.04,0.13-0.04,0.17,0.01c0.05,0.05,0.08,0.12,0.08,0.23v9.18
				c0,0.1-0.02,0.21-0.08,0.31c-0.05,0.1-0.11,0.17-0.17,0.21L322.53,329.8z"/>
			<path class="st3" d="M324.54,324.94c0-0.53,0.05-1.06,0.16-1.59c0.1-0.53,0.25-1.02,0.45-1.48c0.2-0.46,0.44-0.87,0.72-1.23
				c0.28-0.36,0.59-0.64,0.94-0.84c0.34-0.2,0.66-0.28,0.94-0.25c0.28,0.03,0.52,0.15,0.71,0.37c0.2,0.21,0.35,0.51,0.46,0.89
				c0.11,0.38,0.16,0.81,0.16,1.29v0.64c0,0.1-0.03,0.21-0.07,0.31c-0.05,0.1-0.11,0.18-0.17,0.21l-3.08,1.78
				c0,0.22,0.03,0.39,0.09,0.53c0.06,0.13,0.14,0.23,0.23,0.28c0.1,0.06,0.21,0.08,0.34,0.06c0.13-0.02,0.26-0.07,0.4-0.14
				c0.2-0.11,0.36-0.24,0.48-0.37c0.12-0.13,0.23-0.27,0.31-0.41c0.07-0.12,0.12-0.2,0.17-0.25c0.04-0.05,0.1-0.1,0.18-0.14
				l0.74-0.43c0.07-0.04,0.13-0.04,0.18,0.01c0.05,0.05,0.08,0.12,0.07,0.23c-0.01,0.14-0.05,0.33-0.14,0.59
				c-0.09,0.26-0.22,0.54-0.4,0.84c-0.18,0.3-0.4,0.6-0.66,0.89c-0.26,0.29-0.56,0.54-0.91,0.74c-0.34,0.2-0.66,0.29-0.94,0.26
				c-0.28-0.02-0.52-0.15-0.72-0.38c-0.2-0.23-0.35-0.55-0.45-0.95C324.59,326,324.54,325.51,324.54,324.94z M326.8,321.51
				c-0.18,0.1-0.33,0.23-0.46,0.38c-0.13,0.15-0.23,0.32-0.32,0.5c-0.09,0.18-0.15,0.36-0.2,0.54c-0.05,0.18-0.08,0.35-0.09,0.5
				l2.09-1.21c-0.01-0.13-0.04-0.27-0.07-0.41c-0.03-0.14-0.09-0.25-0.17-0.33c-0.08-0.08-0.18-0.13-0.3-0.14
				C327.16,321.34,327,321.39,326.8,321.51z"/>
			<path class="st3" d="M331.99,321.99l-1.09,2.7c-0.06,0.15-0.12,0.26-0.19,0.33c-0.06,0.07-0.14,0.13-0.22,0.17l-0.71,0.41
				c-0.07,0.04-0.12,0.03-0.17-0.02c-0.05-0.05-0.07-0.13-0.07-0.24c0-0.08,0.01-0.15,0.04-0.22l1.66-4.13l-1.59-2.11
				c-0.02-0.04-0.04-0.1-0.04-0.18c0-0.11,0.02-0.22,0.07-0.32c0.05-0.1,0.1-0.17,0.17-0.21l0.71-0.41
				c0.08-0.05,0.15-0.07,0.22-0.08c0.07,0,0.13,0.03,0.19,0.11l1.04,1.39l1.03-2.59c0.06-0.15,0.12-0.26,0.19-0.33
				c0.06-0.07,0.14-0.13,0.22-0.17l0.71-0.41c0.07-0.04,0.12-0.03,0.17,0.02c0.05,0.05,0.07,0.13,0.07,0.24
				c0,0.08-0.01,0.15-0.04,0.22l-1.61,4.01l1.64,2.17c0.02,0.04,0.04,0.1,0.04,0.18c0,0.12-0.02,0.22-0.07,0.33
				c-0.05,0.1-0.1,0.17-0.17,0.21l-0.71,0.41c-0.08,0.05-0.15,0.07-0.22,0.08c-0.06,0-0.13-0.03-0.19-0.11L331.99,321.99z"/>
			<path class="st3" d="M336.96,318.8c0,0.29,0.05,0.5,0.15,0.62c0.1,0.12,0.29,0.09,0.57-0.07l0.56-0.33
				c0.07-0.04,0.13-0.04,0.17,0.01c0.05,0.05,0.07,0.12,0.07,0.23v0.94c0,0.11-0.03,0.21-0.07,0.31c-0.05,0.1-0.11,0.17-0.17,0.21
				l-0.68,0.39c-0.58,0.33-1.02,0.38-1.33,0.12c-0.31-0.25-0.47-0.82-0.47-1.71v-3.06l-0.61,0.35c-0.07,0.04-0.13,0.03-0.17-0.01
				c-0.05-0.05-0.08-0.12-0.08-0.23v-0.94c0-0.1,0.03-0.21,0.08-0.31c0.05-0.1,0.11-0.18,0.17-0.21l0.61-0.35v-2.32
				c0-0.1,0.02-0.21,0.07-0.31c0.05-0.1,0.11-0.18,0.18-0.21l0.7-0.4c0.07-0.04,0.13-0.04,0.18,0.01c0.05,0.05,0.07,0.12,0.07,0.23
				v2.32l1.19-0.69c0.07-0.04,0.13-0.04,0.18,0.01c0.05,0.05,0.07,0.12,0.07,0.23v0.94c0,0.11-0.02,0.21-0.07,0.31
				c-0.05,0.1-0.11,0.18-0.18,0.21l-1.19,0.69V318.8z"/>
		</g>
	</g>
</g>
<g id="Magic_Wand_1_">
	<g id="Magic_Wand">
		
			<ellipse transform="matrix(0.5023 -0.8647 0.8647 0.5023 114.0081 391.2145)" class="st3" cx="396.83" cy="96.57" rx="16.15" ry="9.33"/>
		
			<ellipse transform="matrix(0.5023 -0.8647 0.8647 0.5023 114.0081 391.2145)" class="st22" cx="396.83" cy="96.57" rx="16.15" ry="9.33"/>
		<g>
			<path id="XMLID_329_" class="st3" d="M420.13,86.92c0.11-0.99,0.75-2.34,1.49-3.02l3.21-3.42c0.73-0.67,1.19-2.02,1.03-3.01
				l-1.15-6.67c-0.17-0.99-0.99-1.33-1.82-0.8l-3.21,1.82c-0.83,0.55-1.88,0.26-2.45-0.55c-0.37-0.54-0.76-1.03-1.19-1.46
				c-0.69-0.73-1.07-1.97-0.71-2.91l1.44-4.65c0.34-0.94-0.17-1.88-1.14-2.1l-4.61-1.03c-0.97-0.22-2.14,0.32-2.61,1.21l-2.65,4.47
				c-0.47,0.89-1.65,1.73-2.62,1.97c-0.93,0.24-1.87,0.54-2.84,0.94c-0.92,0.37-1.88-0.05-2.18-1l-1-2.08
				c-0.29-0.95-1.16-1.22-1.95-0.61l-6.9,5.43c-0.78,0.62-1.38,1.93-1.31,2.93l-0.14,3.47c0.06,1-0.43,2.41-1.08,3.17
				c-1.12,1.36-2.2,2.77-3.2,4.25c-0.56,0.83-1.81,1.48-2.81,1.42l-1.97-0.23c-1-0.06-2.14,0.64-2.55,1.56l-4.52,10.1
				c-0.4,0.92,0.01,1.97,0.93,2.37l1.47,0.79c0.91,0.4,1.45,1.5,1.23,2.48c-0.35,1.51-0.6,2.99-0.77,4.47
				c-0.12,0.98-0.76,2.34-1.5,3.02l-3.19,3.46c-0.75,0.68-1.2,2.03-1.03,3.02l1.15,6.67c0.17,0.98,0.98,1.33,1.82,0.79l3.2-1.87
				c0.83-0.55,1.87-0.26,2.45,0.55c0.37,0.53,0.76,1.01,1.18,1.46c0.69,0.74,1.07,1.98,0.72,2.91l-1.52,4.77
				c-0.35,0.94,0.16,1.88,1.14,2.1l4.6,1.03c0.98,0.21,2.15-0.33,2.61-1.21l2.74-4.59c0.47-0.89,1.65-1.73,2.62-1.97
				c0.92-0.24,1.88-0.54,2.84-0.94c0.93-0.37,1.89,0.04,2.17,1l0.94,2.67c0.29,0.95,1.16,1.22,1.95,0.6l7.32-5.73
				c0.78-0.61,1.75-1.84,1.31-2.92l-0.64-0.72l-5.16-6.19c-1.42,1.22-2.9,2.3-4.43,3.18c-9.96,5.75-18.03,1.12-18.03-10.34
				s8.07-25.41,18.03-31.16c9.95-5.75,18.03-1.12,18.03,10.34c0,4.76-1.4,9.96-3.74,14.81l4.89,5.87l0.87,0.04
				c0.99,0.06,2.13-0.65,2.54-1.56l3.69-8.2c0.41-0.92-0.01-1.98-0.93-2.37l-1.6-0.9c-0.92-0.39-1.45-1.49-1.23-2.47
				C419.7,89.88,419.96,88.39,420.13,86.92z"/>
			<path class="st10" d="M402.42,109.95l-7.26-8.78c-0.44-0.53-0.52-1.45-0.17-2.04l4.23-5.27c0.35-0.6,0.98-0.65,1.43-0.12
				l7.26,8.78L402.42,109.95z"/>
			<path class="st11" d="M437.57,140l-4.23,5.27c-0.35,0.6-0.98,0.65-1.43,0.12l-28.16-33.83l5.48-7.43l28.16,33.83
				C437.84,138.49,437.92,139.4,437.57,140z"/>
		</g>
		<g id="Shine_7_">
			<g>
				<path class="st3" d="M426.18,53.36c-0.27-0.17-0.37-0.52-0.22-0.81l0.28-0.53c0.73-1.38,0.35-3.05-0.9-3.97l-0.48-0.35
					c-0.26-0.19-0.33-0.55-0.16-0.82c0.17-0.27,0.52-0.37,0.81-0.22l0.53,0.28l0,0c1.38,0.73,3.05,0.35,3.97-0.9l0.36-0.48
					c0.19-0.26,0.55-0.33,0.82-0.15c0,0,0,0,0,0c0.27,0.17,0.37,0.52,0.21,0.81l-0.28,0.53c-0.73,1.38-0.35,3.05,0.9,3.97l0.48,0.36
					c0.26,0.19,0.32,0.55,0.15,0.82c-0.17,0.27-0.52,0.37-0.81,0.21l-0.53-0.28c-1.38-0.72-3.04-0.34-3.97,0.9L427,53.21
					C426.81,53.47,426.45,53.54,426.18,53.36C426.18,53.36,426.18,53.36,426.18,53.36z M427.34,48.54c0.36,0.67,0.53,1.43,0.5,2.19
					c0.68-0.36,1.43-0.53,2.2-0.5c-0.36-0.67-0.53-1.43-0.5-2.2C428.86,48.4,428.1,48.57,427.34,48.54z"/>
			</g>
		</g>
		<g id="Shine_6_">
			<g>
				<path class="st3" d="M361.18,133.23c0.32-0.06,0.62,0.13,0.71,0.44l0.16,0.58c0.41,1.5,1.83,2.46,3.37,2.28l0.59-0.07
					c0.32-0.04,0.61,0.18,0.67,0.49c0.06,0.32-0.13,0.62-0.44,0.71l-0.58,0.16l0,0c-1.5,0.41-2.46,1.83-2.28,3.37l0.07,0.59
					c0.04,0.32-0.18,0.61-0.49,0.67c0,0,0,0,0,0c-0.31,0.06-0.62-0.13-0.71-0.44l-0.16-0.57c-0.41-1.5-1.83-2.46-3.37-2.28
					l-0.59,0.07c-0.32,0.04-0.61-0.18-0.67-0.49c-0.06-0.31,0.13-0.62,0.44-0.71l0.58-0.16c1.5-0.41,2.46-1.83,2.28-3.37l-0.07-0.59
					C360.65,133.59,360.87,133.3,361.18,133.23C361.18,133.23,361.18,133.23,361.18,133.23z M363.63,137.55
					c-0.72-0.25-1.37-0.68-1.86-1.26c-0.25,0.72-0.68,1.37-1.26,1.86c0.72,0.25,1.36,0.68,1.86,1.26
					C362.62,138.69,363.06,138.05,363.63,137.55z"/>
			</g>
		</g>
		<g id="Shine_5_">
			<g>
				<path class="st3" d="M436.24,112.39c-0.31,0.07-0.63-0.11-0.72-0.42l-0.18-0.57c-0.46-1.48-1.92-2.39-3.45-2.16l-0.59,0.09
					c-0.32,0.05-0.62-0.16-0.69-0.47c-0.07-0.31,0.11-0.63,0.42-0.73l0.57-0.18l0,0c1.48-0.46,2.39-1.92,2.16-3.45l-0.09-0.59
					c-0.05-0.32,0.16-0.62,0.47-0.69c0.31-0.07,0.63,0.11,0.72,0.42l0.18,0.57c0.46,1.48,1.92,2.39,3.45,2.16l0.59-0.09
					c0.32-0.05,0.62,0.16,0.69,0.47c0.07,0.31-0.11,0.63-0.42,0.72l-0.57,0.18c-1.48,0.46-2.39,1.92-2.16,3.45l0.09,0.59
					C436.76,112.02,436.56,112.32,436.24,112.39z M433.64,108.17c0.73,0.22,1.39,0.63,1.91,1.19c0.22-0.73,0.63-1.39,1.19-1.91
					c-0.73-0.22-1.39-0.63-1.91-1.19C434.61,106.99,434.2,107.65,433.64,108.17z"/>
			</g>
		</g>
		<g id="Shine_4_">
			<g>
				<path class="st3" d="M369.49,75.89c-0.01,0.01-0.01,0.01-0.02,0.02c-0.24,0.21-0.61,0.2-0.84-0.02l-0.43-0.42c0,0,0,0,0,0
					c-1.11-1.09-2.82-1.19-4.06-0.26l-0.48,0.36c-0.26,0.19-0.62,0.16-0.83-0.08c-0.21-0.24-0.2-0.61,0.02-0.84l0.42-0.43
					c1.09-1.11,1.19-2.82,0.26-4.07l-0.36-0.48c-0.19-0.26-0.15-0.62,0.08-0.83c0.24-0.21,0.61-0.2,0.84,0.02l0.43,0.42
					c1.11,1.09,2.82,1.19,4.07,0.26l0.48-0.36c0.26-0.19,0.62-0.16,0.83,0.08c0.21,0.24,0.2,0.61-0.02,0.84l-0.42,0.43
					c-1.08,1.11-1.19,2.82-0.26,4.06l0.36,0.48C369.75,75.33,369.72,75.68,369.49,75.89z M365.17,73.43
					c0.75-0.15,1.52-0.1,2.25,0.14c-0.15-0.75-0.1-1.52,0.14-2.25c-0.75,0.15-1.52,0.1-2.25-0.14
					C365.47,71.93,365.42,72.71,365.17,73.43z"/>
			</g>
		</g>
		<circle class="st3" cx="368.3" cy="141.34" r="0.96"/>
		<path class="st3" d="M430.99,58.31c0,0.53-0.43,0.96-0.96,0.96s-0.96-0.43-0.96-0.96s0.43-0.96,0.96-0.96
			S430.99,57.78,430.99,58.31z"/>
		<path class="st3" d="M429.68,102.59c0,0.53-0.43,0.96-0.96,0.96c-0.53,0-0.96-0.43-0.96-0.96s0.43-0.96,0.96-0.96
			C429.25,101.63,429.68,102.06,429.68,102.59z"/>
		<path class="st3" d="M366.13,82c0,0.53-0.43,0.96-0.96,0.96s-0.96-0.43-0.96-0.96c0-0.53,0.43-0.96,0.96-0.96
			S366.13,81.47,366.13,82z"/>
	</g>
</g>
<g id="Character">
	<g id="Character_1_">
		<g>
			<path class="st13" d="M371.39,407.77c-0.26,0.08-0.29,1.56-0.06,2.04c0.26,0.54,1.87,2.31,5.15,2.96
				c3.28,0.64,7.79-0.02,9.73-0.12c1.94-0.1,8.04,0.63,9.98,0.89c3.04,0.41,5.39-0.25,6.52-1.36c0.45-0.43,0.48-1.06,0.46-1.6
				c-0.05-1.29-0.17-1.54-0.32-1.53L371.39,407.77z"/>
			<g id="XMLID_1019_">
				<g id="XMLID_1020_">
					<path id="XMLID_1022_" class="st14" d="M402.33,405.23c0.06,0.25,0.12,0.51,0.16,0.76c0.24,1.27,0.45,2.67,0.28,3.95
						c-0.39,0.96-1.47,1.49-2.34,1.77c-2.29,0.73-4.04,0.61-6.58,0.13c-1.52-0.29-5.9-0.6-7.72-0.47c-2,0.14-4.75,0.52-6.75,0.33
						c-1.71-0.16-3.39-0.34-4.97-1.01c-1.34-0.57-2.7-1.3-3.02-2.68c-0.13-2.5,1.14-3.71,2.51-4.52c1.45-0.85,3.34-1.08,5.02-1.08
						c1.89,0,3.32,0.25,5,0.12c1.14-0.09,3.21-0.25,4.31-0.6c1.26-0.4,3.15-1.63,3.68-1.69c0,0,7.92-0.2,8.72-0.13
						c0.93,0.08,1.09,2.06,1.21,2.68c0.09,0.49,0.11,1.01,0.24,1.48C402.17,404.6,402.26,404.91,402.33,405.23z"/>
				</g>
			</g>
			<path class="st10" d="M386.82,402.23c-1.81,1.39-2.06,3.56-2.06,3.56c0.05,0.97-1.66,1.05-1.7,0.09c0,0,0.33-1.98,1.5-3.4
				C384.55,402.47,385.74,401.97,386.82,402.23z"/>
			<path class="st10" d="M383.02,402.57c0,0-1.3,1.01-1.83,3.27c-0.02,0.71-1.51,0.65-1.49-0.06c0,0,0.2-2.29,1.83-3.26
				C382.01,402.19,382.87,402.29,383.02,402.57z"/>
		</g>
		<g>
			<path id="XMLID_1016_" class="st13" d="M408.16,382.21c-0.25,2.72-0.32,3.44,0.35,5.22c0.96,2.55,2.66,3.73,3.8,4.72
				c1.15,0.99,2.43,2.47,3.36,3.91c0.83,1.29,1.77,2.76,3.51,4.21c1.09,0.91,4.1,0.93,5.54,0.29c1.44-0.64,1.92-1.2,1.78-3.52
				c-0.13-2.27-7.19-2.97-7.19-2.97L408.16,382.21z"/>
			<path id="XMLID_1015_" class="st14" d="M425.46,390.15c0.6,0.22,0.78,1.36,0.92,3.63c0.1,1.72,0.88,4.22-1.47,5.35
				c-1.89,0.91-4.96,0.39-6.28-1.2c-1.65-1.99-2.78-3.75-5.13-6.17c-2.04-2.1-4.13-2.78-5.1-7.05c-0.62-2.74-0.2-3.89,1.64-4.72
				c2.52-1.14,6.6,2.33,8.6,2.85C420.36,383.29,424.86,389.94,425.46,390.15z"/>
			<path id="XMLID_1013_" class="st10" d="M418.64,382.84c-0.11-0.03-0.22-0.07-0.34-0.11c-3.67,0.39-5.09,2.95-5.44,3.73
				c-0.32,0.76,0.73,1.32,1.34,0.72c1.37-2.86,4.28-3.54,5.44-3.7C419.25,383.15,418.91,382.91,418.64,382.84z"/>
			<path id="XMLID_1012_" class="st10" d="M420.31,384.11c-3.39,0.52-4.71,2.94-5.05,3.69c-0.32,0.76,0.73,1.32,1.35,0.72
				c1.08-2.26,3.14-3.17,4.53-3.52C420.85,384.68,420.57,384.37,420.31,384.11z"/>
		</g>
		<path class="st23" d="M428.72,346.49l-14.26,1.85c0,0,0.38,8.78,1.25,18.37c0.73,7.98,1.62,19.37,2.08,23
			c0.05,0.6,0.11,1.07,0.14,1.14c0.24,2.14,7.53,2.79,7.53,0.31l0.15-2.9C426.21,379.63,429.44,359.4,428.72,346.49z"/>
		<path class="st23" d="M402.75,349.19l-11.84,1.65l0.97,48.46l-0.03,0.86c0.08,2.16,1.24,2.86,4.22,2.98
			c3.62,0.14,4.96-1.42,4.99-2.61c0-0.11,0.01-0.24,0.01-0.36c1.27-11.25,3.18-29.89,3.44-36.03
			C404.72,359.21,403.98,352.65,402.75,349.19z"/>
		<g id="XMLID_986_">
			<path id="XMLID_987_" class="st23" d="M442.28,267.38c-4.85-28.09-10.08-33.23-18.55-36.86l2.01,15.66c0,0,7.22,18.4,8.13,24.82
				c0.8,5.65,1.66,12.74,1.24,17.51c-0.07,0.85-0.48,1.63-1.1,2.21c-1.66,1.56-2.18,2.93-3.3,4.71c-0.88,1.39-1.78,1.88-1.55,2.22
				c0.28,0.44,1.24,1.05,2.52,0.36c0.65-0.35,1.43-1.07,2.39-2c0,0-0.33,2.49-1.8,5.28c-2,3.79-1.72,5.81,3.65,4.78
				c3.37-0.64,5.63-3.26,6.67-11.17c0.3-2.28,0.77-5.88,0.69-8.79C443.11,278.56,443.06,271.9,442.28,267.38z"/>
			<path class="st13" d="M443.65,277.44c0,0-0.05,6.39-0.36,8.69c0,0-5.04,1.31-8.26-0.19l-0.96-7.47L443.65,277.44z"/>
			<path class="st14" d="M419.31,229.94c3.3-0.11,10.6-0.13,14.45,7.47c3.63,7.17,9.53,21.97,9.91,40.48c0,0-5.18,1.5-9.6,0.59
				c0,0-1.29-9.38-3.75-15.49c-2.07-5.13-6.64-17.95-6.96-19.88C423.04,241.14,419.31,229.94,419.31,229.94z"/>
		</g>
		<g id="XMLID_976_">
			<g>
				<path id="XMLID_985_" class="st3" d="M429.23,347.85c-0.34-8.28-1.22-8.46-2.55-14.94c0.67-7.89,1.3-14.53,1.58-23.08
					c0.3-9.24-0.09-20.35-0.09-30.16c-10.11-0.68-35.39-9.04-38.55,6.85c-0.92,12.83,0.36,38.22,0.5,55.71
					c0.15,17.49-0.09,31.89,0.94,50.65c2.9,1.06,8.24,1.52,11.08-0.39c2.3-11.74,3.58-23.57,4.4-30.85c1-8.89-0.03-12.46,0.05-16.51
					c0.49-6.98,1.1-14.59,1.64-21.42c0.54-6.83,2.04-21.07,2.04-21.07s1.04,16.57,1.6,24.89c0.56,8.32,1.23,14.56,2.11,24.08
					c0.81,8.78,1.7,18.97,2.56,29.13c2.39,1.13,6.75,1.69,10-0.16C428.67,370.99,429.57,356.13,429.23,347.85z"/>
				<path id="XMLID_980_" class="st24" d="M429.23,347.85c-0.34-8.28-1.22-8.46-2.55-14.94c0.67-7.89,1.3-14.53,1.58-23.08
					c0.3-9.24-0.09-20.35-0.09-30.16c-10.11-0.68-35.39-9.04-38.55,6.85c-0.92,12.83,0.36,38.22,0.5,55.71
					c0.15,17.49-0.09,31.89,0.94,50.65c2.9,1.06,8.24,1.52,11.08-0.39c2.3-11.74,3.58-23.57,4.4-30.85c1-8.89-0.03-12.46,0.05-16.51
					c0.49-6.98,1.1-14.59,1.64-21.42c0.54-6.83,2.04-21.07,2.04-21.07c0.51,8.13,1.04,16.57,1.6,24.89
					c0.56,8.32,1.23,14.56,2.11,24.08c0.81,8.78,1.7,18.97,2.56,29.13c2.39,1.13,6.75,1.69,10-0.16
					C428.67,370.99,429.57,356.13,429.23,347.85z"/>
			</g>
			<g id="XMLID_977_" class="st20">
				<path id="XMLID_978_" d="M410.27,302.65c4.18-0.37,6.53-1.77,9.48-5.07c-0.63,2.14-2.11,5.2-6.94,6.5
					c-0.18,1.1-1.25,18.96-1.25,18.96L410.27,302.65z"/>
			</g>
		</g>
		<g id="XMLID_973_">
			<g id="XMLID_974_">
				<path id="XMLID_975_" class="st11" d="M427.02,236.32c-1.13-3.44-5.5-7.18-9.86-6.37c-8.02,1.49-14.39,3.08-19.12,4.78
					c-4,1.43-7.64,4.88-7.97,18.04c0,0-2.67,32.68-0.62,37.01c10.04,3.97,19.74,3.43,25.51,2.17c12.01-2.62,13.46-7.61,13.46-7.61
					s0.15-22.05-0.2-31.57C427.9,244.67,427.8,238.68,427.02,236.32z"/>
			</g>
		</g>
		<g id="XMLID_971_">
			<polygon id="XMLID_972_" class="st23" points="401.8,225.44 403.1,237.72 414.11,237.73 412.83,223.83 			"/>
			<g>
				<path class="st14" d="M399.2,234.32c0.8-1.67,1.42-3.9,2.97-4.18c0,0,5.4,0.81,8.07-0.3c2.66-1.11,3.39-2.37,3.39-2.37
					s2.35-0.99,3.95,0.71c1.61,1.71,6.4,4.54,7.67,9.56c1.26,5.02,2.29,14.28-3.51,16.07c-8.48,2.62-14.53-1.36-16.55-8.39
					C402.97,237.72,403.59,235.71,399.2,234.32z"/>
				<path class="st13" d="M405.83,234.96c1.39,1.9,2.86,10.18,6.15,13.4c3.3,3.23,10.44,2.45,11.74-0.84c0,0-0.24,4.21-5.29,4.7
					c-5.05,0.49-9.47-3.09-10.73-7.99C406.45,239.31,406.62,237.19,405.83,234.96z"/>
			</g>
		</g>
		<g>
			<g id="XMLID_983_">
				<g id="XMLID_967_">
					<path id="XMLID_969_" class="st25" d="M393.05,210.98c0,0-3.12,4.97-2.74,5.45c0.38,0.47,2.77,0.85,2.77,0.85L393.05,210.98z"
						/>
				</g>
				<g id="XMLID_984_">
					<path id="XMLID_966_" class="st23" d="M400.68,198.86c-5.8,1.36-7.43,3.96-7.77,13.24c-0.36,9.69,0.7,12.71,2,13.99
						c0.88,0.86,5.65,0.91,8.04,0.19c2.99-0.9,9.74-3.46,12.82-8.4c3.62-5.81,4.43-13.6,0.34-16.69
						C410.38,196.83,403.05,198.31,400.68,198.86z"/>
				</g>
			</g>
			<g id="XMLID_956_">
				<g id="XMLID_981_">
					<g id="XMLID_961_">
						<path id="XMLID_982_" class="st13" d="M392.45,202.81c1.01,0.78,2.23,1.23,3.59,1.11c-0.25,0.02-0.17,1.08-0.14,1.23
							c0.1,0.48,0.36,0.82,0.7,1.14c0.66,0.63,1.78,0.98,2.62,0.45c-0.79,0.65-0.19,2.62,0.08,3.42c0.33,0.96,0.46,1.98,1.53,2.41
							c0,0,0.84-3.6,3.87-3.22c3.05,0.38,3.54,4.24,1.68,6.64c-1.86,2.39-3.66,1.53-3.66,1.53s0.21,5.11,2.54,7.96
							c0,0,2.98,0.85,7.7-0.27c1.87-2.09,4.48-4.78,7.2-8.46c5.32-7.2,4.58-15.52-0.68-17.61c0.09,0.04-0.08-2.99-0.17-3.29
							c-0.3-1.1-0.81-1.91-1.69-2.63c-1.79-1.46-4.15-2.06-6.42-2.2c-2.65-0.17-5.31,0.22-7.97,0.2c-2.9-0.02-5.8-0.52-8.54-1.47
							c-1.17-0.41-2.6-0.85-3.52-0.02c-0.64,0.58-0.72,1.56-0.6,2.41c0.26,1.77,1.23,3.42,2.65,4.51c-0.59,0.16-1.18-0.18-1.73-0.45
							c-0.55-0.27-1.26-0.46-1.72-0.06c-0.42,0.36-0.4,1.01-0.3,1.55C389.82,199.61,390.89,201.61,392.45,202.81z"/>
					</g>
				</g>
				<g id="XMLID_959_">
					<g id="XMLID_1265_">
						<path id="XMLID_960_" class="st13" d="M419.6,200.41l3.44-2.14c-0.59-0.95-1.84-1.24-2.79-0.65
							C419.3,198.21,419.01,199.46,419.6,200.41z"/>
					</g>
				</g>
			</g>
		</g>
		<g>
			<path id="XMLID_954_" class="st23" d="M349.71,257.5c1.88,0.84,24.02,17.2,27.47,15.29c3.45-1.91,21.16-22.6,21.16-22.6
				c5.14-8.52,0-15.52,0-15.52s-5.92-0.5-10.1,5.29c-3.16,4.36-14.52,19.24-14.52,19.24c-3.17-1.59-14.51-5.91-17.05-7.35
				c-0.63-0.36-1.47-0.71-2-1.23c-1.25-1.24-1.04-4.23-1.01-5.86c0.01-0.76,0.02-1.52,0.11-2.28c0.11-0.93,0.29-3.21-1.39-2.49
				c-0.32,0.14-0.58,0.39-0.8,0.67c-0.26,0.34-0.47,0.73-0.6,1.14c-0.32,0.99-0.21,2.06-0.5,3.06c-0.04,0.14-0.1,0.29-0.21,0.4
				c-0.14,0.13-0.34,0.17-0.53,0.16c-2.44-0.07-4.75-3.49-5.87-5.31c-0.5-0.81-0.99-1.71-1.85-2.11c-1.34-0.62-2.94,0.27-3.8,1.47
				c-1.1,1.53-1.43,3.51-1.21,5.38c0.3,2.59,1.29,4.98,3.18,6.74C343.07,254.25,346.17,255.93,349.71,257.5z"/>
			<path class="st13" d="M365.81,255.82l-5.54-2.31c0,0-4.44,2.38-4.38,8.06l5.36,3.56L365.81,255.82z"/>
			<path class="st14" d="M399.2,234.32c0,0-5.38-0.44-8.55,2.33c-3.17,2.76-17.09,21.79-17.09,21.79l-7.75-2.62
				c0,0-5.18,3.52-4.56,9.32c0,0,5.45,4.04,8.42,5.78c2.97,1.74,5.92,2.83,7.24,2.76c1.32-0.07,20.9-21.42,20.9-21.42
				s3.9-4.97,3.53-9.99C400.98,237.26,399.2,234.32,399.2,234.32z"/>
		</g>
	</g>
</g>
</svg>
